g soften_normals1
v 0.00142857141 0 -1.24889682E-10
v -0 0 0
v 0.00141634978 0 -0.000186466015
v 0.00285714283 0 -2.49779364E-10
v 0.00283269957 0 -0.000372932031
v 0.00428571459 0 -3.74669074E-10
v 0.00137989398 0 -0.000369741494
v -0 0 0
v 0.00424904982 0 -0.000559398031
v 0.00571428565 0 -4.99558728E-10
v 0.00275978795 0 -0.000739482988
v 0.00566539913 0 -0.000745864061
v 0.00714285718 0 -6.24448382E-10
v 0.00131982786 0 -0.000546690659
v -0 0 0
v 0.00413968228 0 -0.00110922451
v 0.00708174938 0 -0.000932330033
v 0.00857142918 0 -7.49338147E-10
v 0.00263965572 0 -0.00109338132
v 0.00551957591 0 -0.00147896598
v 0.00849809963 0 -0.00111879606
v 0.00999999978 0 -8.74227746E-10
v 0.00991444848 0 -0.00130526198
v 0.00689947 0 -0.00184870744
v 0.00827936456 0 -0.00221844902
v 0.00965925772 0 -0.00258819037
v 0.00395948393 0 -0.00164007198
v 0.00123717915 0 -0.000714285707
v -0 0 0
v 0.00527931144 0 -0.00218676263
v 0.00659913942 0 -0.00273345318
v 0.00791896787 0 -0.00328014395
v 0.00923879445 0 -0.00382683449
v 0.00247435831 0 -0.00142857141
v 0.00371153769 0 -0.00214285729
v 0.00494871661 0 -0.00285714283
v 0.00618589576 0 -0.00357142859
v 0.00742307538 0 -0.00428571459
v 0.00866025407 0 -0.00499999989
v 0.00113336183 0 -0.000869659241
v -0 0 0
v 0.00226672366 0 -0.00173931848
v 0.00340008573 0 -0.00260897772
v 0.00453344733 0 -0.00347863697
v 0.00566680962 0 -0.00434829574
v 0.00680017145 0 -0.00521795545
v 0.00793353282 0 -0.00608761422
v 0.00101015251 0 -0.00101015251
v -0 0 0
v 0.00202030502 0 -0.00202030502
v 0.00303045777 0 -0.00303045777
v 0.00404061005 0 -0.00404061005
v 0.00505076256 0 -0.00505076256
v 0.00606091553 0 -0.00606091553
v 0.00707106758 0 -0.00707106758
v 0.000869659067 0 -0.00113336206
v -0 0 0
v 0.00173931813 0 -0.00226672413
v 0.00260897749 0 -0.00340008619
v 0.00347863627 0 -0.00453344826
v 0.00434829574 0 -0.00566681009
v 0.00521795498 0 -0.00680017238
v 0.00608761376 0 -0.00793353375
v 0.000714285648 0 -0.00123717927
v -0 0 0
v 0.0014285713 0 -0.00247435854
v 0.00214285706 0 -0.00371153792
v 0.00285714259 0 -0.00494871708
v 0.00357142836 0 -0.00618589623
v 0.00428571412 0 -0.00742307585
v 0.00499999942 0 -0.00866025407
v 0.0005466906 0 -0.00131982786
v -0 0 0
v 0.0010933812 0 -0.00263965572
v 0.00164007198 0 -0.00395948393
v 0.0021867624 0 -0.00527931144
v 0.00273345318 0 -0.00659913942
v 0.00328014395 0 -0.00791896787
v 0.00382683426 0 -0.00923879445
v 0.000369741523 0 -0.00137989398
v -0 0 0
v 0.000739483046 0 -0.00275978795
v 0.00110922463 0 -0.00413968228
v 0.00147896609 0 -0.00551957591
v 0.00184870756 0 -0.00689947
v 0.00221844926 0 -0.00827936456
v 0.0025881906 0 -0.00965925772
v 0.000186465899 0 -0.00141634978
v -0 0 0
v 0.000372931798 0 -0.00283269957
v 0.000559397682 0 -0.00424904982
v 0.000745863596 0 -0.00566539913
v 0.000932329509 0 -0.00708174938
v 0.00111879536 0 -0.00849809963
v 0.00130526128 0 -0.00991444848
v -6.2444841E-11 0 -0.00142857141
v -0 0 0
v -1.24889682E-10 0 -0.00285714283
v -1.87334537E-10 0 -0.00428571459
v -2.49779364E-10 0 -0.00571428565
v -3.12224191E-10 0 -0.00714285718
v -3.74669074E-10 0 -0.00857142918
v -4.37113873E-10 0 -0.00999999978
v -0.00018646603 0 -0.00141634978
v -0 0 0
v -0.00037293206 0 -0.00283269957
v -0.00055939809 0 -0.00424904982
v -0.000745864119 0 -0.00566539913
v -0.000932330091 0 -0.00708174938
v -0.00111879618 0 -0.00849809963
v -0.00130526209 0 -0.00991444848
v -0.000369741698 0 -0.00137989398
v -0 0 0
v -0.000739483396 0 -0.00275978795
v -0.00110922509 0 -0.00413968228
v -0.00147896679 0 -0.00551957591
v -0.00184870837 0 -0.00689947
v -0.00221845019 0 -0.00827936456
v -0.00258819154 0 -0.00965925772
v -0.000546690717 0 -0.00131982786
v -0 0 0
v -0.00109338143 0 -0.00263965572
v -0.00164007233 0 -0.00395948393
v -0.00218676287 0 -0.00527931144
v -0.00273345364 0 -0.00659913942
v -0.00328014465 0 -0.00791896787
v -0.00382683496 0 -0.00923879445
v -0.000714285823 0 -0.00123717915
v -0 0 0
v -0.00142857165 0 -0.00247435831
v -0.00214285753 0 -0.00371153769
v -0.00285714329 0 -0.00494871661
v -0.00357142882 0 -0.00618589576
v -0.00428571505 0 -0.00742307538
v -0.00500000035 0 -0.00866025407
v -0.000869659241 0 -0.00113336183
v -0 0 0
v -0.00173931848 0 -0.00226672366
v -0.00260897772 0 -0.00340008573
v -0.00347863697 0 -0.00453344733
v -0.00434829574 0 -0.00566680962
v -0.00521795545 0 -0.00680017145
v -0.00608761422 0 -0.00793353282
v -0.00101015251 0 -0.00101015251
v -0 0 0
v -0.00202030502 0 -0.00202030502
v -0.00303045777 0 -0.00303045777
v -0.00404061005 0 -0.00404061005
v -0.00505076256 0 -0.00505076256
v -0.00606091553 0 -0.00606091553
v -0.00707106758 0 -0.00707106758
v -0.00113336183 0 -0.000869659241
v -0 0 0
v -0.00226672366 0 -0.00173931848
v -0.00340008573 0 -0.00260897772
v -0.00453344733 0 -0.00347863697
v -0.00566680962 0 -0.00434829574
v -0.00680017145 0 -0.00521795545
v -0.00793353282 0 -0.00608761422
v -0.00123717915 0 -0.000714285823
v -0 0 0
v -0.00247435831 0 -0.00142857165
v -0.00371153769 0 -0.00214285753
v -0.00494871661 0 -0.00285714329
v -0.00618589576 0 -0.00357142882
v -0.00742307538 0 -0.00428571505
v -0.00866025407 0 -0.00500000035
v -0.00131982798 0 -0.000546690426
v -0 0 0
v -0.00263965596 0 -0.00109338085
v -0.0039594844 0 -0.00164007128
v -0.00527931191 0 -0.0021867617
v -0.00659913989 0 -0.00273345201
v -0.0079189688 0 -0.00328014256
v -0.00923879631 0 -0.00382683263
v -0.00137989409 0 -0.000369741319
v -0 0 0
v -0.00275978819 0 -0.000739482639
v -0.00413968274 0 -0.00110922405
v -0.00551957637 0 -0.00147896528
v -0.00689947046 0 -0.00184870651
v -0.00827936549 0 -0.00221844809
v -0.00965925865 0 -0.00258818921
v -0.00141634978 0 -0.000186465826
v -0 0 0
v -0.00283269957 0 -0.000372931652
v -0.00424904982 0 -0.000559397507
v -0.00566539913 0 -0.000745863304
v -0.00708174938 0 -0.000932329101
v -0.00849809963 0 -0.00111879501
v -0.00991444848 0 -0.00130526081
v -0.00142857141 0 1.24889682E-10
v -0 0 0
v -0.00285714283 0 2.49779364E-10
v -0.00428571459 0 3.74669074E-10
v -0.00571428565 0 4.99558728E-10
v -0.00714285718 0 6.24448382E-10
v -0.00857142918 0 7.49338147E-10
v -0.00999999978 0 8.74227746E-10
v -0.00141634978 0 0.000186466088
v -0 0 0
v -0.00283269957 0 0.000372932176
v -0.00424904982 0 0.000559398322
v -0.00566539913 0 0.000745864352
v -0.00708174892 0 0.000932330382
v -0.00849809963 0 0.00111879664
v -0.00991444848 0 0.00130526256
v -0.00137989398 0 0.000369741523
v -0 0 0
v -0.00275978795 0 0.000739483046
v -0.00413968228 0 0.00110922463
v -0.00551957591 0 0.00147896609
v -0.00689947 0 0.00184870756
v -0.00827936456 0 0.00221844926
v -0.00965925772 0 0.0025881906
v -0.00131982786 0 0.0005466906
v -0 0 0
v -0.00263965572 0 0.0010933812
v -0.00395948393 0 0.00164007198
v -0.00527931144 0 0.0021867624
v -0.00659913942 0 0.00273345318
v -0.00791896787 0 0.00328014395
v -0.00923879445 0 0.00382683426
v -0.00123717904 0 0.000714285939
v -0 0 0
v -0.00247435807 0 0.00142857188
v -0.00371153699 0 0.00214285799
v -0.00494871615 0 0.00285714376
v -0.0061858953 0 0.00357142976
v -0.00742307398 0 0.00428571599
v -0.00866025221 0 0.00500000175
v -0.00113336171 0 0.000869659474
v -0 0 0
v -0.00226672343 0 0.00173931895
v -0.00340008526 0 0.00260897842
v -0.00453344686 0 0.0034786379
v -0.00566680823 0 0.00434829714
v -0.00680017052 0 0.00521795684
v -0.00793353189 0 0.00608761609
v -0.00101015239 0 0.00101015274
v -0 0 0
v -0.00202030479 0 0.00202030549
v -0.00303045707 0 0.00303045823
v -0.00404060958 0 0.00404061098
v -0.00505076163 0 0.00505076349
v -0.00606091414 0 0.00606091646
v -0.00707106618 0 0.00707106851
v -0.000869659299 0 0.00113336183
v -0 0 0
v -0.0017393186 0 0.00226672366
v -0.00260897819 0 0.00340008549
v -0.0034786372 0 0.00453344733
v -0.00434829621 0 0.00566680916
v -0.00521795638 0 0.00680017099
v -0.00608761469 0 0.00793353282
v -0.00071428559 0 0.00123717927
v -0 0 0
v -0.00142857118 0 0.00247435854
v -0.00214285683 0 0.00371153792
v -0.00285714236 0 0.00494871708
v -0.00357142789 0 0.00618589623
v -0.00428571366 0 0.00742307585
v -0.00499999896 0 0.00866025407
v -0.000546690193 0 0.00131982821
v -0 0 0
v -0.00109338039 0 0.00263965642
v -0.0016400707 0 0.0039594844
v -0.00218676077 0 0.00527931284
v -0.00273345108 0 0.00659914082
v -0.00328014139 0 0.0079189688
v -0.00382683123 0 0.00923879631
v -0.000369741436 0 0.00137989409
v -0 0 0
v -0.000739482872 0 0.00275978819
v -0.00110922428 0 0.00413968274
v -0.00147896574 0 0.00551957637
v -0.00184870698 0 0.00689947046
v -0.00221844856 0 0.00827936549
v -0.00258818967 0 0.00965925865
v -0.000186465608 0 0.00141634978
v -0 0 0
v -0.000372931216 0 0.00283269957
v -0.000559396809 0 0.00424904982
v -0.000745862431 0 0.00566539913
v -0.000932327996 0 0.00708174938
v -0.00111879362 0 0.00849809963
v -0.00130525918 0 0.00991444848
v 1.70355431E-11 0 0.00142857141
v -0 0 0
v 3.40710862E-11 0 0.00285714283
v 5.11066328E-11 0 0.00428571459
v 6.81421725E-11 0 0.00571428565
v 8.5177719E-11 0 0.00714285718
v 1.02213266E-10 0 0.00857142918
v 1.19248805E-10 0 0.00999999978
v 0.000186466306 0 0.00141634978
v -0 0 0
v 0.000372932613 0 0.00283269957
v 0.000559398904 0 0.00424904982
v 0.000745865225 0 0.00566539913
v 0.000932331488 0 0.00708174892
v 0.00111879781 0 0.00849809963
v 0.00130526407 0 0.00991444848
v 0.000369741465 0 0.00137989398
v -0 0 0
v 0.00073948293 0 0.00275978795
v 0.00110922439 0 0.00413968228
v 0.00147896586 0 0.00551957591
v 0.00184870732 0 0.00689947
v 0.00221844879 0 0.00827936456
v 0.00258819014 0 0.00965925772
v 0.000546690891 0 0.00131982786
v -0 0 0
v 0.00109338178 0 0.00263965572
v 0.00164007267 0 0.00395948347
v 0.00218676357 0 0.00527931144
v 0.00273345434 0 0.00659913896
v 0.00328014535 0 0.00791896693
v 0.00382683589 0 0.00923879445
v 0.00071428559 0 0.00123717927
v -0 0 0
v 0.00142857118 0 0.00247435854
v 0.00214285683 0 0.00371153792
v 0.00285714236 0 0.00494871708
v 0.00357142789 0 0.00618589623
v 0.00428571366 0 0.00742307585
v 0.00499999896 0 0.00866025407
v 0.000869659416 0 0.00113336183
v -0 0 0
v 0.00173931883 0 0.00226672366
v 0.00260897819 0 0.00340008549
v 0.00347863766 0 0.00453344733
v 0.00434829667 0 0.00566680916
v 0.00521795638 0 0.00680017099
v 0.00608761515 0 0.00793353282
v 0.00101015286 0 0.00101015228
v -0 0 0
v 0.00202030572 0 0.00202030456
v 0.00303045893 0 0.00303045684
v 0.00404061144 0 0.00404060911
v 0.00505076442 0 0.00505076116
v 0.00606091786 0 0.00606091367
v 0.00707106991 0 0.00707106525
v 0.00113336206 0 0.000869659067
v -0 0 0
v 0.00226672413 0 0.00173931813
v 0.00340008619 0 0.00260897749
v 0.00453344826 0 0.00347863627
v 0.00566681009 0 0.00434829574
v 0.00680017238 0 0.00521795498
v 0.00793353375 0 0.00608761376
v 0.00123717939 0 0.000714285357
v -0 0 0
v 0.00247435877 0 0.00142857071
v 0.00371153816 0 0.00214285613
v 0.00494871754 0 0.00285714143
v 0.00618589669 0 0.00357142673
v 0.00742307631 0 0.00428571226
v 0.00866025593 0 0.00499999756
v 0.00131982798 0 0.0005466906
v -0 0 0
v 0.00263965596 0 0.0010933812
v 0.00395948393 0 0.00164007198
v 0.00527931191 0 0.0021867624
v 0.00659913989 0 0.00273345318
v 0.00791896787 0 0.00328014395
v 0.00923879538 0 0.00382683426
v 0.00137989409 0 0.000369741203
v -0 0 0
v 0.00275978819 0 0.000739482406
v 0.00413968274 0 0.0011092237
v 0.00551957637 0 0.00147896481
v 0.00689947046 0 0.00184870593
v 0.00827936549 0 0.00221844739
v 0.00965925865 0 0.00258818828
v 0.00141634978 0 0.000186466044
v -0 0 0
v 0.00283269957 0 0.000372932089
v 0.00424904982 0 0.000559398148
v 0.00142857141 0 -1.24889682E-10
v -0 0 0
v 0.00285714283 0 -2.49779364E-10
v 0.00428571459 0 -3.74669074E-10
v 0.00566539913 0 0.000745864178
v 0.00571428565 0 -4.99558728E-10
v 0.00708174938 0 0.000932330266
v 0.00714285718 0 -6.24448382E-10
v 0.00849809963 0 0.0011187963
v 0.00857142918 0 -7.49338147E-10
v 0.00991444848 0 0.00130526233
v 0.00999999978 0 -8.74227746E-10
vt 1 0.142857149
vt 1 0
vt 0.979166687 0.142857149
vt 1 0.285714298
vt 0.979166687 0.285714298
vt 1 0.428571433
vt 0.958333313 0.142857149
vt 0.979166687 0
vt 0.979166687 0.428571433
vt 1 0.571428597
vt 0.958333313 0.285714298
vt 0.979166687 0.571428597
vt 1 0.714285731
vt 0.9375 0.142857149
vt 0.958333313 0
vt 0.958333313 0.428571433
vt 0.979166687 0.714285731
vt 1 0.857142866
vt 0.9375 0.285714298
vt 0.958333313 0.571428597
vt 0.979166687 0.857142866
vt 1 1
vt 0.979166687 1
vt 0.958333313 0.714285731
vt 0.958333313 0.857142866
vt 0.958333313 1
vt 0.9375 0.428571433
vt 0.916666687 0.142857149
vt 0.9375 0
vt 0.9375 0.571428597
vt 0.9375 0.714285731
vt 0.9375 0.857142866
vt 0.9375 1
vt 0.916666687 0.285714298
vt 0.916666687 0.428571433
vt 0.916666687 0.571428597
vt 0.916666687 0.714285731
vt 0.916666687 0.857142866
vt 0.916666687 1
vt 0.895833313 0.142857149
vt 0.916666687 0
vt 0.895833313 0.285714298
vt 0.895833313 0.428571433
vt 0.895833313 0.571428597
vt 0.895833313 0.714285731
vt 0.895833313 0.857142866
vt 0.895833313 1
vt 0.875 0.142857149
vt 0.895833313 0
vt 0.875 0.285714298
vt 0.875 0.428571433
vt 0.875 0.571428597
vt 0.875 0.714285731
vt 0.875 0.857142866
vt 0.875 1
vt 0.854166687 0.142857149
vt 0.875 0
vt 0.854166687 0.285714298
vt 0.854166687 0.428571433
vt 0.854166687 0.571428597
vt 0.854166687 0.714285731
vt 0.854166687 0.857142866
vt 0.854166687 1
vt 0.833333313 0.142857149
vt 0.854166687 0
vt 0.833333313 0.285714298
vt 0.833333313 0.428571433
vt 0.833333313 0.571428597
vt 0.833333313 0.714285731
vt 0.833333313 0.857142866
vt 0.833333313 1
vt 0.8125 0.142857149
vt 0.833333313 0
vt 0.8125 0.285714298
vt 0.8125 0.428571433
vt 0.8125 0.571428597
vt 0.8125 0.714285731
vt 0.8125 0.857142866
vt 0.8125 1
vt 0.791666687 0.142857149
vt 0.8125 0
vt 0.791666687 0.285714298
vt 0.791666687 0.428571433
vt 0.791666687 0.571428597
vt 0.791666687 0.714285731
vt 0.791666687 0.857142866
vt 0.791666687 1
vt 0.770833313 0.142857149
vt 0.791666687 0
vt 0.770833313 0.285714298
vt 0.770833313 0.428571433
vt 0.770833313 0.571428597
vt 0.770833313 0.714285731
vt 0.770833313 0.857142866
vt 0.770833313 1
vt 0.75 0.142857149
vt 0.770833313 0
vt 0.75 0.285714298
vt 0.75 0.428571433
vt 0.75 0.571428597
vt 0.75 0.714285731
vt 0.75 0.857142866
vt 0.75 1
vt 0.729166687 0.142857149
vt 0.75 0
vt 0.729166687 0.285714298
vt 0.729166687 0.428571433
vt 0.729166687 0.571428597
vt 0.729166687 0.714285731
vt 0.729166687 0.857142866
vt 0.729166687 1
vt 0.708333313 0.142857149
vt 0.729166687 0
vt 0.708333313 0.285714298
vt 0.708333313 0.428571433
vt 0.708333313 0.571428597
vt 0.708333313 0.714285731
vt 0.708333313 0.857142866
vt 0.708333313 1
vt 0.6875 0.142857149
vt 0.708333313 0
vt 0.6875 0.285714298
vt 0.6875 0.428571433
vt 0.6875 0.571428597
vt 0.6875 0.714285731
vt 0.6875 0.857142866
vt 0.6875 1
vt 0.666666687 0.142857149
vt 0.6875 0
vt 0.666666687 0.285714298
vt 0.666666687 0.428571433
vt 0.666666687 0.571428597
vt 0.666666687 0.714285731
vt 0.666666687 0.857142866
vt 0.666666687 1
vt 0.645833313 0.142857149
vt 0.666666687 0
vt 0.645833313 0.285714298
vt 0.645833313 0.428571433
vt 0.645833313 0.571428597
vt 0.645833313 0.714285731
vt 0.645833313 0.857142866
vt 0.645833313 1
vt 0.625 0.142857149
vt 0.645833313 0
vt 0.625 0.285714298
vt 0.625 0.428571433
vt 0.625 0.571428597
vt 0.625 0.714285731
vt 0.625 0.857142866
vt 0.625 1
vt 0.604166687 0.142857149
vt 0.625 0
vt 0.604166687 0.285714298
vt 0.604166687 0.428571433
vt 0.604166687 0.571428597
vt 0.604166687 0.714285731
vt 0.604166687 0.857142866
vt 0.604166687 1
vt 0.583333313 0.142857149
vt 0.604166687 0
vt 0.583333313 0.285714298
vt 0.583333313 0.428571433
vt 0.583333313 0.571428597
vt 0.583333313 0.714285731
vt 0.583333313 0.857142866
vt 0.583333313 1
vt 0.5625 0.142857149
vt 0.583333313 0
vt 0.5625 0.285714298
vt 0.5625 0.428571433
vt 0.5625 0.571428597
vt 0.5625 0.714285731
vt 0.5625 0.857142866
vt 0.5625 1
vt 0.541666687 0.142857149
vt 0.5625 0
vt 0.541666687 0.285714298
vt 0.541666687 0.428571433
vt 0.541666687 0.571428597
vt 0.541666687 0.714285731
vt 0.541666687 0.857142866
vt 0.541666687 1
vt 0.520833313 0.142857149
vt 0.541666687 0
vt 0.520833313 0.285714298
vt 0.520833313 0.428571433
vt 0.520833313 0.571428597
vt 0.520833313 0.714285731
vt 0.520833313 0.857142866
vt 0.520833313 1
vt 0.5 0.142857149
vt 0.520833313 0
vt 0.5 0.285714298
vt 0.5 0.428571433
vt 0.5 0.571428597
vt 0.5 0.714285731
vt 0.5 0.857142866
vt 0.5 1
vt 0.479166657 0.142857149
vt 0.5 0
vt 0.479166657 0.285714298
vt 0.479166657 0.428571433
vt 0.479166657 0.571428597
vt 0.479166657 0.714285731
vt 0.479166657 0.857142866
vt 0.479166657 1
vt 0.458333343 0.142857149
vt 0.479166657 0
vt 0.458333343 0.285714298
vt 0.458333343 0.428571433
vt 0.458333343 0.571428597
vt 0.458333343 0.714285731
vt 0.458333343 0.857142866
vt 0.458333343 1
vt 0.4375 0.142857149
vt 0.458333343 0
vt 0.4375 0.285714298
vt 0.4375 0.428571433
vt 0.4375 0.571428597
vt 0.4375 0.714285731
vt 0.4375 0.857142866
vt 0.4375 1
vt 0.416666657 0.142857149
vt 0.4375 0
vt 0.416666657 0.285714298
vt 0.416666657 0.428571433
vt 0.416666657 0.571428597
vt 0.416666657 0.714285731
vt 0.416666657 0.857142866
vt 0.416666657 1
vt 0.395833343 0.142857149
vt 0.416666657 0
vt 0.395833343 0.285714298
vt 0.395833343 0.428571433
vt 0.395833343 0.571428597
vt 0.395833343 0.714285731
vt 0.395833343 0.857142866
vt 0.395833343 1
vt 0.375 0.142857149
vt 0.395833343 0
vt 0.375 0.285714298
vt 0.375 0.428571433
vt 0.375 0.571428597
vt 0.375 0.714285731
vt 0.375 0.857142866
vt 0.375 1
vt 0.354166657 0.142857149
vt 0.375 0
vt 0.354166657 0.285714298
vt 0.354166657 0.428571433
vt 0.354166657 0.571428597
vt 0.354166657 0.714285731
vt 0.354166657 0.857142866
vt 0.354166657 1
vt 0.333333343 0.142857149
vt 0.354166657 0
vt 0.333333343 0.285714298
vt 0.333333343 0.428571433
vt 0.333333343 0.571428597
vt 0.333333343 0.714285731
vt 0.333333343 0.857142866
vt 0.333333343 1
vt 0.3125 0.142857149
vt 0.333333343 0
vt 0.3125 0.285714298
vt 0.3125 0.428571433
vt 0.3125 0.571428597
vt 0.3125 0.714285731
vt 0.3125 0.857142866
vt 0.3125 1
vt 0.291666657 0.142857149
vt 0.3125 0
vt 0.291666657 0.285714298
vt 0.291666657 0.428571433
vt 0.291666657 0.571428597
vt 0.291666657 0.714285731
vt 0.291666657 0.857142866
vt 0.291666657 1
vt 0.270833343 0.142857149
vt 0.291666657 0
vt 0.270833343 0.285714298
vt 0.270833343 0.428571433
vt 0.270833343 0.571428597
vt 0.270833343 0.714285731
vt 0.270833343 0.857142866
vt 0.270833343 1
vt 0.25 0.142857149
vt 0.270833343 0
vt 0.25 0.285714298
vt 0.25 0.428571433
vt 0.25 0.571428597
vt 0.25 0.714285731
vt 0.25 0.857142866
vt 0.25 1
vt 0.229166672 0.142857149
vt 0.25 0
vt 0.229166672 0.285714298
vt 0.229166672 0.428571433
vt 0.229166672 0.571428597
vt 0.229166672 0.714285731
vt 0.229166672 0.857142866
vt 0.229166672 1
vt 0.208333328 0.142857149
vt 0.229166672 0
vt 0.208333328 0.285714298
vt 0.208333328 0.428571433
vt 0.208333328 0.571428597
vt 0.208333328 0.714285731
vt 0.208333328 0.857142866
vt 0.208333328 1
vt 0.1875 0.142857149
vt 0.208333328 0
vt 0.1875 0.285714298
vt 0.1875 0.428571433
vt 0.1875 0.571428597
vt 0.1875 0.714285731
vt 0.1875 0.857142866
vt 0.1875 1
vt 0.166666672 0.142857149
vt 0.1875 0
vt 0.166666672 0.285714298
vt 0.166666672 0.428571433
vt 0.166666672 0.571428597
vt 0.166666672 0.714285731
vt 0.166666672 0.857142866
vt 0.166666672 1
vt 0.145833328 0.142857149
vt 0.166666672 0
vt 0.145833328 0.285714298
vt 0.145833328 0.428571433
vt 0.145833328 0.571428597
vt 0.145833328 0.714285731
vt 0.145833328 0.857142866
vt 0.145833328 1
vt 0.125 0.142857149
vt 0.145833328 0
vt 0.125 0.285714298
vt 0.125 0.428571433
vt 0.125 0.571428597
vt 0.125 0.714285731
vt 0.125 0.857142866
vt 0.125 1
vt 0.104166664 0.142857149
vt 0.125 0
vt 0.104166664 0.285714298
vt 0.104166664 0.428571433
vt 0.104166664 0.571428597
vt 0.104166664 0.714285731
vt 0.104166664 0.857142866
vt 0.104166664 1
vt 0.0833333358 0.142857149
vt 0.104166664 0
vt 0.0833333358 0.285714298
vt 0.0833333358 0.428571433
vt 0.0833333358 0.571428597
vt 0.0833333358 0.714285731
vt 0.0833333358 0.857142866
vt 0.0833333358 1
vt 0.0625 0.142857149
vt 0.0833333358 0
vt 0.0625 0.285714298
vt 0.0625 0.428571433
vt 0.0625 0.571428597
vt 0.0625 0.714285731
vt 0.0625 0.857142866
vt 0.0625 1
vt 0.0416666679 0.142857149
vt 0.0625 0
vt 0.0416666679 0.285714298
vt 0.0416666679 0.428571433
vt 0.0416666679 0.571428597
vt 0.0416666679 0.714285731
vt 0.0416666679 0.857142866
vt 0.0416666679 1
vt 0.020833334 0.142857149
vt 0.0416666679 0
vt 0.020833334 0.285714298
vt 0.020833334 0.428571433
vt 0 0.142857149
vt 0.020833334 0
vt 0 0.285714298
vt 0 0.428571433
vt 0.020833334 0.571428597
vt 0 0.571428597
vt 0.020833334 0.714285731
vt 0 0.714285731
vt 0.020833334 0.857142866
vt 0 0.857142866
vt 0.020833334 1
vt 0 1
vn -0 1 0
vn -0 1 0
vn -0 1 0
vn -0 1 0
vn -0 1 0
vn -0 1 0
vn -0 1 0
vn -0 1 0
vn -0 1 0
vn -0 1 0
vn -0 1 0
vn -0 1 0
vn -0 1 0
vn -0 1 0
vn -0 1 0
vn -0 1 0
vn -0 1 0
vn -0 1 0
vn -0 1 0
vn -0 1 0
vn -0 1 0
vn -0 1 0
vn -0 1 0
vn -0 1 0
vn -0 1 0
vn -0 1 0
vn -0 1 0
vn -0 1 0
vn -0 1 0
vn -0 1 0
vn -0 1 0
vn -0 1 0
vn -0 1 0
vn -0 1 0
vn -0 1 0
vn -0 1 0
vn -0 1 0
vn -0 1 0
vn -0 1 0
vn -0 1 0
vn -0 1 0
vn -0 1 0
vn -0 1 0
vn -0 1 0
vn -0 1 0
vn -0 1 0
vn -0 1 0
vn -0 1 0
vn -0 1 0
vn -0 1 0
vn -0 1 0
vn -0 1 0
vn -0 1 0
vn -0 1 0
vn -0 1 0
vn -0 1 0
vn -0 1 0
vn -0 1 0
vn -0 1 0
vn -0 1 0
vn -0 1 0
vn -0 1 0
vn -0 1 0
vn -0 1 0
vn -0 1 0
vn -0 1 0
vn -0 1 0
vn -0 1 0
vn -0 1 0
vn -0 1 0
vn -0 1 0
vn -0 1 0
vn -0 1 0
vn -0 1 0
vn -0 1 0
vn -0 1 0
vn -0 1 0
vn -0 1 0
vn -0 1 0
vn -0 1 0
vn -0 1 0
vn -0 1 0
vn -0 1 0
vn -0 1 0
vn -0 1 0
vn -0 1 0
vn -0 1 0
vn -0 1 0
vn -0 1 0
vn -0 1 0
vn -0 1 0
vn -0 1 0
vn -0 1 0
vn -0 1 0
vn -0 1 0
vn -0 1 0
vn -0 1 0
vn -0 1 0
vn -0 1 0
vn -0 1 0
vn -0 1 0
vn -0 1 0
vn -0 1 0
vn -0 1 0
vn -0 1 0
vn -0 1 0
vn -0 1 0
vn -0 1 0
vn -0 1 0
vn -0 1 0
vn -0 1 0
vn -0 1 0
vn -0 1 0
vn -0 1 0
vn -0 1 0
vn -0 1 0
vn -0 1 0
vn -0 1 0
vn -0 1 0
vn -0 1 0
vn -0 1 0
vn -0 1 0
vn -0 1 0
vn -0 1 0
vn -0 1 0
vn -0 1 0
vn -0 1 0
vn -0 1 0
vn -0 1 0
vn -0 1 0
vn -0 1 0
vn -0 1 0
vn -0 1 0
vn -0 1 0
vn -0 1 0
vn -0 1 0
vn -0 1 0
vn -0 1 0
vn -0 1 0
vn -0 1 0
vn -0 1 0
vn -0 1 0
vn -0 1 0
vn -0 1 0
vn -0 1 0
vn -0 1 0
vn -0 1 0
vn -0 1 0
vn -0 1 0
vn -0 1 0
vn -0 1 0
vn -0 1 0
vn -0 1 0
vn -0 1 0
vn -0 1 0
vn -0 1 0
vn -0 1 0
vn -0 1 0
vn -0 1 0
vn -0 1 0
vn -0 1 0
vn -0 1 0
vn -0 1 0
vn -0 1 0
vn -0 1 0
vn -0 1 0
vn -0 1 0
vn -0 1 0
vn -0 1 0
vn -0 1 0
vn -0 1 0
vn -0 1 0
vn -0 1 0
vn -0 1 0
vn -0 1 0
vn -0 1 0
vn -0 1 0
vn -0 1 0
vn -0 1 0
vn -0 1 0
vn -0 1 0
vn -0 1 0
vn -0 1 0
vn -0 1 0
vn -0 1 0
vn -0 1 0
vn -0 1 0
vn -0 1 0
vn -0 1 0
vn -0 1 0
vn -0 1 0
vn -0 1 0
vn -0 1 0
vn -0 1 0
vn -0 1 0
vn -0 1 0
vn -0 1 0
vn -0 1 0
vn -0 1 0
vn -0 1 0
vn -0 1 0
vn -0 1 0
vn -0 1 0
vn -0 1 0
vn -0 1 0
vn -0 1 0
vn -0 1 0
vn -0 1 0
vn -0 1 0
vn -0 1 0
vn -0 1 0
vn -0 1 0
vn -0 1 0
vn -0 1 0
vn -0 1 0
vn -0 1 0
vn -0 1 0
vn -0 1 0
vn -0 1 0
vn -0 1 0
vn -0 1 0
vn -0 1 0
vn -0 1 0
vn -0 1 0
vn -0 1 0
vn -0 1 0
vn -0 1 0
vn -0 1 0
vn -0 1 0
vn -0 1 0
vn -0 1 0
vn -0 1 0
vn -0 1 0
vn -0 1 0
vn -0 1 0
vn -0 1 0
vn -0 1 0
vn -0 1 0
vn -0 1 0
vn -0 1 0
vn -0 1 0
vn -0 1 0
vn -0 1 0
vn -0 1 0
vn -0 1 0
vn -0 1 0
vn -0 1 0
vn -0 1 0
vn -0 1 0
vn -0 1 0
vn -0 1 0
vn -0 1 0
vn -0 1 0
vn -0 1 0
vn -0 1 0
vn -0 1 0
vn -0 1 0
vn -0 1 0
vn -0 1 0
vn -0 1 0
vn -0 1 0
vn -0 1 0
vn -0 1 0
vn -0 1 0
vn -0 1 0
vn -0 1 0
vn -0 1 0
vn -0 1 0
vn -0 1 0
vn -0 1 0
vn -0 1 0
vn -0 1 0
vn -0 1 0
vn -0 1 0
vn -0 1 0
vn -0 1 0
vn -0 1 0
vn -0 1 0
vn -0 1 0
vn -0 1 0
vn -0 1 0
vn -0 1 0
vn -0 1 0
vn -0 1 0
vn -0 1 0
vn -0 1 0
vn -0 1 0
vn -0 1 0
vn -0 1 0
vn -0 1 0
vn -0 1 0
vn -0 1 0
vn -0 1 0
vn -0 1 0
vn -0 1 0
vn -0 1 0
vn -0 1 0
vn -0 1 0
vn -0 1 0
vn -0 1 0
vn -0 1 0
vn -0 1 0
vn -0 1 0
vn -0 1 0
vn -0 1 0
vn -0 1 0
vn -0 1 0
vn -0 1 0
vn -0 1 0
vn -0 1 0
vn -0 1 0
vn -0 1 0
vn -0 1 0
vn -0 1 0
vn -0 1 0
vn -0 1 0
vn -0 1 0
vn -0 1 0
vn -0 1 0
vn -0 1 0
vn -0 1 0
vn -0 1 0
vn -0 1 0
vn -0 1 0
vn -0 1 0
vn -0 1 0
vn -0 1 0
vn -0 1 0
vn -0 1 0
vn -0 1 0
vn -0 1 0
vn -0 1 0
vn -0 1 0
vn -0 1 0
vn -0 1 0
vn -0 1 0
vn -0 1 0
vn -0 1 0
vn -0 1 0
vn -0 1 0
vn -0 1 0
vn -0 1 0
vn -0 1 0
vn -0 1 0
vn -0 1 0
vn -0 1 0
vn -0 1 0
vn -0 1 0
vn -0 1 0
vn -0 1 0
vn -0 1 0
vn -0 1 0
vn -0 1 0
vn -0 1 0
vn -0 1 0
vn -0 1 0
vn -0 1 0
vn -0 1 0
vn -0 1 0
vn -0 1 0
vn -0 1 0
vn -0 1 0
vn -0 1 0
vn -0 1 0
vn -0 1 0
vn -0 1 0
vn -0 1 0
vn -0 1 0
vn -0 1 0
vn -0 1 0
vn -0 1 0
vn -0 1 0
vn -0 1 0
vn -0 1 0
vn -0 1 0
vn -0 1 0
vn -0 1 0
vn -0 1 0
vn -0 1 0
vn -0 1 0
vn -0 1 0
vn -0 1 0
vn -0 1 0
vn -0 1 0
vn -0 1 0
vn -0 1 0
vn -0 1 0
vn -0 1 0
vn -0 1 0
vn -0 1 0
vn -0 1 0
g soften_normals1_0
f 3/3/3 2/2/2 1/1/1
f 3/3/3 1/1/1 4/4/4
f 5/5/5 3/3/3 4/4/4
f 5/5/5 4/4/4 6/6/6
f 7/7/7 3/3/3 5/5/5
f 7/7/7 8/8/8 3/3/3
f 9/9/9 5/5/5 6/6/6
f 9/9/9 6/6/6 10/10/10
f 11/11/11 7/7/7 5/5/5
f 11/11/11 5/5/5 9/9/9
f 12/12/12 9/9/9 10/10/10
f 12/12/12 10/10/10 13/13/13
f 14/14/14 7/7/7 11/11/11
f 14/14/14 15/15/15 7/7/7
f 16/16/16 11/11/11 9/9/9
f 16/16/16 9/9/9 12/12/12
f 17/17/17 12/12/12 13/13/13
f 17/17/17 13/13/13 18/18/18
f 19/19/19 14/14/14 11/11/11
f 19/19/19 11/11/11 16/16/16
f 20/20/20 16/16/16 12/12/12
f 20/20/20 12/12/12 17/17/17
f 21/21/21 17/17/17 18/18/18
f 21/21/21 18/18/18 22/22/22
f 23/23/23 21/21/21 22/22/22
f 24/24/24 17/17/17 21/21/21
f 24/24/24 20/20/20 17/17/17
f 25/25/25 21/21/21 23/23/23
f 25/25/25 24/24/24 21/21/21
f 26/26/26 25/25/25 23/23/23
f 27/27/27 16/16/16 20/20/20
f 27/27/27 19/19/19 16/16/16
f 28/28/28 14/14/14 19/19/19
f 28/28/28 29/29/29 14/14/14
f 30/30/30 20/20/20 24/24/24
f 30/30/30 27/27/27 20/20/20
f 31/31/31 24/24/24 25/25/25
f 31/31/31 30/30/30 24/24/24
f 32/32/32 25/25/25 26/26/26
f 32/32/32 31/31/31 25/25/25
f 33/33/33 32/32/32 26/26/26
f 34/34/34 28/28/28 19/19/19
f 34/34/34 19/19/19 27/27/27
f 35/35/35 27/27/27 30/30/30
f 35/35/35 34/34/34 27/27/27
f 36/36/36 30/30/30 31/31/31
f 36/36/36 35/35/35 30/30/30
f 37/37/37 31/31/31 32/32/32
f 37/37/37 36/36/36 31/31/31
f 38/38/38 32/32/32 33/33/33
f 38/38/38 37/37/37 32/32/32
f 39/39/39 38/38/38 33/33/33
f 40/40/40 28/28/28 34/34/34
f 40/40/40 41/41/41 28/28/28
f 42/42/42 34/34/34 35/35/35
f 42/42/42 40/40/40 34/34/34
f 43/43/43 35/35/35 36/36/36
f 43/43/43 42/42/42 35/35/35
f 44/44/44 36/36/36 37/37/37
f 44/44/44 43/43/43 36/36/36
f 45/45/45 37/37/37 38/38/38
f 45/45/45 44/44/44 37/37/37
f 46/46/46 38/38/38 39/39/39
f 46/46/46 45/45/45 38/38/38
f 47/47/47 46/46/46 39/39/39
f 48/48/48 40/40/40 42/42/42
f 48/48/48 49/49/49 40/40/40
f 50/50/50 42/42/42 43/43/43
f 50/50/50 48/48/48 42/42/42
f 51/51/51 43/43/43 44/44/44
f 51/51/51 50/50/50 43/43/43
f 52/52/52 44/44/44 45/45/45
f 52/52/52 51/51/51 44/44/44
f 53/53/53 45/45/45 46/46/46
f 53/53/53 52/52/52 45/45/45
f 54/54/54 46/46/46 47/47/47
f 54/54/54 53/53/53 46/46/46
f 55/55/55 54/54/54 47/47/47
f 56/56/56 48/48/48 50/50/50
f 56/56/56 57/57/57 48/48/48
f 58/58/58 50/50/50 51/51/51
f 58/58/58 56/56/56 50/50/50
f 59/59/59 51/51/51 52/52/52
f 59/59/59 58/58/58 51/51/51
f 60/60/60 52/52/52 53/53/53
f 60/60/60 59/59/59 52/52/52
f 61/61/61 53/53/53 54/54/54
f 61/61/61 60/60/60 53/53/53
f 62/62/62 54/54/54 55/55/55
f 62/62/62 61/61/61 54/54/54
f 63/63/63 62/62/62 55/55/55
f 64/64/64 56/56/56 58/58/58
f 64/64/64 65/65/65 56/56/56
f 66/66/66 58/58/58 59/59/59
f 66/66/66 64/64/64 58/58/58
f 67/67/67 59/59/59 60/60/60
f 67/67/67 66/66/66 59/59/59
f 68/68/68 60/60/60 61/61/61
f 68/68/68 67/67/67 60/60/60
f 69/69/69 61/61/61 62/62/62
f 69/69/69 68/68/68 61/61/61
f 70/70/70 62/62/62 63/63/63
f 70/70/70 69/69/69 62/62/62
f 71/71/71 70/70/70 63/63/63
f 72/72/72 64/64/64 66/66/66
f 72/72/72 73/73/73 64/64/64
f 74/74/74 66/66/66 67/67/67
f 74/74/74 72/72/72 66/66/66
f 75/75/75 67/67/67 68/68/68
f 75/75/75 74/74/74 67/67/67
f 76/76/76 68/68/68 69/69/69
f 76/76/76 75/75/75 68/68/68
f 77/77/77 69/69/69 70/70/70
f 77/77/77 76/76/76 69/69/69
f 78/78/78 70/70/70 71/71/71
f 78/78/78 77/77/77 70/70/70
f 79/79/79 78/78/78 71/71/71
f 80/80/80 72/72/72 74/74/74
f 80/80/80 81/81/81 72/72/72
f 82/82/82 74/74/74 75/75/75
f 82/82/82 80/80/80 74/74/74
f 83/83/83 75/75/75 76/76/76
f 83/83/83 82/82/82 75/75/75
f 84/84/84 76/76/76 77/77/77
f 84/84/84 83/83/83 76/76/76
f 85/85/85 77/77/77 78/78/78
f 85/85/85 84/84/84 77/77/77
f 86/86/86 78/78/78 79/79/79
f 86/86/86 85/85/85 78/78/78
f 87/87/87 86/86/86 79/79/79
f 88/88/88 80/80/80 82/82/82
f 88/88/88 89/89/89 80/80/80
f 90/90/90 82/82/82 83/83/83
f 90/90/90 88/88/88 82/82/82
f 91/91/91 83/83/83 84/84/84
f 91/91/91 90/90/90 83/83/83
f 92/92/92 84/84/84 85/85/85
f 92/92/92 91/91/91 84/84/84
f 93/93/93 85/85/85 86/86/86
f 93/93/93 92/92/92 85/85/85
f 94/94/94 86/86/86 87/87/87
f 94/94/94 93/93/93 86/86/86
f 95/95/95 94/94/94 87/87/87
f 96/96/96 88/88/88 90/90/90
f 96/96/96 97/97/97 88/88/88
f 98/98/98 90/90/90 91/91/91
f 98/98/98 96/96/96 90/90/90
f 99/99/99 91/91/91 92/92/92
f 99/99/99 98/98/98 91/91/91
f 100/100/100 92/92/92 93/93/93
f 100/100/100 99/99/99 92/92/92
f 101/101/101 93/93/93 94/94/94
f 101/101/101 100/100/100 93/93/93
f 102/102/102 94/94/94 95/95/95
f 102/102/102 101/101/101 94/94/94
f 103/103/103 102/102/102 95/95/95
f 104/104/104 96/96/96 98/98/98
f 104/104/104 105/105/105 96/96/96
f 106/106/106 98/98/98 99/99/99
f 106/106/106 104/104/104 98/98/98
f 107/107/107 99/99/99 100/100/100
f 107/107/107 106/106/106 99/99/99
f 108/108/108 100/100/100 101/101/101
f 108/108/108 107/107/107 100/100/100
f 109/109/109 101/101/101 102/102/102
f 109/109/109 108/108/108 101/101/101
f 110/110/110 102/102/102 103/103/103
f 110/110/110 109/109/109 102/102/102
f 111/111/111 110/110/110 103/103/103
f 112/112/112 104/104/104 106/106/106
f 112/112/112 113/113/113 104/104/104
f 114/114/114 106/106/106 107/107/107
f 114/114/114 112/112/112 106/106/106
f 115/115/115 107/107/107 108/108/108
f 115/115/115 114/114/114 107/107/107
f 116/116/116 108/108/108 109/109/109
f 116/116/116 115/115/115 108/108/108
f 117/117/117 109/109/109 110/110/110
f 117/117/117 116/116/116 109/109/109
f 118/118/118 110/110/110 111/111/111
f 118/118/118 117/117/117 110/110/110
f 119/119/119 118/118/118 111/111/111
f 120/120/120 112/112/112 114/114/114
f 120/120/120 121/121/121 112/112/112
f 122/122/122 114/114/114 115/115/115
f 122/122/122 120/120/120 114/114/114
f 123/123/123 115/115/115 116/116/116
f 123/123/123 122/122/122 115/115/115
f 124/124/124 116/116/116 117/117/117
f 124/124/124 123/123/123 116/116/116
f 125/125/125 117/117/117 118/118/118
f 125/125/125 124/124/124 117/117/117
f 126/126/126 118/118/118 119/119/119
f 126/126/126 125/125/125 118/118/118
f 127/127/127 126/126/126 119/119/119
f 128/128/128 120/120/120 122/122/122
f 128/128/128 129/129/129 120/120/120
f 130/130/130 122/122/122 123/123/123
f 130/130/130 128/128/128 122/122/122
f 131/131/131 123/123/123 124/124/124
f 131/131/131 130/130/130 123/123/123
f 132/132/132 124/124/124 125/125/125
f 132/132/132 131/131/131 124/124/124
f 133/133/133 125/125/125 126/126/126
f 133/133/133 132/132/132 125/125/125
f 134/134/134 126/126/126 127/127/127
f 134/134/134 133/133/133 126/126/126
f 135/135/135 134/134/134 127/127/127
f 136/136/136 128/128/128 130/130/130
f 136/136/136 137/137/137 128/128/128
f 138/138/138 130/130/130 131/131/131
f 138/138/138 136/136/136 130/130/130
f 139/139/139 131/131/131 132/132/132
f 139/139/139 138/138/138 131/131/131
f 140/140/140 132/132/132 133/133/133
f 140/140/140 139/139/139 132/132/132
f 141/141/141 133/133/133 134/134/134
f 141/141/141 140/140/140 133/133/133
f 142/142/142 134/134/134 135/135/135
f 142/142/142 141/141/141 134/134/134
f 143/143/143 142/142/142 135/135/135
f 144/144/144 136/136/136 138/138/138
f 144/144/144 145/145/145 136/136/136
f 146/146/146 138/138/138 139/139/139
f 146/146/146 144/144/144 138/138/138
f 147/147/147 139/139/139 140/140/140
f 147/147/147 146/146/146 139/139/139
f 148/148/148 140/140/140 141/141/141
f 148/148/148 147/147/147 140/140/140
f 149/149/149 141/141/141 142/142/142
f 149/149/149 148/148/148 141/141/141
f 150/150/150 142/142/142 143/143/143
f 150/150/150 149/149/149 142/142/142
f 151/151/151 150/150/150 143/143/143
f 152/152/152 144/144/144 146/146/146
f 152/152/152 153/153/153 144/144/144
f 154/154/154 146/146/146 147/147/147
f 154/154/154 152/152/152 146/146/146
f 155/155/155 147/147/147 148/148/148
f 155/155/155 154/154/154 147/147/147
f 156/156/156 148/148/148 149/149/149
f 156/156/156 155/155/155 148/148/148
f 157/157/157 149/149/149 150/150/150
f 157/157/157 156/156/156 149/149/149
f 158/158/158 150/150/150 151/151/151
f 158/158/158 157/157/157 150/150/150
f 159/159/159 158/158/158 151/151/151
f 160/160/160 152/152/152 154/154/154
f 160/160/160 161/161/161 152/152/152
f 162/162/162 154/154/154 155/155/155
f 162/162/162 160/160/160 154/154/154
f 163/163/163 155/155/155 156/156/156
f 163/163/163 162/162/162 155/155/155
f 164/164/164 156/156/156 157/157/157
f 164/164/164 163/163/163 156/156/156
f 165/165/165 157/157/157 158/158/158
f 165/165/165 164/164/164 157/157/157
f 166/166/166 158/158/158 159/159/159
f 166/166/166 165/165/165 158/158/158
f 167/167/167 166/166/166 159/159/159
f 168/168/168 160/160/160 162/162/162
f 168/168/168 169/169/169 160/160/160
f 170/170/170 162/162/162 163/163/163
f 170/170/170 168/168/168 162/162/162
f 171/171/171 163/163/163 164/164/164
f 171/171/171 170/170/170 163/163/163
f 172/172/172 164/164/164 165/165/165
f 172/172/172 171/171/171 164/164/164
f 173/173/173 165/165/165 166/166/166
f 173/173/173 172/172/172 165/165/165
f 174/174/174 166/166/166 167/167/167
f 174/174/174 173/173/173 166/166/166
f 175/175/175 174/174/174 167/167/167
f 176/176/176 168/168/168 170/170/170
f 176/176/176 177/177/177 168/168/168
f 178/178/178 170/170/170 171/171/171
f 178/178/178 176/176/176 170/170/170
f 179/179/179 171/171/171 172/172/172
f 179/179/179 178/178/178 171/171/171
f 180/180/180 172/172/172 173/173/173
f 180/180/180 179/179/179 172/172/172
f 181/181/181 173/173/173 174/174/174
f 181/181/181 180/180/180 173/173/173
f 182/182/182 174/174/174 175/175/175
f 182/182/182 181/181/181 174/174/174
f 183/183/183 182/182/182 175/175/175
f 184/184/184 176/176/176 178/178/178
f 184/184/184 185/185/185 176/176/176
f 186/186/186 178/178/178 179/179/179
f 186/186/186 184/184/184 178/178/178
f 187/187/187 179/179/179 180/180/180
f 187/187/187 186/186/186 179/179/179
f 188/188/188 180/180/180 181/181/181
f 188/188/188 187/187/187 180/180/180
f 189/189/189 181/181/181 182/182/182
f 189/189/189 188/188/188 181/181/181
f 190/190/190 182/182/182 183/183/183
f 190/190/190 189/189/189 182/182/182
f 191/191/191 190/190/190 183/183/183
f 192/192/192 184/184/184 186/186/186
f 192/192/192 193/193/193 184/184/184
f 194/194/194 186/186/186 187/187/187
f 194/194/194 192/192/192 186/186/186
f 195/195/195 187/187/187 188/188/188
f 195/195/195 194/194/194 187/187/187
f 196/196/196 188/188/188 189/189/189
f 196/196/196 195/195/195 188/188/188
f 197/197/197 189/189/189 190/190/190
f 197/197/197 196/196/196 189/189/189
f 198/198/198 190/190/190 191/191/191
f 198/198/198 197/197/197 190/190/190
f 199/199/199 198/198/198 191/191/191
f 200/200/200 192/192/192 194/194/194
f 200/200/200 201/201/201 192/192/192
f 202/202/202 194/194/194 195/195/195
f 202/202/202 200/200/200 194/194/194
f 203/203/203 195/195/195 196/196/196
f 203/203/203 202/202/202 195/195/195
f 204/204/204 196/196/196 197/197/197
f 204/204/204 203/203/203 196/196/196
f 205/205/205 197/197/197 198/198/198
f 205/205/205 204/204/204 197/197/197
f 206/206/206 198/198/198 199/199/199
f 206/206/206 205/205/205 198/198/198
f 207/207/207 206/206/206 199/199/199
f 208/208/208 200/200/200 202/202/202
f 208/208/208 209/209/209 200/200/200
f 210/210/210 202/202/202 203/203/203
f 210/210/210 208/208/208 202/202/202
f 211/211/211 203/203/203 204/204/204
f 211/211/211 210/210/210 203/203/203
f 212/212/212 204/204/204 205/205/205
f 212/212/212 211/211/211 204/204/204
f 213/213/213 205/205/205 206/206/206
f 213/213/213 212/212/212 205/205/205
f 214/214/214 206/206/206 207/207/207
f 214/214/214 213/213/213 206/206/206
f 215/215/215 214/214/214 207/207/207
f 216/216/216 208/208/208 210/210/210
f 216/216/216 217/217/217 208/208/208
f 218/218/218 210/210/210 211/211/211
f 218/218/218 216/216/216 210/210/210
f 219/219/219 211/211/211 212/212/212
f 219/219/219 218/218/218 211/211/211
f 220/220/220 212/212/212 213/213/213
f 220/220/220 219/219/219 212/212/212
f 221/221/221 213/213/213 214/214/214
f 221/221/221 220/220/220 213/213/213
f 222/222/222 214/214/214 215/215/215
f 222/222/222 221/221/221 214/214/214
f 223/223/223 222/222/222 215/215/215
f 224/224/224 216/216/216 218/218/218
f 224/224/224 225/225/225 216/216/216
f 226/226/226 218/218/218 219/219/219
f 226/226/226 224/224/224 218/218/218
f 227/227/227 219/219/219 220/220/220
f 227/227/227 226/226/226 219/219/219
f 228/228/228 220/220/220 221/221/221
f 228/228/228 227/227/227 220/220/220
f 229/229/229 221/221/221 222/222/222
f 229/229/229 228/228/228 221/221/221
f 230/230/230 222/222/222 223/223/223
f 230/230/230 229/229/229 222/222/222
f 231/231/231 230/230/230 223/223/223
f 232/232/232 224/224/224 226/226/226
f 232/232/232 233/233/233 224/224/224
f 234/234/234 226/226/226 227/227/227
f 234/234/234 232/232/232 226/226/226
f 235/235/235 227/227/227 228/228/228
f 235/235/235 234/234/234 227/227/227
f 236/236/236 228/228/228 229/229/229
f 236/236/236 235/235/235 228/228/228
f 237/237/237 229/229/229 230/230/230
f 237/237/237 236/236/236 229/229/229
f 238/238/238 230/230/230 231/231/231
f 238/238/238 237/237/237 230/230/230
f 239/239/239 238/238/238 231/231/231
f 240/240/240 232/232/232 234/234/234
f 240/240/240 241/241/241 232/232/232
f 242/242/242 234/234/234 235/235/235
f 242/242/242 240/240/240 234/234/234
f 243/243/243 235/235/235 236/236/236
f 243/243/243 242/242/242 235/235/235
f 244/244/244 236/236/236 237/237/237
f 244/244/244 243/243/243 236/236/236
f 245/245/245 237/237/237 238/238/238
f 245/245/245 244/244/244 237/237/237
f 246/246/246 238/238/238 239/239/239
f 246/246/246 245/245/245 238/238/238
f 247/247/247 246/246/246 239/239/239
f 248/248/248 240/240/240 242/242/242
f 248/248/248 249/249/249 240/240/240
f 250/250/250 242/242/242 243/243/243
f 250/250/250 248/248/248 242/242/242
f 251/251/251 243/243/243 244/244/244
f 251/251/251 250/250/250 243/243/243
f 252/252/252 244/244/244 245/245/245
f 252/252/252 251/251/251 244/244/244
f 253/253/253 245/245/245 246/246/246
f 253/253/253 252/252/252 245/245/245
f 254/254/254 246/246/246 247/247/247
f 254/254/254 253/253/253 246/246/246
f 255/255/255 254/254/254 247/247/247
f 256/256/256 248/248/248 250/250/250
f 256/256/256 257/257/257 248/248/248
f 258/258/258 250/250/250 251/251/251
f 258/258/258 256/256/256 250/250/250
f 259/259/259 251/251/251 252/252/252
f 259/259/259 258/258/258 251/251/251
f 260/260/260 252/252/252 253/253/253
f 260/260/260 259/259/259 252/252/252
f 261/261/261 253/253/253 254/254/254
f 261/261/261 260/260/260 253/253/253
f 262/262/262 254/254/254 255/255/255
f 262/262/262 261/261/261 254/254/254
f 263/263/263 262/262/262 255/255/255
f 264/264/264 256/256/256 258/258/258
f 264/264/264 265/265/265 256/256/256
f 266/266/266 258/258/258 259/259/259
f 266/266/266 264/264/264 258/258/258
f 267/267/267 259/259/259 260/260/260
f 267/267/267 266/266/266 259/259/259
f 268/268/268 260/260/260 261/261/261
f 268/268/268 267/267/267 260/260/260
f 269/269/269 261/261/261 262/262/262
f 269/269/269 268/268/268 261/261/261
f 270/270/270 262/262/262 263/263/263
f 270/270/270 269/269/269 262/262/262
f 271/271/271 270/270/270 263/263/263
f 272/272/272 264/264/264 266/266/266
f 272/272/272 273/273/273 264/264/264
f 274/274/274 266/266/266 267/267/267
f 274/274/274 272/272/272 266/266/266
f 275/275/275 267/267/267 268/268/268
f 275/275/275 274/274/274 267/267/267
f 276/276/276 268/268/268 269/269/269
f 276/276/276 275/275/275 268/268/268
f 277/277/277 269/269/269 270/270/270
f 277/277/277 276/276/276 269/269/269
f 278/278/278 270/270/270 271/271/271
f 278/278/278 277/277/277 270/270/270
f 279/279/279 278/278/278 271/271/271
f 280/280/280 272/272/272 274/274/274
f 280/280/280 281/281/281 272/272/272
f 282/282/282 274/274/274 275/275/275
f 282/282/282 280/280/280 274/274/274
f 283/283/283 275/275/275 276/276/276
f 283/283/283 282/282/282 275/275/275
f 284/284/284 276/276/276 277/277/277
f 284/284/284 283/283/283 276/276/276
f 285/285/285 277/277/277 278/278/278
f 285/285/285 284/284/284 277/277/277
f 286/286/286 278/278/278 279/279/279
f 286/286/286 285/285/285 278/278/278
f 287/287/287 286/286/286 279/279/279
f 288/288/288 280/280/280 282/282/282
f 288/288/288 289/289/289 280/280/280
f 290/290/290 282/282/282 283/283/283
f 290/290/290 288/288/288 282/282/282
f 291/291/291 283/283/283 284/284/284
f 291/291/291 290/290/290 283/283/283
f 292/292/292 284/284/284 285/285/285
f 292/292/292 291/291/291 284/284/284
f 293/293/293 285/285/285 286/286/286
f 293/293/293 292/292/292 285/285/285
f 294/294/294 286/286/286 287/287/287
f 294/294/294 293/293/293 286/286/286
f 295/295/295 294/294/294 287/287/287
f 296/296/296 288/288/288 290/290/290
f 296/296/296 297/297/297 288/288/288
f 298/298/298 290/290/290 291/291/291
f 298/298/298 296/296/296 290/290/290
f 299/299/299 291/291/291 292/292/292
f 299/299/299 298/298/298 291/291/291
f 300/300/300 292/292/292 293/293/293
f 300/300/300 299/299/299 292/292/292
f 301/301/301 293/293/293 294/294/294
f 301/301/301 300/300/300 293/293/293
f 302/302/302 294/294/294 295/295/295
f 302/302/302 301/301/301 294/294/294
f 303/303/303 302/302/302 295/295/295
f 304/304/304 296/296/296 298/298/298
f 304/304/304 305/305/305 296/296/296
f 306/306/306 298/298/298 299/299/299
f 306/306/306 304/304/304 298/298/298
f 307/307/307 299/299/299 300/300/300
f 307/307/307 306/306/306 299/299/299
f 308/308/308 300/300/300 301/301/301
f 308/308/308 307/307/307 300/300/300
f 309/309/309 301/301/301 302/302/302
f 309/309/309 308/308/308 301/301/301
f 310/310/310 302/302/302 303/303/303
f 310/310/310 309/309/309 302/302/302
f 311/311/311 310/310/310 303/303/303
f 312/312/312 304/304/304 306/306/306
f 312/312/312 313/313/313 304/304/304
f 314/314/314 306/306/306 307/307/307
f 314/314/314 312/312/312 306/306/306
f 315/315/315 307/307/307 308/308/308
f 315/315/315 314/314/314 307/307/307
f 316/316/316 308/308/308 309/309/309
f 316/316/316 315/315/315 308/308/308
f 317/317/317 309/309/309 310/310/310
f 317/317/317 316/316/316 309/309/309
f 318/318/318 310/310/310 311/311/311
f 318/318/318 317/317/317 310/310/310
f 319/319/319 318/318/318 311/311/311
f 320/320/320 312/312/312 314/314/314
f 320/320/320 321/321/321 312/312/312
f 322/322/322 314/314/314 315/315/315
f 322/322/322 320/320/320 314/314/314
f 323/323/323 315/315/315 316/316/316
f 323/323/323 322/322/322 315/315/315
f 324/324/324 316/316/316 317/317/317
f 324/324/324 323/323/323 316/316/316
f 325/325/325 317/317/317 318/318/318
f 325/325/325 324/324/324 317/317/317
f 326/326/326 318/318/318 319/319/319
f 326/326/326 325/325/325 318/318/318
f 327/327/327 326/326/326 319/319/319
f 328/328/328 320/320/320 322/322/322
f 328/328/328 329/329/329 320/320/320
f 330/330/330 322/322/322 323/323/323
f 330/330/330 328/328/328 322/322/322
f 331/331/331 323/323/323 324/324/324
f 331/331/331 330/330/330 323/323/323
f 332/332/332 324/324/324 325/325/325
f 332/332/332 331/331/331 324/324/324
f 333/333/333 325/325/325 326/326/326
f 333/333/333 332/332/332 325/325/325
f 334/334/334 326/326/326 327/327/327
f 334/334/334 333/333/333 326/326/326
f 335/335/335 334/334/334 327/327/327
f 336/336/336 328/328/328 330/330/330
f 336/336/336 337/337/337 328/328/328
f 338/338/338 330/330/330 331/331/331
f 338/338/338 336/336/336 330/330/330
f 339/339/339 331/331/331 332/332/332
f 339/339/339 338/338/338 331/331/331
f 340/340/340 332/332/332 333/333/333
f 340/340/340 339/339/339 332/332/332
f 341/341/341 333/333/333 334/334/334
f 341/341/341 340/340/340 333/333/333
f 342/342/342 334/334/334 335/335/335
f 342/342/342 341/341/341 334/334/334
f 343/343/343 342/342/342 335/335/335
f 344/344/344 336/336/336 338/338/338
f 344/344/344 345/345/345 336/336/336
f 346/346/346 338/338/338 339/339/339
f 346/346/346 344/344/344 338/338/338
f 347/347/347 339/339/339 340/340/340
f 347/347/347 346/346/346 339/339/339
f 348/348/348 340/340/340 341/341/341
f 348/348/348 347/347/347 340/340/340
f 349/349/349 341/341/341 342/342/342
f 349/349/349 348/348/348 341/341/341
f 350/350/350 342/342/342 343/343/343
f 350/350/350 349/349/349 342/342/342
f 351/351/351 350/350/350 343/343/343
f 352/352/352 344/344/344 346/346/346
f 352/352/352 353/353/353 344/344/344
f 354/354/354 346/346/346 347/347/347
f 354/354/354 352/352/352 346/346/346
f 355/355/355 347/347/347 348/348/348
f 355/355/355 354/354/354 347/347/347
f 356/356/356 348/348/348 349/349/349
f 356/356/356 355/355/355 348/348/348
f 357/357/357 349/349/349 350/350/350
f 357/357/357 356/356/356 349/349/349
f 358/358/358 350/350/350 351/351/351
f 358/358/358 357/357/357 350/350/350
f 359/359/359 358/358/358 351/351/351
f 360/360/360 352/352/352 354/354/354
f 360/360/360 361/361/361 352/352/352
f 362/362/362 354/354/354 355/355/355
f 362/362/362 360/360/360 354/354/354
f 363/363/363 355/355/355 356/356/356
f 363/363/363 362/362/362 355/355/355
f 364/364/364 356/356/356 357/357/357
f 364/364/364 363/363/363 356/356/356
f 365/365/365 357/357/357 358/358/358
f 365/365/365 364/364/364 357/357/357
f 366/366/366 358/358/358 359/359/359
f 366/366/366 365/365/365 358/358/358
f 367/367/367 366/366/366 359/359/359
f 368/368/368 360/360/360 362/362/362
f 368/368/368 369/369/369 360/360/360
f 370/370/370 362/362/362 363/363/363
f 370/370/370 368/368/368 362/362/362
f 371/371/371 363/363/363 364/364/364
f 371/371/371 370/370/370 363/363/363
f 372/372/372 364/364/364 365/365/365
f 372/372/372 371/371/371 364/364/364
f 373/373/373 365/365/365 366/366/366
f 373/373/373 372/372/372 365/365/365
f 374/374/374 366/366/366 367/367/367
f 374/374/374 373/373/373 366/366/366
f 375/375/375 374/374/374 367/367/367
f 376/376/376 368/368/368 370/370/370
f 376/376/376 377/377/377 368/368/368
f 378/378/378 370/370/370 371/371/371
f 378/378/378 376/376/376 370/370/370
f 379/379/379 371/371/371 372/372/372
f 379/379/379 378/378/378 371/371/371
f 380/380/380 376/376/376 378/378/378
f 380/380/380 381/381/381 376/376/376
f 382/382/382 380/380/380 378/378/378
f 382/382/382 378/378/378 379/379/379
f 383/383/383 382/382/382 379/379/379
f 384/384/384 379/379/379 372/372/372
f 383/383/383 379/379/379 384/384/384
f 384/384/384 372/372/372 373/373/373
f 385/385/385 383/383/383 384/384/384
f 386/386/386 384/384/384 373/373/373
f 385/385/385 384/384/384 386/386/386
f 386/386/386 373/373/373 374/374/374
f 387/387/387 385/385/385 386/386/386
f 388/388/388 386/386/386 374/374/374
f 387/387/387 386/386/386 388/388/388
f 388/388/388 374/374/374 375/375/375
f 389/389/389 387/387/387 388/388/388
f 390/390/390 388/388/388 375/375/375
f 389/389/389 388/388/388 390/390/390
f 391/391/391 389/389/389 390/390/390
