g Skeleton Prefab Mesh "HD_ZHG_003"
v -1.01197934 3.05407333 0
v -1.08815968 2.6633389 0
v -1.16656101 2.26182532 0
v -1.22126389 1.92785299 0
v -1.23092222 1.53106689 0
v -1.19492221 1.52519488 0
v -1.16663671 1.52057767 0
v -1.01796818 1.85563719 0
v -0.866993904 2.21488595 0
v -0.716057122 2.44013047 0
v -0.647860944 2.23426175 0
v -0.567044973 2.27358127 0
v -0.420621306 2.34314656 0
v -0.256619245 2.43056512 0
v -0.100635506 2.4628973 0
v 0.0492508523 2.49282026 0
v 0.0632664934 2.72769809 0
v -0.00278874277 2.93301988 0
v -0.131067112 2.98186445 0
v -0.272724658 3.03580785 0
v -0.415303677 3.17015123 0
v -0.520417094 3.26889229 0
v -0.47543788 3.64982367 0
v -0.526503503 3.65189791 0
v -0.548498631 3.65300488 0
v -0.570602477 3.65430546 0
v -0.662377596 3.05107999 0
v -0.664530396 2.6522336 0
v -0.81125778 3.05318165 0
v -0.889918089 2.65879941 0
v -0.988946438 2.23315287 0
v -1.10084939 1.88506484 0
v 0.648038566 3.18368745 0
v 0.495168298 3.01227188 0
v 0.234202862 2.88021874 0
v 0.316316843 2.52872705 0
v 0.438579351 2.51157379 0
v 0.572951853 2.28602123 0
v 0.644939959 2.15537429 0
v 0.683479071 2.19898605 0
v 0.69063437 2.27422929 0
v 0.697226465 2.34867144 0
v 0.732146442 2.23536539 0
v 0.824000061 1.97511101 0
v 0.961220682 1.5780431 0
v 0.982718885 1.58117259 0
v 1.00366795 1.58424234 0
v 1.03828013 1.91290355 0
v 1.02280152 2.17252088 0
v 1.00969005 2.39181638 0
v 0.979287446 2.72781277 0
v 0.95379889 3.0111022 0
v 0.900059104 3.18723869 0
v 0.77128315 3.60892153 0
v 0.751992941 3.60793996 0
v 0.735103726 3.60723639 0
v 0.714086294 3.60690308 0
v 0.684327126 3.60655618 0
v 0.723490536 2.92368102 0
v 0.674424529 2.55964208 0
v 0.831479549 2.96470475 0
v 0.848541021 2.47323895 0
v 0.920758009 1.93879735 0
v 0.633963048 2.9559443 0
v 0.654062688 3.18220401 0
v 0.727268219 3.16353083 0
v 0.806564927 3.1662991 0
v 0.537995398 2.75556612 0
v 0.698165059 2.73596191 0
v 0.839559853 2.72085953 0
v 0.883411527 2.20067263 0
v 0.653772533 2.27643871 0
v -0.515178561 3.43473506 0
v -0.498694509 3.39243245 0
v -0.47779116 3.3390429 0
v -0.456123441 3.27651739 0
v -0.439274192 3.22382545 0
v -0.416261226 3.14972043 0
v -0.370621324 3.08666825 0
v -0.297200203 2.98280573 0
v -0.212762445 2.86052442 0
v 0.195610538 2.86057639 0
v 0.517683923 2.86059976 0
v 0.541079164 2.90796661 0
v 0.564668834 2.9550159 0
v 0.596118808 3.01606393 0
v 0.641885579 3.10406756 0
v 0.671720564 3.18333864 0
v 0.703656018 3.27827001 0
v 0.738590896 3.37809968 0
v 0.746481836 3.45491266 0
v 0.470116556 3.33428597 0
v 0.090053238 3.45905638 0
v -0.19315283 3.36281562 0
v -0.464797556 3.48851466 0
v -0.520432711 3.48237514 0
v 0.156419545 3.08259344 0
v 0.135522306 3.20117307 0
v 0.114249371 3.32181811 0
v 0.104194917 3.37892246 0
v 0.125874415 3.25572205 0
v 0.147360116 3.13384342 0
v 0.176153392 2.97082472 0
v 0.0559527911 3.7325871 0
v -0.0433998108 3.67392039 0
v -0.130348682 3.59314084 0
v -0.177279651 3.49443913 0
v -0.215877742 3.37851644 0
v -0.215894699 3.33020115 0
v -0.188255712 3.26187897 0
v -0.215865359 3.19630265 0
v -0.215849057 3.15637183 0
v -0.182033911 3.08459997 0
v -0.0984903127 3.03148627 0
v 0.00406925846 3.00553417 0
v 0.0558410548 3.01974368 0
v 0.0696350411 3.05284214 0
v 0.12209589 3.04941249 0
v 0.277383715 3.00561595 0
v 0.365007758 3.04324818 0
v 0.385734677 3.00561786 0
v 0.407132596 3.00563812 0
v 0.50167346 3.09986448 0
v 0.559137285 3.1812973 0
v 0.55912143 3.24236774 0
v 0.522306681 3.31000495 0
v 0.532668412 3.39280128 0
v 0.516064525 3.52807426 0
v 0.467056334 3.62811589 0
v 0.389758497 3.68955088 0
v 0.25994879 3.7455914 0
v 0.146383211 3.74558282 0
v 0.178674102 3.38360286 0
v 0.348776311 3.53037429 0
v 0.255299002 3.57150459 0
v 0.168356881 3.58363628 0
v 0.0823531523 3.54434848 0
v 0.0300090611 3.46489525 0
v 0.00198098947 3.38729954 0
v 0.0057522906 3.293823 0
v 0.03754564 3.21902895 0
v 0.10765893 3.20316339 0
v 0.188979253 3.18915534 0
v 0.289949358 3.19758844 0
v 0.358180165 3.27423501 0
v 0.371264517 3.35746098 0
v 0.371249855 3.45188618 0
v -0.0699143708 2.07372785 0
v -0.119913317 2.01478648 0
v -0.191759035 1.93017995 0
v -0.255161405 1.85594177 0
v -0.322046727 1.77773499 0
v -0.379770398 1.69283879 0
v -0.436493009 1.60955405 0
v -0.490380675 1.52870679 0
v -0.546901762 1.4440701 0
v -0.588008821 1.37823164 0
v -0.630526543 1.30999708 0
v -0.679944932 1.23314559 0
v -0.729863286 1.15548038 0
v -0.785861313 1.026932 0
v -0.791636586 0.945206463 0
v -0.430003822 0.74144572 0
v -0.215439603 0.668615699 0
v -0.0523376055 0.551099241 0
v 0.016774267 0.600279212 0
v 0.0937953517 0.654926658 0
v 0.19029066 0.724012077 0
v 0.286504418 0.796306968 0
v 0.392759353 0.851761997 0
v 0.51033783 0.727647066 0
v 0.645533562 0.623033822 0
v 0.735964656 0.554145575 0
v 0.787690043 0.515801847 0
v 0.865001798 0.458539367 0
v 0.936412513 0.405590028 0
v 0.980488896 0.407884628 0
v 0.977641761 0.461515844 0
v 0.975297034 0.506404579 0
v 0.965282857 0.572306037 0
v 0.955481291 0.636583984 0
v 0.943522036 0.723370254 0
v 0.931578696 0.809179366 0
v 0.918443084 0.911633849 0
v 0.906312943 1.00669158 0
v 0.881241679 1.10798264 0
v 0.85641861 1.20879602 0
v 0.832760751 1.30797255 0
v 0.812635362 1.39249241 0
v 0.791424394 1.4837153 0
v 0.770597935 1.57295716 0
v 0.751220584 1.65766871 0
v 0.72534126 1.77071011 0
v 0.699683368 1.88347113 0
v 0.674639404 1.99419212 0
v 0.518669248 2.09093237 0
v 0.422509313 2.15057659 0
v 0.338507235 2.15057254 0
v 0.189994097 2.15057826 0
v 0.141638875 2.03504586 0
v 0.303840995 2.00895238 0
v 0.507239699 1.98587906 0
v 0.486089706 1.79157019 0
v 0.279256493 1.90835726 0
v 0.0600828603 1.83598328 0
v 0.462743521 1.57399833 0
v 0.229739845 1.7059803 0
v -0.0234474968 1.63840532 0
v 0.44175455 1.37229323 0
v 0.183111519 1.51538575 0
v -0.0965364426 1.46767128 0
v 0.421625137 1.16822672 0
v 0.133910179 1.31427181 0
v -0.165788442 1.30777431 0
v 0.408895254 1.03453994 0
v 0.0876653939 1.12500834 0
v -0.248405963 1.12369609 0
v 0.0402196422 0.930724621 0
v -0.313318223 0.981203854 0
v -0.00182168931 0.758307219 0
v -0.40121755 0.798305213 0
v -0.0186004508 0.689408302 0
v 0.49754557 1.89677274 0
v 0.29052645 1.95455766 0
v 0.108793132 1.95481193 0
v 0.474862456 1.68700063 0
v 0.253044695 1.80124032 0
v 0.0220153555 1.7457999 0
v -0.0529793426 1.56937575 0
v 0.201964796 1.59259808 0
v 0.45235315 1.47443473 0
v 0.433026463 1.28448617 0
v 0.157141447 1.40923738 0
v -0.135925934 1.3773998 0
v 0.415427357 1.10303569 0
v 0.108412966 1.20981276 0
v -0.208286926 1.21346736 0
v -0.282075286 1.05074966 0
v 0.0632900968 1.02504516 0
v 0.401371747 0.946048141 0
v 0.0193756036 0.845120549 0
v -0.356112301 0.889858067 0
v -0.035081692 0.621909738 0
v -0.140700012 1.55054998 0
v -0.140700012 2.06555009 0
v 0.639299989 1.55054998 0
v 0.639299929 2.06555009 0
v 0.167424455 0.0286819842 0
v 0.203114763 0.340954244 0
v 0.703921974 -0.0327128507 0
v 0.739612281 0.279559404 0
v 0.158048168 0.209791377 0
v 0.245616987 1.00320947 0
v 0.481080115 0.174086541 0
v 0.568648934 0.967504621 0
v 0.219248623 0.865483046 0
v 0.219270706 1.83551979 0
v 0.644248664 0.865474939 0
v 0.644270718 1.83551157 0
v -0.530692935 -0.0894948915 0
v -0.530708611 0.320496559 0
v -0.210691661 -0.0894796699 0
v -0.210707352 0.320511788 0
v -0.425674051 0.155540735 0
v -0.425560981 1.06552172 0
v -0.00567232678 0.155492499 0
v -0.00555929914 1.06547356 0
v -0.280591249 0.920474172 0
v -0.280664444 2.11557579 0
v 0.369414628 0.920550168 0
v 0.369341433 2.11565185 0
v 0.324252248 2.23061633 0
v 0.324252337 2.9956162 0
v 0.814252257 2.23061609 0
v 0.814252317 2.9956162 0
v 1.10457098 2.67116833 0
v 0.907796741 2.57612228 0
v 0.6692819 2.37252617 0
v 0.669273436 2.25149417 0
v 0.84537375 2.18542075 0
v 0.902491093 2.16705084 0
v 0.973245203 2.14421535 0
v 1.02515328 2.12740397 0
v 1.068133 2.11322641 0
v 1.15612757 2.0921514 0
v 1.23109019 2.07314563 0
v 1.28001916 2.06002617 0
v 1.31768215 2.049505 0
v 1.36329257 2.03587413 0
v 1.40286481 2.022825 0
v 1.48998773 2.01497006 0
v 1.49395823 2.05924201 0
v 1.45491624 2.08328223 0
v 1.42899835 2.09947729 0
v 1.47065568 2.13166451 0
v 1.4709419 2.16257238 0
v 1.47098148 2.208076 0
v 1.45605183 2.24889398 0
v 1.43902314 2.29380822 0
v 1.4523499 2.33028388 0
v 1.4712261 2.381464 0
v 1.46440852 2.42706895 0
v 1.45774674 2.47011328 0
v 1.44517219 2.50301576 0
v 1.43088531 2.53989148 0
v 1.41675651 2.57508564 0
v 1.50421906 2.6667068 0
v 1.43145514 2.7457211 0
v 1.30479455 2.74571157 0
v 0.969052196 2.38125348 0
v 1.25795782 2.50630784 0
v 0.751736879 2.22337866 0
v 0.790252328 2.20774627 0
v -0.0816801712 3.09505153 0
v -0.328535199 2.96055579 0
v -0.235638082 2.70550728 0
v -0.203707457 2.61784196 0
v -0.177930072 2.5470531 0
v -0.105586782 2.40547848 0
v -0.0353901498 2.26814222 0
v -0.0777662098 2.1688776 0
v -0.129708394 2.04734635 0
v -0.192434192 1.97740901 0
v -0.258538932 1.90404856 0
v -0.330649167 1.82434344 0
v -0.512070835 1.62647116 0
v -0.614434659 1.47580695 0
v -0.723994255 1.31854534 0
v -0.837272286 1.16198945 0
v -0.876056731 1.10964823 0
v -0.884446621 0.977402449 0
v -0.889994502 0.909437716 0
v -0.862984061 0.800554931 0
v -0.823532224 0.641265869 0
v -0.725656927 0.478295028 0
v -0.621617377 0.304992884 0
v -0.556370199 0.299582481 0
v -0.560871124 0.457052529 0
v -0.561501265 0.598312497 0
v -0.533478916 0.73487246 0
v -0.488729447 0.878648996 0
v -0.42339167 1.05880761 0
v -0.357240647 1.23702359 0
v -0.278177649 1.40040219 0
v -0.196604922 1.56318724 0
v -0.117449 1.69980001 0
v -0.0532029681 1.7791369 0
v 0.00163910945 1.86426473 0
v 0.0772143155 1.85286689 0
v 0.0914428085 1.8196162 0
v 0.107978329 1.78103781 0
v 0.12056458 1.75168705 0
v 0.19387053 1.68780565 0
v 0.235862374 1.73338711 0
v 0.256234705 1.75729883 0
v 0.279588073 1.78476954 0
v 0.307880789 1.81796372 0
v 0.439432055 1.79812622 0
v 0.469418049 1.76077712 0
v 0.510904372 1.70921767 0
v 0.532480478 1.75203061 0
v 0.547461808 1.78178596 0
v 0.643309295 1.76728106 0
v 0.645021379 1.66842115 0
v 0.680069089 1.57278943 0
v 0.716680467 1.39366078 0
v 0.758635461 1.19570124 0
v 0.803111374 1.02699244 0
v 0.841948748 0.820210636 0
v 0.873808682 0.647897601 0
v 0.884707153 0.575587094 0
v 0.905845821 0.48858583 0
v 0.944959044 0.394802034 0
v 1.00148058 0.389457166 0
v 0.996426046 0.486000746 0
v 0.980501473 0.569175005 0
v 0.967814624 0.635448158 0
v 0.937660396 0.805057883 0
v 0.90333271 1.01089883 0
v 0.877735555 1.17398536 0
v 0.830292761 1.37349343 0
v 0.78814584 1.55601776 0
v 0.766885102 1.64933515 0
v 0.743582904 1.75224292 0
v 0.714508176 1.88147759 0
v 0.695267498 1.96712208 0
v 0.647467136 2.12703753 0
v 0.596860349 2.29627681 0
v 0.586346865 2.41497993 0
v 0.574521422 2.5487864 0
v 0.564824879 2.65814948 0
v 0.553090751 2.79042315 0
v 0.536570787 2.97675467 0
v 0.291669279 3.04695988 0
v 0.295634329 3.32559395 0
v -0.00545857428 3.3255527 0
v 0.129113212 2.91044497 0
v -0.375168741 1.74264884 0
v 0.6005615 1.88040233 0
v 0.369747698 1.90434062 0
v 0.049184937 1.93947983 0
v 0.567666888 1.81931865 0
v 0.421362936 1.82563865 0
v 0.58434844 1.85029709 0
v 0.400677562 1.85725379 0
v 0.341503263 1.86492491 0
v 0.0609017797 1.90322471 0
v 0.326820105 1.84442008 0
v 0.0701913089 1.87450218 0
v -0.535606503 2.17047 0
v -0.535748839 2.98547006 0
v -0.0706065297 2.1705513 0
v -0.0707488805 2.98555112 0
v -0.527104855 2.2281816 0
v -0.561261892 2.18317842 0
v -0.608085632 2.12193942 0
v -0.63633883 2.08499455 0
v -0.680877149 2.02750015 0
v -0.719101727 1.9782542 0
v -0.754229367 1.9339565 0
v -0.793962896 1.88383198 0
v -0.835557461 1.83280909 0
v -0.873855948 1.78579843 0
v -0.924185634 1.72631824 0
v -0.929692864 1.60693979 0
v -0.836608708 1.55187953 0
v -0.805933952 1.44045138 0
v -0.749116242 1.37042499 0
v -0.659909666 1.37011576 0
v -0.518053114 1.46170723 0
v -0.454830647 1.40561616 0
v -0.365506977 1.42825961 0
v -0.364355832 1.50720358 0
v -0.363025367 1.59008741 0
v -0.360163659 1.64968133 0
v -0.356997043 1.71483004 0
v -0.352403045 1.77641547 0
v -0.34777993 1.83881152 0
v -0.342034996 1.90014172 0
v -0.335999221 1.9642688 0
v -0.330112785 2.02001882 0
v -0.323781341 2.07958651 0
v -0.316431254 2.14520288 0
v -0.305610061 2.24184322 0
v -0.339698285 2.27581215 0
v -0.369403839 2.3054688 0
v -0.425743461 2.30547357 0
v -0.46844095 2.30551004 0
v -0.456434131 2.09116077 0
v -0.507478356 1.96549392 0
v -0.553914607 1.85126364 0
v -0.610031486 1.71302283 0
v -0.659233093 1.59211552 0
v -0.390102088 2.08525515 0
v -0.413792342 1.96424711 0
v -0.438501716 1.8427006 0
v -0.467242688 1.71036279 0
v -0.488027096 1.58469176 0
v -0.504915655 2.13360524 0
v -0.566370487 2.01964378 0
v -0.628571928 1.90736282 0
v -0.694140077 1.78821278 0
v -0.75362587 1.67242026 0
v -0.37108013 2.15723252 0
v -0.423745304 2.17161632 0
v -0.47772643 2.19260836 0
v -0.401779652 2.02571177 0
v -0.479537576 2.03423095 0
v -0.539713621 2.06907487 0
v -0.426905304 1.89974475 0
v -0.529253483 1.91182005 0
v -0.600037813 1.95885098 0
v -0.45360586 1.77371919 0
v -0.580725014 1.78521347 0
v -0.665207863 1.84061694 0
v -0.478887588 1.64084029 0
v -0.631185174 1.66099215 0
v -0.727066398 1.72385335 0
v -0.50259769 1.52290285 0
v -0.692403018 1.51056898 0
v -0.797767341 1.60932517 0
v 0.192180306 2.83217263 0
v 0.17303957 2.81215382 0
v 0.0892840028 2.73759198 0
v 0.0430066995 2.68197322 0
v 0.0185531173 2.61456156 0
v -0.00680092396 2.56341648 0
v -0.0364872105 2.50989079 0
v -0.0185960215 2.44199228 0
v 0.152797386 2.3639462 0
v 0.402306587 2.36281705 0
v 0.563145816 2.35206294 0
v 0.677440464 2.41647577 0
v 0.672552526 2.46965909 0
v 0.633430481 2.53540802 0
v 0.581845582 2.59635973 0
v 0.546759248 2.69394684 0
v 0.481389642 2.74135256 0
v 0.396028101 2.80706787 0
v 0.368485749 2.82738996 0
v 0.331628501 2.85448289 0
v 0.296032459 2.88062239 0
v 0.284682661 2.88060474 0
v 0.276046664 2.88062024 0
v 0.265734583 2.88059545 0
v 0.255944073 2.88061118 0
v 0.245037898 2.88061738 0
v 0.238474101 2.88058329 0
v 0.301634669 2.7431035 0
v 0.321167052 2.66779804 0
v 0.340985686 2.59397459 0
v 0.359288335 2.5295577 0
v 0.379614592 2.46116662 0
v 0.36839053 2.74731898 0
v 0.20471926 2.76470256 0
v 0.27624464 2.84032202 0
v 0.218250096 2.84898281 0
v 0.289760977 2.78853226 0
v 0.427478552 2.67955923 0
v 0.481877208 2.61654925 0
v 0.539553463 2.55260587 0
v 0.603563845 2.48585176 0
v 0.162395373 2.70943356 0
v 0.120959878 2.65112329 0
v 0.0749208033 2.59536791 0
v 0.031587597 2.53845072 0
v 0.238741755 2.84658813 0
v 0.23525925 2.81289434 0
v 0.256102651 2.84366608 0
v 0.258780807 2.8023839 0
v 0.248465434 2.75495076 0
v 0.238224268 2.68909931 0
v 0.224905074 2.62237668 0
v 0.210625276 2.55922604 0
v 0.19537881 2.49282336 0
v 0.307678789 2.84836364 0
v 0.322235048 2.80452514 0
v 0.290585577 2.84397626 0
v 0.308347106 2.79769802 0
v 0.33460921 2.7452035 0
v 0.370478332 2.6730752 0
v 0.40721938 2.6041441 0
v 0.448140323 2.53958082 0
v 0.485087246 2.46965671 0
v 0.109865017 3.65412831 0
v 0.0326755196 3.62213922 0
v -0.0337772481 3.54900599 0
v -0.0570292547 3.46759105 0
v -0.0595067888 3.37872005 0
v -0.135879204 3.38950205 0
v -0.13588278 3.31390667 0
v -0.000486132863 3.21339965 0
v 0.0360967033 3.11373401 0
v 0.121679232 3.04397249 0
v 0.219698727 2.97559667 0
v 0.283685356 2.97559166 0
v 0.350133657 3.00412512 0
v 0.388316602 3.09135985 0
v 0.419234633 3.15567279 0
v 0.451017797 3.25008225 0
v 0.464110821 3.33241272 0
v 0.46409148 3.45637727 0
v 0.439228266 3.53924537 0
v 0.387550831 3.59484172 0
v 0.298071057 3.654778 0
v 0.184886023 3.66558719 0
v 0.316857159 3.20598531 0
v 0.356860369 3.4246757 0
v 0.246234074 3.44067216 0
v 0.137232378 3.39016056 0
v 0.107577235 3.33727312 0
v 0.112422533 3.24987864 0
v 0.163744822 3.16895247 0
v 0.229465276 3.12247491 0
v 0.303223968 3.10241151 0
v 0.356107831 3.13770914 0
v 0.381761491 3.17781138 0
v 0.395362914 3.23312259 0
v 0.390570313 3.29003143 0
v 0.375308394 3.3685782 0
v 0.236815751 3.64567161 0
v 0.213625416 3.64575958 0
v 0.170985416 3.63684487 0
v 0.139163151 3.61577487 0
v 0.109250367 3.59110379 0
v 0.0784497932 3.55570817 0
v 0.0446794517 3.51687098 0
v 0.0273081213 3.49039316 0
v 0.0159381852 3.45580435 0
v 0.0040354766 3.41969228 0
v 0.00423554424 3.38201928 0
v 0.00448506605 3.35521317 0
v 0.00938822515 3.34113026 0
v 0.0101869451 3.31052041 0
v -0.00473967427 3.26339602 0
v -0.00354165584 3.22333288 0
v 0.00516568962 3.19119382 0
v 0.0138250859 3.1596086 0
v 0.0277694482 3.13955259 0
v 0.0650126338 3.10474992 0
v 0.0953682289 3.09078574 0
v 0.131605998 3.09199667 0
v 0.170734346 3.10021162 0
v 0.169285506 3.12856483 0
v 0.141975984 3.14097667 0
v 0.123191893 3.16218281 0
v 0.122441083 3.18431306 0
v 0.155979246 3.23574781 0
v 0.170675829 3.27408028 0
v 0.170251578 3.30831337 0
v 0.169854 3.35295391 0
v 0.159739926 3.3784802 0
v 0.159394443 3.41092396 0
v 0.173615113 3.45354915 0
v 0.189349398 3.50062251 0
v 0.239044905 3.5103929 0
v 0.268328547 3.49581599 0
v 0.296900004 3.4816246 0
v 0.304770231 3.47387934 0
v 0.322643012 3.47701716 0
v 0.315545648 3.5447135 0
v 0.3040995 3.57309937 0
v 0.304207116 3.59558296 0
v 0.294273943 3.61564255 0
v 0.264690459 3.63770008 0
v 0.375804126 3.63914442 0
v 0.329588085 3.6330781 0
v 0.296762139 3.62122107 0
v 0.278940827 3.58585596 0
v 0.278907537 3.54925418 0
v 0.283951461 3.51999974 0
v 0.298702538 3.49139404 0
v 0.314221591 3.47398043 0
v 0.345970839 3.47880197 0
v 0.389783174 3.48544669 0
v 0.403895259 3.46699977 0
v 0.412891477 3.43329859 0
v 0.423726827 3.39226246 0
v 0.423707604 3.35859752 0
v 0.423664212 3.33021331 0
v 0.403107613 3.27805662 0
v 0.402586758 3.22230077 0
v 0.401856035 3.16877103 0
v 0.370194465 3.13142633 0
v 0.334477067 3.08979392 0
v 0.333612412 3.05933714 0
v 0.362693906 2.99576783 0
v 0.393033743 2.94323111 0
v 0.398103118 2.907336 0
v 0.403366208 2.86799765 0
v 0.369752288 2.82344389 0
v 0.317896396 2.81163168 0
v 0.316050053 2.79336715 0
v 0.351529807 2.76394081 0
v 0.374699712 2.75217485 0
v 0.448985308 2.74466515 0
v 0.506277263 2.76143026 0
v 0.554372907 2.80254292 0
v 0.576398909 2.84007311 0
v 0.578822672 2.87075853 0
v 0.55603677 2.92658377 0
v 0.510642946 2.97048926 0
v 0.477111995 3.00244546 0
v 0.447908819 3.02982736 0
v 0.449170321 3.06429601 0
v 0.512451768 3.07893276 0
v 0.551290691 3.10494089 0
v 0.587357342 3.17421842 0
v 0.58781904 3.22689295 0
v 0.573506236 3.27502656 0
v 0.560576975 3.31781816 0
v 0.547943413 3.35949302 0
v 0.535450816 3.39996815 0
v 0.525422633 3.43245888 0
v 0.512848735 3.47303176 0
v 0.500496089 3.51271868 0
v 0.466039002 3.57127261 0
v 0.425450355 3.62002563 0
v 0.414064825 3.62574625 0
v 0.38931334 3.62565207 0
v 1.2232976 3.11956501 0
v 1.16834497 3.02725959 0
v 1.11635184 2.93981528 0
v 1.11732686 2.88142776 0
v 1.11912894 2.78493142 0
v 1.12093556 2.68628502 0
v 1.12251163 2.60223818 0
v 1.15400898 2.60350418 0
v 1.19122541 2.70218682 0
v 1.23522282 2.76163578 0
v 1.28786051 2.73052073 0
v 1.32979679 2.77274847 0
v 1.38919961 2.7815671 0
v 1.3696425 2.82048798 0
v 1.32751441 2.87202835 0
v 1.28723598 2.92126608 0
v 1.25179088 2.96476293 0
v 1.26655138 3.035532 0
v 1.28144765 3.10679388 0
v 1.29287684 3.1618278 0
v 1.28135562 3.1615963 0
v 1.2678616 3.16135645 0
v 1.25883079 3.16119981 0
v 1.2479285 3.16096807 0
v 1.19869757 2.92168927 0
v 1.23260319 2.95001769 0
v 1.16963923 2.9281919 0
v 1.26926649 3.10865974 0
v 1.25243306 3.03577089 0
v 1.25262463 3.10922098 0
v 1.23100162 3.03385544 0
v 1.24076319 3.11397743 0
v 1.20676684 3.02521586 0
v 1.25823736 2.90275955 0
v 1.29321313 2.83877349 0
v 1.20698941 2.88588595 0
v 1.22119772 2.82390523 0
v 1.17372334 2.88468695 0
v 1.18113208 2.80693173 0
v 1.50348616 3.10192418 0
v 1.51080358 3.02002287 0
v 1.51722741 2.9488194 0
v 1.48230433 2.91949868 0
v 1.38471437 2.8524065 0
v 1.30418658 2.81933427 0
v 1.30420125 2.75352359 0
v 1.41261029 2.75008392 0
v 1.53709185 2.70508289 0
v 1.56371009 2.74986005 0
v 1.64327192 2.69238067 0
v 1.73872328 2.62075329 0
v 1.75617671 2.61954522 0
v 1.75904179 2.66059399 0
v 1.74970388 2.77819872 0
v 1.74144495 2.88208652 0
v 1.73368633 2.97603989 0
v 1.67622066 3.04263306 0
v 1.5993259 3.13123417 0
v 1.54002094 3.19947553 0
v 1.51954222 3.19989014 0
v 1.49465001 3.20005774 0
v 1.65641344 2.93944001 0
v 1.58614039 2.96401262 0
v 1.55939245 3.12527633 0
v 1.54226518 3.12083888 0
v 1.61082876 3.02745438 0
v 1.56979477 3.02269363 0
v 1.5380336 2.90414977 0
v 1.46825647 2.82023644 0
v 1.56920254 2.80494189 0
v 1.57920134 2.89674783 0
v 1.65293241 2.87673831 0
v 1.64816427 2.78631473 0
v 1.2644124 2.63067341 0
v 1.26436532 2.90067339 0
v 1.44441247 2.63070488 0
v 1.44436526 2.90070486 0
v 1.19422948 2.79569578 0
v 1.19418406 3.05569577 0
v 1.49922943 2.79574895 0
v 1.49918413 3.05574894 0
vt 0.104410186 0.604516149
vt 0.107817844 0.449608713
vt 0.111328125 0.289999127
vt 0.111328125 0.157477498
vt 0.106003657 0.00390625
vt 0.102442622 0.00390625
vt 0.0996452048 0.00390625
vt 0.0905963778 0.142440885
vt 0.0812628418 0.285313994
vt 0.0681983232 0.372818857
vt 0.0581717752 0.296857834
vt 0.0511644557 0.316934824
vt 0.0396713391 0.349874914
vt 0.0276352931 0.384362698
vt 0.0147098145 0.394671828
vt 0.0009765625 0.405632138
vt 0.0009765625 0.493246973
vt 0.00801037066 0.56932646
vt 0.0205319636 0.588413954
vt 0.034398742 0.609539628
vt 0.048444286 0.661592662
vt 0.0588129237 0.700021386
vt 0.0554019548 0.849609375
vt 0.0603898428 0.849609375
vt 0.0625604615 0.849609375
vt 0.0647376925 0.849609375
vt 0.07027293 0.612135947
vt 0.0663786232 0.457000136
vt 0.0847643018 0.608896911
vt 0.0884566605 0.453067631
vt 0.0935526937 0.287225246
vt 0.0990459993 0.148572251
vt 0.14015156 0.631850243
vt 0.155166015 0.565121949
vt 0.180664062 0.513515532
vt 0.175840631 0.3861489
vt 0.165163577 0.379472107
vt 0.156814158 0.290318638
vt 0.151706353 0.2357862
vt 0.147368938 0.250464022
vt 0.145616889 0.279153615
vt 0.143810153 0.308739275
vt 0.141617194 0.267679363
vt 0.136135444 0.165045425
vt 0.128462106 0.00390625
vt 0.126342282 0.00390625
vt 0.124275781 0.00390625
vt 0.116300292 0.129005015
vt 0.114138767 0.230227455
vt 0.112304688 0.316098064
vt 0.112304688 0.448365241
vt 0.112304688 0.559809089
vt 0.116769925 0.629923344
vt 0.127401173 0.796875
vt 0.129302934 0.796875
vt 0.131005764 0.796875
vt 0.13312012 0.796875
vt 0.136037007 0.796875
vt 0.135179102 0.530381978
vt 0.143158689 0.390430927
vt 0.12445762 0.544171751
vt 0.127260357 0.352130562
vt 0.127289057 0.145625621
vt 0.142963186 0.543910027
vt 0.139565036 0.63124764
vt 0.13371484 0.623904705
vt 0.125978619 0.62349236
vt 0.153161719 0.468371838
vt 0.139292285 0.458237708
vt 0.125842571 0.44928506
vt 0.127274707 0.248219907
vt 0.14914766 0.282079667
vt 0.571289062 0.953926265
vt 0.570144057 0.936803758
vt 0.568681061 0.91491127
vt 0.566941619 0.888876259
vt 0.565511882 0.867488742
vt 0.563505471 0.837471247
vt 0.559090436 0.811941266
vt 0.551923811 0.770496249
vt 0.543651342 0.72265625
vt 0.503774703 0.72265625
vt 0.472305715 0.72265625
vt 0.470001489 0.741253734
vt 0.467691332 0.759888768
vt 0.464682311 0.784173727
vt 0.460294545 0.819576263
vt 0.457717419 0.851626277
vt 0.455047727 0.890278757
vt 0.452636719 0.930748761
vt 0.452636719 0.96090126
vt 0.477856278 0.907176256
vt 0.514562547 0.967431247
vt 0.541247487 0.91973877
vt 0.565820396 0.97265625
vt 0.571289062 0.97265625
vt 0.507597685 0.80938375
vt 0.509680033 0.856643736
vt 0.511889338 0.906781256
vt 0.513002276 0.93202877
vt 0.510677874 0.879283726
vt 0.508498251 0.829826236
vt 0.50567311 0.765728772
vt 0.624801993 0.887923241
vt 0.630530477 0.926742852
vt 0.638416111 0.960712671
vt 0.648053467 0.979043245
vt 0.659376025 0.994140625
vt 0.66409421 0.994140625
vt 0.670766532 0.983357251
vt 0.677169263 0.994140625
vt 0.681068718 0.994140625
vt 0.688077748 0.980929315
vt 0.693267167 0.94830966
vt 0.695800781 0.908239722
vt 0.694417596 0.888020098
vt 0.691182256 0.882628381
vt 0.691519737 0.862139344
vt 0.695800781 0.801483512
vt 0.692126095 0.76724726
vt 0.695800781 0.759158194
vt 0.695800781 0.750802755
vt 0.68659991 0.713869154
vt 0.678647101 0.69140625
vt 0.672685146 0.69140625
vt 0.666080117 0.705780089
vt 0.65799284 0.701735556
vt 0.644782722 0.708208025
vt 0.635010242 0.727346897
vt 0.629012167 0.757541597
vt 0.623535872 0.808234453
vt 0.623535156 0.852606237
vt 0.658886075 0.840012491
vt 0.644553602 0.773553193
vt 0.640536368 0.810069025
vt 0.639349759 0.844029784
vt 0.643184185 0.877624214
vt 0.650944054 0.898073912
vt 0.658521116 0.909029901
vt 0.667649686 0.90756768
vt 0.674952865 0.895152569
vt 0.676505148 0.867767215
vt 0.677874565 0.835998237
vt 0.677052915 0.796558022
vt 0.669566929 0.769902229
vt 0.661442101 0.764789045
vt 0.652221739 0.764789045
vt 0.577559292 0.657497048
vt 0.582444727 0.634480476
vt 0.589467168 0.60137403
vt 0.595648885 0.572246075
vt 0.602177262 0.541470706
vt 0.607759416 0.507981479
vt 0.61325109 0.475025386
vt 0.618392706 0.442862302
vt 0.623785615 0.409126937
vt 0.627634287 0.382658213
vt 0.631622016 0.355225593
vt 0.636150658 0.324087858
vt 0.640726268 0.29262206
vt 0.645507812 0.240716785
vt 0.645507812 0.208656266
vt 0.611055434 0.124827161
vt 0.594262123 0.0688886642
vt 0.578704894 0.0170586091
vt 0.571635544 0.0414013565
vt 0.563750565 0.0685468912
vt 0.553894341 0.102480486
vt 0.544172049 0.135956064
vt 0.53347677 0.172781229
vt 0.522397935 0.136195317
vt 0.509600759 0.0939423814
vt 0.501122892 0.0659492165
vt 0.496270984 0.0499326177
vt 0.489029139 0.0260136649
vt 0.482333273 0.00390625
vt 0.478027344 0.00390625
vt 0.478027344 0.0248720609
vt 0.478027344 0.0424404442
vt 0.478668779 0.0683417842
vt 0.479298532 0.0937373042
vt 0.480144292 0.127896473
vt 0.480981708 0.161700204
vt 0.481979877 0.201984376
vt 0.482906044 0.239376962
vt 0.485168725 0.279285163
vt 0.487416297 0.318926752
vt 0.489625365 0.357864261
vt 0.491506159 0.391045898
vt 0.493532687 0.426777363
vt 0.495515645 0.461743176
vt 0.49739477 0.494883806
vt 0.499900281 0.539078116
vt 0.502399087 0.583142579
vt 0.504851043 0.626393557
vt 0.52008003 0.664196312
vt 0.529468954 0.6875
vt 0.5376755 0.6875
vt 0.552179337 0.6875
vt 0.55690062 0.642369151
vt 0.541061997 0.632169902
vt 0.521198809 0.623160183
vt 0.52326715 0.547260761
vt 0.543465316 0.592883766
vt 0.56487602 0.564528286
vt 0.525591791 0.461996108
vt 0.54833734 0.513272464
vt 0.573013902 0.487029284
vt 0.527764022 0.38233006
vt 0.552983224 0.437352538
vt 0.580110013 0.419469744
vt 0.529964685 0.301624984
vt 0.557984173 0.355628908
vt 0.58691144 0.354699224
vt 0.531446934 0.247258782
vt 0.5628227 0.276578128
vt 0.594597101 0.281534195
vt 0.567962706 0.192605481
vt 0.600825727 0.222218767
vt 0.57271409 0.114949219
vt 0.608638644 0.147830069
vt 0.574698746 0.0825058445
vt 0.52214843 0.588344753
vt 0.542361617 0.610930681
vt 0.560111225 0.611040056
vt 0.524385929 0.506286144
vt 0.546044528 0.550753891
vt 0.568587363 0.529179692
vt 0.575892866 0.459624022
vt 0.551104069 0.468073249
vt 0.526663661 0.422703117
vt 0.528713644 0.347507805
vt 0.555622697 0.394224614
vt 0.583885074 0.38353321
vt 0.53069663 0.274780273
vt 0.560655534 0.31198144
vt 0.590802014 0.31766212
vt 0.59772563 0.251736343
vt 0.565463841 0.233422846
vt 0.532401562 0.212251961
vt 0.570322454 0.154030263
vt 0.604949057 0.182959959
vt 0.57665658 0.0505204946
vt 0.622558594 0.99609375
vt 0.572265625 0.99609375
vt 0.622558594 0.69140625
vt 0.572265625 0.69140625
vt 0.807617188 0.57421875
vt 0.776855469 0.57421875
vt 0.807617188 0.36328125
vt 0.776855469 0.36328125
vt 0.774902344 0.599609375
vt 0.774902344 0.912109375
vt 0.743164062 0.599609375
vt 0.743164062 0.912109375
vt 0.687988281 0.00390625
vt 0.687988281 0.3828125
vt 0.646484375 0.00390625
vt 0.646484375 0.3828125
vt 0.807128906 0.8203125
vt 0.807128906 0.98046875
vt 0.775878906 0.8203125
vt 0.775878906 0.98046875
vt 0.790527344 0.00390625
vt 0.790527344 0.359375
vt 0.749511719 0.00390625
vt 0.749511719 0.359375
vt 0.451660156 0.9765625
vt 0.334960938 0.9765625
vt 0.451660156 0.72265625
vt 0.334960938 0.72265625
vt 0.220703125 0.9921875
vt 0.145996094 0.9921875
vt 0.220703125 0.80078125
vt 0.145996094 0.80078125
vt 0.685512483 0.636904538
vt 0.704731345 0.599794328
vt 0.728027344 0.520267367
vt 0.728027344 0.472993553
vt 0.71080631 0.446926773
vt 0.70520103 0.439603627
vt 0.698230743 0.43049854
vt 0.693095982 0.423789829
vt 0.688826382 0.418209463
vt 0.680039287 0.410023272
vt 0.672498226 0.402996182
vt 0.667546928 0.398384988
vt 0.66372174 0.394818366
vt 0.65904361 0.390461326
vt 0.655027628 0.38671875
vt 0.646484375 0.38671875
vt 0.646484375 0.40407145
vt 0.650496304 0.412050962
vt 0.653149724 0.417326897
vt 0.649284542 0.430582315
vt 0.649419129 0.442441255
vt 0.649615645 0.459740907
vt 0.651196718 0.474923491
vt 0.65292871 0.491550028
vt 0.651650131 0.505436659
vt 0.6498366 0.525127113
vt 0.650517464 0.542616665
vt 0.651161671 0.559148252
vt 0.652375877 0.571775258
vt 0.653738439 0.585946798
vt 0.655027628 0.599350274
vt 0.646484375 0.635139346
vt 0.653591633 0.666015625
vt 0.665962517 0.666015625
vt 0.698751807 0.523669183
vt 0.670537949 0.572504222
vt 0.719973326 0.461950153
vt 0.716206849 0.455777675
vt 0.20414792 0.414390981
vt 0.217281863 0.510830522
vt 0.242190853 0.474559367
vt 0.250748873 0.462092489
vt 0.257661492 0.4520275
vt 0.27148962 0.423769742
vt 0.284907162 0.39635548
vt 0.294596612 0.412918419
vt 0.306466192 0.433205664
vt 0.313304931 0.457767695
vt 0.320498168 0.483609319
vt 0.328338355 0.511774123
vt 0.348000854 0.582400739
vt 0.363102227 0.621595621
vt 0.379036665 0.662949324
vt 0.395130575 0.704717636
vt 0.400536597 0.71875
vt 0.413661659 0.71875
vt 0.420388162 0.71875
vt 0.430774778 0.704710424
vt 0.445955902 0.684194446
vt 0.461024791 0.640824914
vt 0.477050781 0.594703197
vt 0.477050781 0.569133222
vt 0.461763293 0.575988531
vt 0.44805038 0.580978155
vt 0.434653521 0.57482332
vt 0.420606762 0.562113404
vt 0.403062344 0.541139901
vt 0.385674506 0.518443644
vt 0.36967805 0.48942095
vt 0.353761345 0.458654106
vt 0.340402901 0.428237468
vt 0.332648396 0.403246552
vt 0.324344397 0.381908476
vt 0.325458109 0.352392584
vt 0.328707606 0.346831083
vt 0.332474113 0.340368897
vt 0.335339576 0.335465074
vt 0.341581583 0.306814134
vt 0.337126821 0.290408492
vt 0.334790111 0.282452255
vt 0.332110733 0.273330837
vt 0.328867137 0.262279391
vt 0.330807984 0.210903555
vt 0.334453344 0.199187279
vt 0.339490086 0.182988897
vt 0.335307062 0.174560905
vt 0.332403183 0.16871348
vt 0.333818197 0.131269962
vt 0.343466312 0.130655199
vt 0.352813095 0.117037423
vt 0.370316148 0.103119411
vt 0.389671415 0.0875572711
vt 0.406208485 0.0714089423
vt 0.426470667 0.058384493
vt 0.443379939 0.0485267974
vt 0.450446159 0.0456316806
vt 0.459033728 0.039183788
vt 0.468380511 0.0258376561
vt 0.469189912 0.00390625
vt 0.459748596 0.00390625
vt 0.451556891 0.00840976555
vt 0.444998771 0.0120197264
vt 0.428272665 0.0212197658
vt 0.408001631 0.0323641822
vt 0.391978562 0.0411782041
vt 0.372378111 0.0587848052
vt 0.354493976 0.0748544931
vt 0.345356941 0.083068043
vt 0.33529821 0.0921036676
vt 0.322672397 0.103448242
vt 0.314306378 0.110968404
vt 0.298688024 0.129632965
vt 0.282162786 0.149384096
vt 0.270567954 0.15348731
vt 0.25750491 0.158112347
vt 0.246825829 0.16189386
vt 0.233910501 0.166461721
vt 0.215713233 0.172902465
vt 0.208853811 0.268555701
vt 0.181640625 0.266990215
vt 0.181640625 0.384596258
vt 0.222182706 0.332069576
vt 0.336379439 0.529073358
vt 0.322772831 0.147954419
vt 0.32043317 0.23811765
vt 0.317000508 0.363336831
vt 0.32873717 0.160814464
vt 0.328119755 0.217951924
vt 0.325712144 0.154295087
vt 0.325035661 0.226043954
vt 0.324282378 0.249147698
vt 0.320539534 0.358761847
vt 0.326285243 0.254887879
vt 0.323345929 0.355130434
vt 0.7421875 0.669921875
vt 0.7421875 0.98828125
vt 0.696777344 0.669921875
vt 0.696777344 0.98828125
vt 0.710593641 0.338957667
vt 0.713935554 0.32134971
vt 0.718493819 0.297335535
vt 0.721245408 0.282835752
vt 0.725551128 0.260154694
vt 0.729250431 0.240662128
vt 0.732598305 0.223024964
vt 0.736395299 0.20302473
vt 0.740303755 0.182432815
vt 0.743906558 0.163447917
vt 0.748535156 0.139064893
vt 0.748535156 0.0925705507
vt 0.740002334 0.0737573355
vt 0.737695158 0.0311673358
vt 0.732282579 0.00390625
vt 0.72362107 0.00390625
vt 0.711287022 0.0422266498
vt 0.706584573 0.020221265
vt 0.697888494 0.0259006657
vt 0.697029471 0.0565438196
vt 0.696119249 0.0890277773
vt 0.695465147 0.112362593
vt 0.694748521 0.137928993
vt 0.694072425 0.162052751
vt 0.693385541 0.18655996
vt 0.692713022 0.210559517
vt 0.69200772 0.235713199
vt 0.691395879 0.257535964
vt 0.690742433 0.280845225
vt 0.690022826 0.306528479
vt 0.688964844 0.344271809
vt 0.692293048 0.357562691
vt 0.695192337 0.369140625
vt 0.700694859 0.369140625
vt 0.704864144 0.369140625
vt 0.703694224 0.28542161
vt 0.708677828 0.236345053
vt 0.713209987 0.191717073
vt 0.718691647 0.137739077
vt 0.723488212 0.0905069783
vt 0.697216511 0.28313157
vt 0.699585617 0.236001745
vt 0.702154875 0.188842684
vt 0.705288291 0.13784501
vt 0.707843244 0.0896632746
vt 0.708425879 0.302021503
vt 0.714394808 0.257495791
vt 0.720381618 0.213601917
vt 0.726609111 0.166935921
vt 0.73217535 0.121540941
vt 0.695357323 0.311236382
vt 0.700501204 0.316860974
vt 0.705773771 0.32504952
vt 0.698382914 0.259928256
vt 0.705950141 0.263204396
vt 0.71180886 0.276783824
vt 0.70095098 0.210939363
vt 0.71080631 0.215387911
vt 0.717640817 0.233693466
vt 0.70379132 0.162213445
vt 0.715829253 0.165927872
vt 0.723871231 0.187447488
vt 0.706704855 0.111131757
vt 0.72075516 0.117421098
vt 0.7297014 0.14171648
vt 0.709561288 0.0659997389
vt 0.726723492 0.0586439185
vt 0.736275017 0.0965114236
vt 0.285977632 0.907058775
vt 0.287936181 0.914557099
vt 0.295320064 0.947372556
vt 0.300953686 0.965312541
vt 0.30779016 0.974064231
vt 0.313095748 0.982815921
vt 0.318674535 0.9921875
vt 0.325062245 0.982495129
vt 0.331966221 0.917039514
vt 0.333984375 0.82274127
vt 0.333984375 0.765867472
vt 0.327792317 0.72265625
vt 0.322573185 0.72265625
vt 0.315736175 0.735995352
vt 0.309400648 0.755250692
vt 0.299664855 0.768376827
vt 0.294906616 0.793974221
vt 0.288431883 0.827409565
vt 0.286451727 0.838182747
vt 0.283805519 0.852581084
vt 0.28125 0.86648351
vt 0.28125 0.870914578
vt 0.28125 0.874289155
vt 0.28125 0.878310561
vt 0.281250536 0.882135212
vt 0.281250536 0.886401892
vt 0.28125 0.888959706
vt 0.294678807 0.864308417
vt 0.30206269 0.856651008
vt 0.309391707 0.848775327
vt 0.315955013 0.84133625
vt 0.323174894 0.832805574
vt 0.294268548 0.838228583
vt 0.292564154 0.902150571
vt 0.285185039 0.874208272
vt 0.28433919 0.89686507
vt 0.290243834 0.868933558
vt 0.300906748 0.815215945
vt 0.307118863 0.794249117
vt 0.313522398 0.772430599
vt 0.320383132 0.748905897
vt 0.297979981 0.918610871
vt 0.303733289 0.934462011
vt 0.309337378 0.951641917
vt 0.315175593 0.966983616
vt 0.28457278 0.888859987
vt 0.287860781 0.890229225
vt 0.284855962 0.882078588
vt 0.28888911 0.881038189
vt 0.293518662 0.885070384
vt 0.299929559 0.889021695
vt 0.306406409 0.893983781
vt 0.312493533 0.89903748
vt 0.318937689 0.903883636
vt 0.284402996 0.861944616
vt 0.288681328 0.85626018
vt 0.284828037 0.868612826
vt 0.28934896 0.861677766
vt 0.2944763 0.851427495
vt 0.301526904 0.837446928
vt 0.308324367 0.823169827
vt 0.314759016 0.807464242
vt 0.321868122 0.793526769
vt 0.256269336 0.987713277
vt 0.263808012 0.975225925
vt 0.270297855 0.946669042
vt 0.272569537 0.914869785
vt 0.272812694 0.880146027
vt 0.280273438 0.884364247
vt 0.280273438 0.854834378
vt 0.267052919 0.815569043
vt 0.263483405 0.776627183
vt 0.255127341 0.749369502
vt 0.245554298 0.72265625
vt 0.239307612 0.72265625
vt 0.232817188 0.733793259
vt 0.229085356 0.767864704
vt 0.226067767 0.792987764
vt 0.222958788 0.829862297
vt 0.221679688 0.862020075
vt 0.221679688 0.910446763
vt 0.224106058 0.94281745
vt 0.229151562 0.964541674
vt 0.23788847 0.987963974
vt 0.248942181 0.9921875
vt 0.236062109 0.812647343
vt 0.232151568 0.898069859
vt 0.242954493 0.904331088
vt 0.253600389 0.884606779
vt 0.256496668 0.863939166
vt 0.256026745 0.829808414
vt 0.251017004 0.798184276
vt 0.244598046 0.780023277
vt 0.237396285 0.772196114
vt 0.232230082 0.78597182
vt 0.229725197 0.801628888
vt 0.228393942 0.823234558
vt 0.228863865 0.845465481
vt 0.230350971 0.876151621
vt 0.00145769538 0.887595356
vt 0.00144500483 0.896648169
vt 0.00231623044 0.913300037
vt 0.00437428709 0.925734282
vt 0.00678105466 0.93742919
vt 0.010236714 0.949456513
vt 0.0140206693 0.96262747
vt 0.0165973771 0.969429553
vt 0.0199702736 0.973928511
vt 0.0234794542 0.978609324
vt 0.0271431245 0.978581846
vt 0.0297402479 0.978562236
vt 0.0311130229 0.976701379
vt 0.0340765156 0.976492047
vt 0.0386207886 0.982596636
vt 0.0425156504 0.9824422
vt 0.0456518419 0.979300261
vt 0.0487306491 0.976214588
vt 0.0507053882 0.971033871
vt 0.0542107075 0.957017541
vt 0.055669006 0.94535929
vt 0.0556734204 0.931200266
vt 0.0550030321 0.915805995
vt 0.0522298999 0.915994406
vt 0.050927747 0.926481485
vt 0.0487918928 0.933536112
vt 0.0466008633 0.933559656
vt 0.0416013896 0.920020998
vt 0.0378555022 0.914007962
vt 0.0344897807 0.913998842
vt 0.0301005486 0.913984418
vt 0.0275922567 0.917860508
vt 0.0244008899 0.917923272
vt 0.0202279445 0.91232121
vt 0.0156235266 0.906139433
vt 0.0146645699 0.886734307
vt 0.016090313 0.875280142
vt 0.0174779836 0.864130914
vt 0.0182316862 0.861062288
vt 0.0179249067 0.854073107
vt 0.0113154007 0.856839478
vt 0.00854171347 0.861306965
vt 0.0063495799 0.861280799
vt 0.00438918453 0.865149021
vt 0.00223567383 0.876710474
vt 0.0572712906 0.940701962
vt 0.0578592792 0.958759785
vt 0.0590203106 0.971582055
vt 0.0624735355 0.978545427
vt 0.0660471693 0.978564441
vt 0.0689036176 0.976587772
vt 0.0716950223 0.970839381
vt 0.0733948201 0.964768469
vt 0.0729263648 0.952377856
vt 0.0722786114 0.935256958
vt 0.0740821287 0.929739535
vt 0.0773789063 0.926225483
vt 0.0813928694 0.92194587
vt 0.0846870095 0.921920538
vt 0.0874757841 0.92189765
vt 0.0926103517 0.929769993
vt 0.0980920866 0.929738283
vt 0.103367284 0.929707825
vt 0.107127249 0.941753149
vt 0.111340724 0.955253303
vt 0.114336036 0.955128908
vt 0.120441794 0.942712903
vt 0.125481442 0.929754794
vt 0.129001468 0.926956713
vt 0.132895902 0.923861623
vt 0.137651667 0.935416877
vt 0.139318064 0.955112398
vt 0.141109273 0.955118775
vt 0.14362295 0.940173805
vt 0.144537017 0.930709481
vt 0.144540533 0.901596606
vt 0.142426759 0.880182147
vt 0.138093755 0.862868249
vt 0.134287208 0.855447829
vt 0.131297171 0.855441511
vt 0.126082614 0.865893543
vt 0.122149512 0.884523928
vt 0.119252637 0.89824754
vt 0.116761819 0.910046577
vt 0.113434277 0.91012907
vt 0.11189355 0.885718524
vt 0.109299026 0.870833278
vt 0.102512106 0.857251883
vt 0.0973951146 0.857397854
vt 0.0927395523 0.863199592
vt 0.0885884762 0.868370414
vt 0.0845419914 0.873412967
vt 0.0806106478 0.878310859
vt 0.0774421915 0.882259071
vt 0.0734879896 0.88718611
vt 0.0696164072 0.892009079
vt 0.063898243 0.905454695
vt 0.0591363274 0.921322584
vt 0.0585764647 0.925757051
vt 0.0585861318 0.935423255
vt 0.79186064 0.800495505
vt 0.797442555 0.764947355
vt 0.802715242 0.731367648
vt 0.802842379 0.708669066
vt 0.803053081 0.670974553
vt 0.803268611 0.6324476
vt 0.803452432 0.599609375
vt 0.800374269 0.599609375
vt 0.796342313 0.637618184
vt 0.791727781 0.660397053
vt 0.786284328 0.647848845
vt 0.781775475 0.66467011
vt 0.775878906 0.668312311
vt 0.777786851 0.683505416
vt 0.781903505 0.703654528
vt 0.785831809 0.722882271
vt 0.78928715 0.739794552
vt 0.78774339 0.767277896
vt 0.786184669 0.795023561
vt 0.784983575 0.81640625
vt 0.786107659 0.81640625
vt 0.78742367 0.81640625
vt 0.788301349 0.81640625
vt 0.78936249 0.81640625
vt 0.794717312 0.723441601
vt 0.791167915 0.734129667
vt 0.797543645 0.726242602
vt 0.787373841 0.795817077
vt 0.789118111 0.767460048
vt 0.78901273 0.796150923
vt 0.791306138 0.766920209
vt 0.790172756 0.798147619
vt 0.793694377 0.763794005
vt 0.788669467 0.715654254
vt 0.785281837 0.69060117
vt 0.794048965 0.709349811
vt 0.792891204 0.684927642
vt 0.797313154 0.709237039
vt 0.796900213 0.678770602
vt 0.756544352 0.557408452
vt 0.755754054 0.525439501
vt 0.755069673 0.49775219
vt 0.75848031 0.486338824
vt 0.768010914 0.460132182
vt 0.775878906 0.44722259
vt 0.775878906 0.421501338
vt 0.764979541 0.419383854
vt 0.750985026 0.4018341
vt 0.748639822 0.419989496
vt 0.740499973 0.398676842
vt 0.730712056 0.373046875
vt 0.729003906 0.373046875
vt 0.729003906 0.3891249
vt 0.730716228 0.434695929
vt 0.732229352 0.474949956
vt 0.733586431 0.511067033
vt 0.739352524 0.536071301
vt 0.747121572 0.56976366
vt 0.753103256 0.595703125
vt 0.755069673 0.595703125
vt 0.757490754 0.595703125
vt 0.740924239 0.495634735
vt 0.748034716 0.50410682
vt 0.751006067 0.566958189
vt 0.752710938 0.564989924
vt 0.745696068 0.529391646
vt 0.749787331 0.526926816
vt 0.752842665 0.480066597
vt 0.759500325 0.446781725
vt 0.748484194 0.441622764
vt 0.748225451 0.477612942
vt 0.740816891 0.471075743
vt 0.740662217 0.435693443
vt 0.208007812 0.79296875
vt 0.181640625 0.79296875
vt 0.208007812 0.72265625
vt 0.181640625 0.72265625
vt 0.830078125 0.697265625
vt 0.8046875 0.697265625
vt 0.830078125 0.578125
vt 0.8046875 0.578125
g Skeleton Prefab Mesh "HD_ZHG_003"_0
f 4/4/4 3/3/3 31/31/31
f 4/4/4 31/31/31 32/32/32
f 31/31/31 9/9/9 8/8/8
f 32/32/32 31/31/31 8/8/8
f 32/32/32 7/7/7 6/6/6
f 7/7/7 32/32/32 8/8/8
f 6/6/6 5/5/5 32/32/32
f 32/32/32 5/5/5 4/4/4
f 21/21/21 13/13/13 12/12/12
f 30/30/30 29/29/29 28/28/28
f 20/20/20 14/14/14 13/13/13
f 30/30/30 28/28/28 10/10/10
f 12/12/12 28/28/28 22/22/22
f 12/12/12 11/11/11 28/28/28
f 28/28/28 11/11/11 10/10/10
f 10/10/10 9/9/9 31/31/31
f 1/1/1 29/29/29 30/30/30
f 2/2/2 1/1/1 30/30/30
f 2/2/2 30/30/30 31/31/31
f 3/3/3 2/2/2 31/31/31
f 31/31/31 30/30/30 10/10/10
f 29/29/29 27/27/27 28/28/28
f 27/27/27 22/22/22 28/28/28
f 25/25/25 29/29/29 26/26/26
f 29/29/29 25/25/25 27/27/27
f 27/27/27 25/25/25 24/24/24
f 29/29/29 1/1/1 26/26/26
f 24/24/24 23/23/23 22/22/22
f 24/24/24 22/22/22 27/27/27
f 21/21/21 12/12/12 22/22/22
f 20/20/20 13/13/13 21/21/21
f 17/17/17 16/16/16 15/15/15
f 18/18/18 17/17/17 19/19/19
f 17/17/17 15/15/15 19/19/19
f 20/20/20 19/19/19 14/14/14
f 14/14/14 19/19/19 15/15/15
f 42/42/42 71/71/71 43/43/43
f 71/71/71 62/62/62 50/50/50
f 71/71/71 50/50/50 49/49/49
f 71/71/71 44/44/44 43/43/43
f 44/44/44 71/71/71 63/63/63
f 63/63/63 71/71/71 49/49/49
f 63/63/63 49/49/49 48/48/48
f 48/48/48 47/47/47 46/46/46
f 48/48/48 46/46/46 63/63/63
f 44/44/44 63/63/63 45/45/45
f 45/45/45 63/63/63 46/46/46
f 60/60/60 42/42/42 72/72/72
f 42/42/42 60/60/60 62/62/62
f 38/38/38 60/60/60 72/72/72
f 60/60/60 38/38/38 37/37/37
f 72/72/72 42/42/42 41/41/41
f 62/62/62 71/71/71 42/42/42
f 72/72/72 41/41/41 40/40/40
f 38/38/38 72/72/72 39/39/39
f 39/39/39 72/72/72 40/40/40
f 61/61/61 52/52/52 51/51/51
f 70/70/70 61/61/61 51/51/51
f 70/70/70 62/62/62 60/60/60
f 51/51/51 50/50/50 62/62/62
f 70/70/70 51/51/51 62/62/62
f 66/66/66 61/61/61 59/59/59
f 64/64/64 59/59/59 69/69/69
f 68/68/68 64/64/64 69/69/69
f 59/59/59 61/61/61 70/70/70
f 69/69/69 59/59/59 70/70/70
f 68/68/68 69/69/69 60/60/60
f 68/68/68 60/60/60 37/37/37
f 69/69/69 70/70/70 60/60/60
f 56/56/56 55/55/55 66/66/66
f 54/54/54 67/67/67 55/55/55
f 65/65/65 56/56/56 66/66/66
f 67/67/67 66/66/66 55/55/55
f 64/64/64 65/65/65 66/66/66
f 64/64/64 66/66/66 59/59/59
f 66/66/66 67/67/67 61/61/61
f 53/53/53 67/67/67 54/54/54
f 67/67/67 53/53/53 52/52/52
f 67/67/67 52/52/52 61/61/61
f 33/33/33 58/58/58 65/65/65
f 65/65/65 58/58/58 57/57/57
f 65/65/65 57/57/57 56/56/56
f 34/34/34 33/33/33 64/64/64
f 64/64/64 33/33/33 65/65/65
f 34/34/34 64/64/64 68/68/68
f 35/35/35 34/34/34 68/68/68
f 35/35/35 68/68/68 36/36/36
f 68/68/68 37/37/37 36/36/36
f 74/74/74 94/94/94 75/75/75
f 74/74/74 95/95/95 94/94/94
f 73/73/73 95/95/95 74/74/74
f 73/73/73 96/96/96 95/95/95
f 75/75/75 99/99/99 76/76/76
f 75/75/75 94/94/94 99/99/99
f 77/77/77 98/98/98 78/78/78
f 76/76/76 101/101/101 77/77/77
f 78/78/78 102/102/102 79/79/79
f 79/79/79 97/97/97 80/80/80
f 80/80/80 103/103/103 81/81/81
f 92/92/92 90/90/90 89/89/89
f 91/91/91 90/90/90 92/92/92
f 99/99/99 92/92/92 89/89/89
f 88/88/88 87/87/87 98/98/98
f 89/89/89 88/88/88 101/101/101
f 86/86/86 85/85/85 97/97/97
f 87/87/87 86/86/86 102/102/102
f 103/103/103 85/85/85 84/84/84
f 103/103/103 84/84/84 83/83/83
f 94/94/94 100/100/100 99/99/99
f 100/100/100 92/92/92 99/99/99
f 92/92/92 100/100/100 93/93/93
f 94/94/94 93/93/93 100/100/100
f 101/101/101 88/88/88 98/98/98
f 77/77/77 101/101/101 98/98/98
f 76/76/76 99/99/99 101/101/101
f 99/99/99 89/89/89 101/101/101
f 102/102/102 86/86/86 97/97/97
f 79/79/79 102/102/102 97/97/97
f 98/98/98 87/87/87 102/102/102
f 78/78/78 98/98/98 102/102/102
f 81/81/81 103/103/103 82/82/82
f 103/103/103 83/83/83 82/82/82
f 97/97/97 85/85/85 103/103/103
f 80/80/80 97/97/97 103/103/103
f 133/133/133 143/143/143 142/142/142
f 144/144/144 143/143/143 133/133/133
f 133/133/133 145/145/145 144/144/144
f 133/133/133 142/142/142 140/140/140
f 133/133/133 146/146/146 145/145/145
f 139/139/139 133/133/133 140/140/140
f 133/133/133 147/147/147 146/146/146
f 135/135/135 147/147/147 133/133/133
f 139/139/139 138/138/138 133/133/133
f 138/138/138 137/137/137 133/133/133
f 137/137/137 136/136/136 133/133/133
f 136/136/136 135/135/135 133/133/133
f 140/140/140 142/142/142 141/141/141
f 135/135/135 134/134/134 147/147/147
f 145/145/145 124/124/124 123/123/123
f 125/125/125 145/145/145 126/126/126
f 125/125/125 124/124/124 145/145/145
f 141/141/141 114/114/114 113/113/113
f 140/140/140 141/141/141 110/110/110
f 146/146/146 147/147/147 127/127/127
f 147/147/147 128/128/128 127/127/127
f 117/117/117 115/115/115 114/114/114
f 119/119/119 144/144/144 120/120/120
f 118/118/118 143/143/143 119/119/119
f 143/143/143 144/144/144 119/119/119
f 117/117/117 116/116/116 115/115/115
f 117/117/117 142/142/142 118/118/118
f 142/142/142 143/143/143 118/118/118
f 141/141/141 117/117/117 114/114/114
f 141/141/141 142/142/142 117/117/117
f 107/107/107 138/138/138 139/139/139
f 134/134/134 128/128/128 147/147/147
f 107/107/107 106/106/106 138/138/138
f 105/105/105 137/137/137 106/106/106
f 137/137/137 138/138/138 106/106/106
f 134/134/134 129/129/129 128/128/128
f 134/134/134 130/130/130 129/129/129
f 135/135/135 130/130/130 134/134/134
f 105/105/105 104/104/104 137/137/137
f 104/104/104 136/136/136 137/137/137
f 135/135/135 131/131/131 130/130/130
f 136/136/136 131/131/131 135/135/135
f 104/104/104 132/132/132 136/136/136
f 132/132/132 131/131/131 136/136/136
f 120/120/120 122/122/122 121/121/121
f 120/120/120 123/123/123 122/122/122
f 144/144/144 123/123/123 120/120/120
f 144/144/144 145/145/145 123/123/123
f 145/145/145 146/146/146 126/126/126
f 146/146/146 127/127/127 126/126/126
f 113/113/113 112/112/112 141/141/141
f 141/141/141 112/112/112 111/111/111
f 110/110/110 141/141/141 111/111/111
f 139/139/139 110/110/110 109/109/109
f 139/139/139 140/140/140 110/110/110
f 109/109/109 108/108/108 139/139/139
f 108/108/108 107/107/107 139/139/139
f 162/162/162 221/221/221 163/163/163
f 161/161/161 242/242/242 162/162/162
f 162/162/162 242/242/242 221/221/221
f 161/161/161 219/219/219 242/242/242
f 161/161/161 160/160/160 219/219/219
f 159/159/159 158/158/158 238/238/238
f 158/158/158 217/217/217 238/238/238
f 159/159/159 238/238/238 219/219/219
f 160/160/160 159/159/159 219/219/219
f 158/158/158 157/157/157 217/217/217
f 157/157/157 237/237/237 217/217/217
f 157/157/157 156/156/156 237/237/237
f 156/156/156 214/214/214 237/237/237
f 156/156/156 155/155/155 214/214/214
f 154/154/154 211/211/211 234/234/234
f 155/155/155 154/154/154 234/234/234
f 155/155/155 234/234/234 214/214/214
f 154/154/154 153/153/153 211/211/211
f 153/153/153 229/229/229 211/211/211
f 152/152/152 208/208/208 229/229/229
f 153/153/153 152/152/152 229/229/229
f 151/151/151 228/228/228 208/208/208
f 150/150/150 205/205/205 228/228/228
f 151/151/151 150/150/150 228/228/228
f 152/152/152 151/151/151 208/208/208
f 148/148/148 200/200/200 225/225/225
f 148/148/148 199/199/199 200/200/200
f 149/149/149 148/148/148 225/225/225
f 149/149/149 225/225/225 205/205/205
f 150/150/150 149/149/149 205/205/205
f 163/163/163 221/221/221 222/222/222
f 220/220/220 168/168/168 167/167/167
f 222/222/222 167/167/167 166/166/166
f 164/164/164 222/222/222 243/243/243
f 222/222/222 166/166/166 243/243/243
f 221/221/221 220/220/220 222/222/222
f 222/222/222 220/220/220 167/167/167
f 164/164/164 243/243/243 165/165/165
f 165/165/165 243/243/243 166/166/166
f 163/163/163 222/222/222 164/164/164
f 220/220/220 241/241/241 168/168/168
f 241/241/241 169/169/169 168/168/168
f 242/242/242 241/241/241 220/220/220
f 219/219/219 218/218/218 241/241/241
f 241/241/241 218/218/218 169/169/169
f 218/218/218 170/170/170 169/169/169
f 242/242/242 219/219/219 241/241/241
f 221/221/221 242/242/242 220/220/220
f 238/238/238 217/217/217 239/239/239
f 219/219/219 238/238/238 218/218/218
f 238/238/238 239/239/239 218/218/218
f 217/217/217 216/216/216 239/239/239
f 215/215/215 240/240/240 239/239/239
f 239/239/239 240/240/240 170/170/170
f 216/216/216 215/215/215 239/239/239
f 218/218/218 239/239/239 170/170/170
f 237/237/237 214/214/214 236/236/236
f 237/237/237 236/236/236 216/216/216
f 216/216/216 235/235/235 215/215/215
f 214/214/214 213/213/213 236/236/236
f 216/216/216 236/236/236 235/235/235
f 236/236/236 213/213/213 212/212/212
f 236/236/236 212/212/212 235/235/235
f 217/217/217 237/237/237 216/216/216
f 234/234/234 211/211/211 233/233/233
f 234/234/234 233/233/233 213/213/213
f 213/213/213 232/232/232 212/212/212
f 233/233/233 210/210/210 209/209/209
f 233/233/233 209/209/209 232/232/232
f 211/211/211 210/210/210 233/233/233
f 213/213/213 233/233/233 232/232/232
f 214/214/214 234/234/234 213/213/213
f 229/229/229 230/230/230 210/210/210
f 210/210/210 231/231/231 209/209/209
f 208/208/208 207/207/207 230/230/230
f 210/210/210 230/230/230 231/231/231
f 230/230/230 206/206/206 231/231/231
f 230/230/230 207/207/207 206/206/206
f 211/211/211 229/229/229 210/210/210
f 229/229/229 208/208/208 230/230/230
f 205/205/205 225/225/225 204/204/204
f 228/228/228 227/227/227 207/207/207
f 207/207/207 226/226/226 206/206/206
f 205/205/205 204/204/204 227/227/227
f 207/207/207 227/227/227 226/226/226
f 227/227/227 203/203/203 226/226/226
f 227/227/227 204/204/204 203/203/203
f 228/228/228 205/205/205 227/227/227
f 208/208/208 228/228/228 207/207/207
f 200/200/200 199/199/199 201/201/201
f 204/204/204 223/223/223 203/203/203
f 204/204/204 224/224/224 223/223/223
f 201/201/201 202/202/202 224/224/224
f 198/198/198 197/197/197 201/201/201
f 199/199/199 198/198/198 201/201/201
f 197/197/197 202/202/202 201/201/201
f 200/200/200 201/201/201 224/224/224
f 202/202/202 223/223/223 224/224/224
f 225/225/225 224/224/224 204/204/204
f 225/225/225 200/200/200 224/224/224
f 172/172/172 181/181/181 173/173/173
f 181/181/181 180/180/180 174/174/174
f 174/174/174 180/180/180 179/179/179
f 174/174/174 179/179/179 175/175/175
f 175/175/175 179/179/179 178/178/178
f 178/178/178 177/177/177 176/176/176
f 178/178/178 176/176/176 175/175/175
f 181/181/181 174/174/174 173/173/173
f 172/172/172 182/182/182 181/181/181
f 171/171/171 183/183/183 182/182/182
f 171/171/171 182/182/182 172/172/172
f 170/170/170 183/183/183 171/171/171
f 215/215/215 185/185/185 240/240/240
f 184/184/184 183/183/183 170/170/170
f 185/185/185 184/184/184 240/240/240
f 240/240/240 184/184/184 170/170/170
f 235/235/235 186/186/186 215/215/215
f 212/212/212 187/187/187 186/186/186
f 186/186/186 185/185/185 215/215/215
f 212/212/212 186/186/186 235/235/235
f 232/232/232 188/188/188 187/187/187
f 209/209/209 189/189/189 188/188/188
f 209/209/209 188/188/188 232/232/232
f 232/232/232 187/187/187 212/212/212
f 231/231/231 206/206/206 191/191/191
f 209/209/209 190/190/190 189/189/189
f 231/231/231 191/191/191 190/190/190
f 209/209/209 231/231/231 190/190/190
f 192/192/192 191/191/191 206/206/206
f 193/193/193 192/192/192 226/226/226
f 203/203/203 193/193/193 226/226/226
f 226/226/226 192/192/192 206/206/206
f 197/197/197 196/196/196 202/202/202
f 202/202/202 196/196/196 195/195/195
f 195/195/195 194/194/194 223/223/223
f 202/202/202 195/195/195 223/223/223
f 194/194/194 193/193/193 203/203/203
f 223/223/223 194/194/194 203/203/203
f 245/245/245 246/246/246 244/244/244
f 245/245/245 247/247/247 246/246/246
f 249/249/249 250/250/250 248/248/248
f 249/249/249 251/251/251 250/250/250
f 253/253/253 254/254/254 252/252/252
f 253/253/253 255/255/255 254/254/254
f 257/257/257 258/258/258 256/256/256
f 257/257/257 259/259/259 258/258/258
f 261/261/261 262/262/262 260/260/260
f 261/261/261 263/263/263 262/262/262
f 265/265/265 266/266/266 264/264/264
f 265/265/265 267/267/267 266/266/266
f 269/269/269 270/270/270 268/268/268
f 269/269/269 271/271/271 270/270/270
f 273/273/273 274/274/274 272/272/272
f 273/273/273 275/275/275 274/274/274
f 288/288/288 294/294/294 289/289/289
f 289/289/289 294/294/294 293/293/293
f 292/292/292 291/291/291 290/290/290
f 289/289/289 293/293/293 290/290/290
f 293/293/293 292/292/292 290/290/290
f 298/298/298 297/297/297 286/286/286
f 296/296/296 287/287/287 297/297/297
f 287/287/287 296/296/296 294/294/294
f 294/294/294 296/296/296 295/295/295
f 297/297/297 287/287/287 286/286/286
f 287/287/287 294/294/294 288/288/288
f 283/283/283 300/300/300 299/299/299
f 299/299/299 284/284/284 283/283/283
f 285/285/285 299/299/299 298/298/298
f 299/299/299 285/285/285 284/284/284
f 298/298/298 286/286/286 285/285/285
f 309/309/309 308/308/308 306/306/306
f 306/306/306 308/308/308 307/307/307
f 276/276/276 309/309/309 311/311/311
f 311/311/311 309/309/309 306/306/306
f 311/311/311 306/306/306 305/305/305
f 277/277/277 276/276/276 310/310/310
f 310/310/310 276/276/276 311/311/311
f 278/278/278 277/277/277 310/310/310
f 282/282/282 302/302/302 301/301/301
f 282/282/282 301/301/301 300/300/300
f 280/280/280 303/303/303 302/302/302
f 304/304/304 312/312/312 305/305/305
f 303/303/303 280/280/280 304/304/304
f 279/279/279 278/278/278 310/310/310
f 279/279/279 310/310/310 312/312/312
f 310/310/310 305/305/305 312/312/312
f 305/305/305 310/310/310 311/311/311
f 313/313/313 312/312/312 304/304/304
f 304/304/304 280/280/280 313/313/313
f 279/279/279 312/312/312 313/313/313
f 279/279/279 313/313/313 280/280/280
f 302/302/302 281/281/281 280/280/280
f 302/302/302 282/282/282 281/281/281
f 300/300/300 283/283/283 282/282/282
f 336/336/336 338/338/338 337/337/337
f 335/335/335 338/338/338 336/336/336
f 335/335/335 339/339/339 338/338/338
f 334/334/334 339/339/339 335/335/335
f 334/334/334 340/340/340 339/339/339
f 333/333/333 340/340/340 334/334/334
f 333/333/333 341/341/341 340/340/340
f 332/332/332 341/341/341 333/333/333
f 331/331/331 341/341/341 332/332/332
f 329/329/329 341/341/341 331/331/331
f 329/329/329 342/342/342 341/341/341
f 331/331/331 330/330/330 329/329/329
f 329/329/329 328/328/328 342/342/342
f 328/328/328 343/343/343 342/342/342
f 328/328/328 327/327/327 343/343/343
f 327/327/327 344/344/344 343/343/343
f 327/327/327 326/326/326 344/344/344
f 326/326/326 345/345/345 344/344/344
f 326/326/326 398/398/398 345/345/345
f 398/398/398 346/346/346 345/345/345
f 398/398/398 326/326/326 325/325/325
f 398/398/398 325/325/325 346/346/346
f 325/325/325 347/347/347 346/346/346
f 325/325/325 324/324/324 347/347/347
f 324/324/324 348/348/348 347/347/347
f 348/348/348 409/409/409 349/349/349
f 408/408/408 409/409/409 407/407/407
f 324/324/324 323/323/323 348/348/348
f 348/348/348 407/407/407 409/409/409
f 348/348/348 401/401/401 407/407/407
f 323/323/323 401/401/401 348/348/348
f 406/406/406 407/407/407 401/401/401
f 322/322/322 385/385/385 323/323/323
f 400/400/400 401/401/401 323/323/323
f 321/321/321 387/387/387 322/322/322
f 321/321/321 320/320/320 387/387/387
f 373/373/373 375/375/375 374/374/374
f 372/372/372 375/375/375 373/373/373
f 372/372/372 376/376/376 375/375/375
f 371/371/371 376/376/376 372/372/372
f 371/371/371 377/377/377 376/376/376
f 370/370/370 377/377/377 371/371/371
f 370/370/370 378/378/378 377/377/377
f 369/369/369 378/378/378 370/370/370
f 369/369/369 379/379/379 378/378/378
f 368/368/368 379/379/379 369/369/369
f 368/368/368 380/380/380 379/379/379
f 367/367/367 380/380/380 368/368/368
f 367/367/367 381/381/381 380/380/380
f 366/366/366 381/381/381 367/367/367
f 366/366/366 382/382/382 381/381/381
f 365/365/365 382/382/382 366/366/366
f 365/365/365 383/383/383 382/382/382
f 364/364/364 383/383/383 365/365/365
f 364/364/364 384/384/384 383/383/383
f 363/363/363 384/384/384 364/364/364
f 363/363/363 385/385/385 384/384/384
f 362/362/362 402/402/402 363/363/363
f 402/402/402 404/404/404 363/363/363
f 404/404/404 399/399/399 363/363/363
f 399/399/399 385/385/385 363/363/363
f 405/405/405 399/399/399 404/404/404
f 400/400/400 385/385/385 399/399/399
f 323/323/323 385/385/385 400/400/400
f 385/385/385 322/322/322 386/386/386
f 387/387/387 386/386/386 322/322/322
f 352/352/352 354/354/354 353/353/353
f 352/352/352 355/355/355 354/354/354
f 351/351/351 355/355/355 352/352/352
f 351/351/351 356/356/356 355/355/355
f 350/350/350 356/356/356 351/351/351
f 350/350/350 357/357/357 356/356/356
f 349/349/349 357/357/357 350/350/350
f 357/357/357 349/349/349 409/409/409
f 408/408/408 357/357/357 409/409/409
f 359/359/359 361/361/361 360/360/360
f 359/359/359 362/362/362 361/361/361
f 358/358/358 362/362/362 359/359/359
f 358/358/358 402/402/402 362/362/362
f 357/357/357 403/403/403 358/358/358
f 403/403/403 402/402/402 358/358/358
f 403/403/403 404/404/404 402/402/402
f 405/405/405 404/404/404 403/403/403
f 315/315/315 314/314/314 397/397/397
f 314/314/314 394/394/394 397/397/397
f 314/314/314 396/396/396 394/394/394
f 396/396/396 395/395/395 394/394/394
f 318/318/318 390/390/390 319/319/319
f 318/318/318 391/391/391 390/390/390
f 317/317/317 391/391/391 318/318/318
f 392/392/392 317/317/317 316/316/316
f 392/392/392 391/391/391 317/317/317
f 316/316/316 397/397/397 392/392/392
f 315/315/315 397/397/397 316/316/316
f 397/397/397 393/393/393 392/392/392
f 397/397/397 394/394/394 393/393/393
f 357/357/357 408/408/408 403/403/403
f 406/406/406 405/405/405 408/408/408
f 405/405/405 403/403/403 408/408/408
f 406/406/406 400/400/400 405/405/405
f 400/400/400 399/399/399 405/405/405
f 406/406/406 408/408/408 407/407/407
f 400/400/400 406/406/406 401/401/401
f 320/320/320 388/388/388 387/387/387
f 320/320/320 389/389/389 388/388/388
f 319/319/319 389/389/389 320/320/320
f 319/319/319 390/390/390 389/389/389
f 411/411/411 412/412/412 410/410/410
f 411/411/411 413/413/413 412/412/412
f 424/424/424 423/423/423 463/463/463
f 424/424/424 463/463/463 481/481/481
f 425/425/425 424/424/424 481/481/481
f 425/425/425 481/481/481 426/426/426
f 422/422/422 421/421/421 462/462/462
f 422/422/422 462/462/462 478/478/478
f 423/423/423 422/422/422 478/478/478
f 423/423/423 478/478/478 463/463/463
f 420/420/420 419/419/419 461/461/461
f 420/420/420 461/461/461 475/475/475
f 421/421/421 420/420/420 475/475/475
f 421/421/421 475/475/475 462/462/462
f 418/418/418 417/417/417 460/460/460
f 418/418/418 460/460/460 472/472/472
f 419/419/419 418/418/418 472/472/472
f 419/419/419 472/472/472 461/461/461
f 416/416/416 415/415/415 459/459/459
f 416/416/416 459/459/459 469/469/469
f 417/417/417 416/416/416 469/469/469
f 417/417/417 469/469/469 460/460/460
f 414/414/414 448/448/448 466/466/466
f 466/466/466 448/448/448 447/447/447
f 466/466/466 459/459/459 415/415/415
f 414/414/414 466/466/466 415/415/415
f 445/445/445 465/465/465 446/446/446
f 466/466/466 447/447/447 465/465/465
f 446/446/446 465/465/465 447/447/447
f 445/445/445 464/464/464 465/465/465
f 465/465/465 449/449/449 459/459/459
f 466/466/466 465/465/465 459/459/459
f 465/465/465 464/464/464 454/454/454
f 449/449/449 465/465/465 454/454/454
f 469/469/469 459/459/459 449/449/449
f 469/469/469 449/449/449 468/468/468
f 449/449/449 454/454/454 467/467/467
f 468/468/468 449/449/449 467/467/467
f 460/460/460 469/469/469 468/468/468
f 460/460/460 468/468/468 450/450/450
f 468/468/468 467/467/467 455/455/455
f 450/450/450 468/468/468 455/455/455
f 472/472/472 460/460/460 450/450/450
f 472/472/472 450/450/450 471/471/471
f 461/461/461 472/472/472 471/471/471
f 450/450/450 455/455/455 470/470/470
f 471/471/471 450/450/450 470/470/470
f 461/461/461 471/471/471 451/451/451
f 471/471/471 470/470/470 456/456/456
f 451/451/451 471/471/471 456/456/456
f 475/475/475 461/461/461 451/451/451
f 475/475/475 451/451/451 474/474/474
f 462/462/462 475/475/475 474/474/474
f 451/451/451 456/456/456 473/473/473
f 474/474/474 451/451/451 473/473/473
f 474/474/474 473/473/473 457/457/457
f 462/462/462 474/474/474 452/452/452
f 478/478/478 462/462/462 452/452/452
f 452/452/452 474/474/474 457/457/457
f 478/478/478 452/452/452 477/477/477
f 463/463/463 478/478/478 477/477/477
f 452/452/452 457/457/457 476/476/476
f 477/477/477 452/452/452 476/476/476
f 463/463/463 477/477/477 453/453/453
f 481/481/481 463/463/463 453/453/453
f 477/477/477 476/476/476 458/458/458
f 453/453/453 477/477/477 458/458/458
f 453/453/453 458/458/458 479/479/479
f 481/481/481 453/453/453 480/480/480
f 426/426/426 481/481/481 480/480/480
f 480/480/480 453/453/453 479/479/479
f 480/480/480 479/479/479 430/430/430
f 426/426/426 480/480/480 427/427/427
f 480/480/480 430/430/430 429/429/429
f 480/480/480 429/429/429 428/428/428
f 480/480/480 428/428/428 427/427/427
f 458/458/458 434/434/434 433/433/433
f 479/479/479 458/458/458 433/433/433
f 432/432/432 431/431/431 433/433/433
f 433/433/433 431/431/431 479/479/479
f 431/431/431 430/430/430 479/479/479
f 457/457/457 436/436/436 435/435/435
f 476/476/476 457/457/457 435/435/435
f 476/476/476 435/435/435 434/434/434
f 458/458/458 476/476/476 434/434/434
f 456/456/456 438/438/438 437/437/437
f 473/473/473 456/456/456 437/437/437
f 473/473/473 437/437/437 436/436/436
f 457/457/457 473/473/473 436/436/436
f 455/455/455 440/440/440 439/439/439
f 470/470/470 455/455/455 439/439/439
f 470/470/470 439/439/439 438/438/438
f 456/456/456 470/470/470 438/438/438
f 454/454/454 442/442/442 441/441/441
f 467/467/467 454/454/454 441/441/441
f 467/467/467 441/441/441 440/440/440
f 455/455/455 467/467/467 440/440/440
f 445/445/445 444/444/444 464/464/464
f 464/464/464 444/444/444 443/443/443
f 464/464/464 443/443/443 442/442/442
f 454/454/454 464/464/464 442/442/442
f 526/526/526 535/535/535 489/489/489
f 535/535/535 490/490/490 489/489/489
f 488/488/488 526/526/526 489/489/489
f 488/488/488 487/487/487 526/526/526
f 526/526/526 525/525/525 535/535/535
f 525/525/525 534/534/534 535/535/535
f 487/487/487 486/486/486 526/526/526
f 486/486/486 525/525/525 526/526/526
f 525/525/525 524/524/524 534/534/534
f 485/485/485 525/525/525 486/486/486
f 485/485/485 524/524/524 525/525/525
f 524/524/524 533/533/533 534/534/534
f 524/524/524 523/523/523 533/533/533
f 485/485/485 484/484/484 524/524/524
f 484/484/484 523/523/523 524/524/524
f 483/483/483 523/523/523 484/484/484
f 523/523/523 532/532/532 533/533/533
f 523/523/523 515/515/515 532/532/532
f 515/515/515 531/531/531 532/532/532
f 483/483/483 515/515/515 523/523/523
f 515/515/515 528/528/528 531/531/531
f 528/528/528 530/530/530 531/531/531
f 482/482/482 528/528/528 483/483/483
f 528/528/528 515/515/515 483/483/483
f 528/528/528 529/529/529 530/530/530
f 529/529/529 516/516/516 530/530/530
f 528/528/528 527/527/527 529/529/529
f 482/482/482 517/517/517 528/528/528
f 517/517/517 527/527/527 528/528/528
f 505/505/505 516/516/516 529/529/529
f 505/505/505 504/504/504 516/516/516
f 504/504/504 538/538/538 516/516/516
f 527/527/527 507/507/507 529/529/529
f 507/507/507 506/506/506 529/529/529
f 506/506/506 505/505/505 529/529/529
f 504/504/504 503/503/503 538/538/538
f 517/517/517 508/508/508 527/527/527
f 508/508/508 507/507/507 527/527/527
f 508/508/508 517/517/517 482/482/482
f 509/509/509 540/540/540 510/510/510
f 532/532/532 531/531/531 509/509/509
f 509/509/509 539/539/539 540/540/540
f 531/531/531 518/518/518 509/509/509
f 518/518/518 539/539/539 509/509/509
f 531/531/531 530/530/530 518/518/518
f 516/516/516 539/539/539 518/518/518
f 530/530/530 516/516/516 518/518/518
f 533/533/533 532/532/532 510/510/510
f 510/510/510 540/540/540 541/541/541
f 532/532/532 509/509/509 510/510/510
f 534/534/534 533/533/533 511/511/511
f 533/533/533 510/510/510 511/511/511
f 510/510/510 541/541/541 511/511/511
f 535/535/535 534/534/534 512/512/512
f 534/534/534 511/511/511 512/512/512
f 512/512/512 542/542/542 543/543/543
f 511/511/511 542/542/542 512/512/512
f 511/511/511 541/541/541 542/542/542
f 535/535/535 513/513/513 490/490/490
f 535/535/535 512/512/512 513/513/513
f 513/513/513 543/543/543 544/544/544
f 512/512/512 543/543/543 513/513/513
f 513/513/513 491/491/491 490/490/490
f 491/491/491 544/544/544 492/492/492
f 513/513/513 544/544/544 491/491/491
f 492/492/492 522/522/522 493/493/493
f 544/544/544 522/522/522 492/492/492
f 522/522/522 494/494/494 493/493/493
f 522/522/522 495/495/495 494/494/494
f 544/544/544 521/521/521 522/522/522
f 521/521/521 495/495/495 522/522/522
f 521/521/521 496/496/496 495/495/495
f 543/543/543 521/521/521 544/544/544
f 543/543/543 520/520/520 521/521/521
f 520/520/520 496/496/496 521/521/521
f 520/520/520 497/497/497 496/496/496
f 542/542/542 520/520/520 543/543/543
f 542/542/542 519/519/519 520/520/520
f 541/541/541 519/519/519 542/542/542
f 519/519/519 497/497/497 520/520/520
f 498/498/498 497/497/497 519/519/519
f 514/514/514 519/519/519 541/541/541
f 514/514/514 498/498/498 519/519/519
f 540/540/540 514/514/514 541/541/541
f 514/514/514 499/499/499 498/498/498
f 539/539/539 537/537/537 540/540/540
f 537/537/537 514/514/514 540/540/540
f 514/514/514 500/500/500 499/499/499
f 537/537/537 500/500/500 514/514/514
f 538/538/538 539/539/539 516/516/516
f 536/536/536 537/537/537 538/538/538
f 537/537/537 539/539/539 538/538/538
f 537/537/537 501/501/501 500/500/500
f 536/536/536 501/501/501 537/537/537
f 503/503/503 536/536/536 538/538/538
f 503/503/503 502/502/502 536/536/536
f 502/502/502 501/501/501 536/536/536
f 569/569/569 565/565/565 564/564/564
f 564/564/564 563/563/563 568/568/568
f 575/575/575 556/556/556 555/555/555
f 566/566/566 565/565/565 569/569/569
f 574/574/574 555/555/555 554/554/554
f 563/563/563 562/562/562 568/568/568
f 580/580/580 562/562/562 561/561/561
f 579/579/579 561/561/561 560/560/560
f 578/578/578 560/560/560 559/559/559
f 559/559/559 558/558/558 576/576/576
f 575/575/575 558/558/558 557/557/557
f 556/556/556 575/575/575 557/557/557
f 566/566/566 569/569/569 545/545/545
f 546/546/546 545/545/545 570/570/570
f 547/547/547 546/546/546 570/570/570
f 548/548/548 547/547/547 570/570/570
f 549/549/549 548/548/548 570/570/570
f 549/549/549 571/571/571 552/552/552
f 552/552/552 572/572/572 553/553/553
f 553/553/553 573/573/573 554/554/554
f 551/551/551 550/550/550 549/549/549
f 551/551/551 549/549/549 552/552/552
f 568/568/568 580/580/580 569/569/569
f 569/569/569 580/580/580 567/567/567
f 573/573/573 567/567/567 574/574/574
f 567/567/567 575/575/575 574/574/574
f 570/570/570 567/567/567 571/571/571
f 572/572/572 567/567/567 573/573/573
f 571/571/571 567/567/567 572/572/572
f 570/570/570 569/569/569 567/567/567
f 567/567/567 580/580/580 579/579/579
f 567/567/567 579/579/579 578/578/578
f 567/567/567 578/578/578 577/577/577
f 567/567/567 577/577/577 576/576/576
f 567/567/567 576/576/576 575/575/575
f 568/568/568 569/569/569 564/564/564
f 575/575/575 555/555/555 574/574/574
f 554/554/554 573/573/573 574/574/574
f 568/568/568 562/562/562 580/580/580
f 580/580/580 561/561/561 579/579/579
f 579/579/579 560/560/560 578/578/578
f 577/577/577 578/578/578 559/559/559
f 577/577/577 559/559/559 576/576/576
f 576/576/576 558/558/558 575/575/575
f 545/545/545 569/569/569 570/570/570
f 549/549/549 570/570/570 571/571/571
f 552/552/552 571/571/571 572/572/572
f 553/553/553 572/572/572 573/573/573
f 602/602/602 604/604/604 603/603/603
f 602/602/602 605/605/605 604/604/604
f 601/601/601 605/605/605 602/602/602
f 606/606/606 601/601/601 600/600/600
f 606/606/606 605/605/605 601/601/601
f 599/599/599 606/606/606 600/600/600
f 607/607/607 599/599/599 598/598/598
f 607/607/607 606/606/606 599/599/599
f 597/597/597 607/607/607 598/598/598
f 596/596/596 607/607/607 597/597/597
f 607/607/607 596/596/596 595/595/595
f 608/608/608 607/607/607 595/595/595
f 595/595/595 594/594/594 608/608/608
f 594/594/594 609/609/609 608/608/608
f 594/594/594 610/610/610 609/609/609
f 593/593/593 610/610/610 594/594/594
f 611/611/611 610/610/610 593/593/593
f 612/612/612 611/611/611 593/593/593
f 591/591/591 593/593/593 592/592/592
f 612/612/612 593/593/593 591/591/591
f 591/591/591 613/613/613 612/612/612
f 590/590/590 613/613/613 591/591/591
f 589/589/589 613/613/613 590/590/590
f 589/589/589 588/588/588 613/613/613
f 587/587/587 614/614/614 588/588/588
f 614/614/614 613/613/613 588/588/588
f 587/587/587 586/586/586 614/614/614
f 586/586/586 615/615/615 614/614/614
f 586/586/586 585/585/585 615/615/615
f 585/585/585 584/584/584 615/615/615
f 584/584/584 583/583/583 615/615/615
f 618/618/618 620/620/620 619/619/619
f 618/618/618 621/621/621 620/620/620
f 617/617/617 621/621/621 618/618/618
f 616/616/616 625/625/625 624/624/624
f 616/616/616 615/615/615 583/583/583
f 582/582/582 581/581/581 616/616/616
f 582/582/582 616/616/616 583/583/583
f 622/622/622 621/621/621 617/617/617
f 616/616/616 624/624/624 617/617/617
f 624/624/624 622/622/622 617/617/617
f 581/581/581 625/625/625 616/616/616
f 624/624/624 623/623/623 622/622/622
f 651/651/651 656/656/656 655/655/655
f 651/651/651 655/655/655 654/654/654
f 656/656/656 651/651/651 650/650/650
f 652/652/652 651/651/651 653/653/653
f 651/651/651 654/654/654 653/653/653
f 650/650/650 657/657/657 656/656/656
f 650/650/650 658/658/658 657/657/657
f 650/650/650 661/661/661 660/660/660
f 658/658/658 650/650/650 660/660/660
f 660/660/660 659/659/659 658/658/658
f 662/662/662 661/661/661 650/650/650
f 649/649/649 662/662/662 650/650/650
f 648/648/648 662/662/662 649/649/649
f 663/663/663 662/662/662 648/648/648
f 648/648/648 664/664/664 663/663/663
f 647/647/647 664/664/664 648/648/648
f 646/646/646 664/664/664 647/647/647
f 646/646/646 665/665/665 664/664/664
f 645/645/645 665/665/665 646/646/646
f 644/644/644 665/665/665 645/645/645
f 644/644/644 643/643/643 665/665/665
f 643/643/643 666/666/666 665/665/665
f 643/643/643 667/667/667 666/666/666
f 642/642/642 668/668/668 667/667/667
f 669/669/669 668/668/668 642/642/642
f 642/642/642 667/667/667 643/643/643
f 670/670/670 669/669/669 642/642/642
f 672/672/672 671/671/671 640/640/640
f 642/642/642 671/671/671 670/670/670
f 642/642/642 641/641/641 671/671/671
f 640/640/640 671/671/671 641/641/641
f 639/639/639 672/672/672 640/640/640
f 639/639/639 673/673/673 672/672/672
f 638/638/638 673/673/673 639/639/639
f 638/638/638 674/674/674 673/673/673
f 637/637/637 674/674/674 638/638/638
f 637/637/637 675/675/675 674/674/674
f 636/636/636 675/675/675 637/637/637
f 636/636/636 676/676/676 675/675/675
f 635/635/635 676/676/676 636/636/636
f 635/635/635 677/677/677 676/676/676
f 635/635/635 678/678/678 677/677/677
f 632/632/632 634/634/634 633/633/633
f 630/630/630 634/634/634 632/632/632
f 634/634/634 630/630/630 680/680/680
f 635/635/635 634/634/634 680/680/680
f 627/627/627 626/626/626 680/680/680
f 680/680/680 678/678/678 635/635/635
f 630/630/630 632/632/632 631/631/631
f 680/680/680 630/630/630 627/627/627
f 680/680/680 679/679/679 678/678/678
f 628/628/628 627/627/627 629/629/629
f 629/629/629 627/627/627 630/630/630
f 687/687/687 686/686/686 688/688/688
f 686/686/686 689/689/689 688/688/688
f 686/686/686 685/685/685 689/689/689
f 685/685/685 719/719/719 689/689/689
f 685/685/685 684/684/684 719/719/719
f 684/684/684 718/718/718 719/719/719
f 684/684/684 707/707/707 718/718/718
f 684/684/684 683/683/683 707/707/707
f 719/719/719 690/690/690 689/689/689
f 690/690/690 692/692/692 691/691/691
f 719/719/719 717/717/717 690/690/690
f 717/717/717 715/715/715 690/690/690
f 718/718/718 717/717/717 719/719/719
f 716/716/716 717/717/717 718/718/718
f 716/716/716 714/714/714 717/717/717
f 718/718/718 705/705/705 716/716/716
f 707/707/707 705/705/705 718/718/718
f 705/705/705 714/714/714 716/716/716
f 707/707/707 682/682/682 713/713/713
f 683/683/683 682/682/682 707/707/707
f 681/681/681 713/713/713 682/682/682
f 712/712/712 713/713/713 681/681/681
f 712/712/712 711/711/711 713/713/713
f 712/712/712 703/703/703 710/710/710
f 712/712/712 704/704/704 703/703/703
f 681/681/681 704/704/704 712/712/712
f 713/713/713 705/705/705 707/707/707
f 711/711/711 705/705/705 713/713/713
f 706/706/706 705/705/705 711/711/711
f 712/712/712 710/710/710 711/711/711
f 710/710/710 709/709/709 711/711/711
f 710/710/710 703/703/703 702/702/702
f 697/697/697 709/709/709 698/698/698
f 709/709/709 706/706/706 711/711/711
f 709/709/709 697/697/697 706/706/706
f 698/698/698 708/708/708 699/699/699
f 709/709/709 708/708/708 698/698/698
f 709/709/709 710/710/710 708/708/708
f 699/699/699 701/701/701 700/700/700
f 708/708/708 701/701/701 699/699/699
f 710/710/710 702/702/702 708/708/708
f 702/702/702 701/701/701 708/708/708
f 690/690/690 715/715/715 692/692/692
f 692/692/692 694/694/694 693/693/693
f 715/715/715 694/694/694 692/692/692
f 715/715/715 695/695/695 694/694/694
f 717/717/717 714/714/714 715/715/715
f 696/696/696 695/695/695 714/714/714
f 695/695/695 715/715/715 714/714/714
f 705/705/705 706/706/706 714/714/714
f 697/697/697 696/696/696 706/706/706
f 696/696/696 714/714/714 706/706/706
f 733/733/733 731/731/731 730/730/730
f 733/733/733 732/732/732 731/731/731
f 730/730/730 734/734/734 733/733/733
f 753/753/753 734/734/734 730/730/730
f 753/753/753 735/735/735 734/734/734
f 752/752/752 735/735/735 753/753/753
f 742/742/742 735/735/735 752/752/752
f 742/742/742 736/736/736 735/735/735
f 729/729/729 753/753/753 730/730/730
f 749/749/749 729/729/729 728/728/728
f 729/729/729 750/750/750 753/753/753
f 749/749/749 750/750/750 729/729/729
f 750/750/750 752/752/752 753/753/753
f 750/750/750 751/751/751 752/752/752
f 748/748/748 751/751/751 750/750/750
f 751/751/751 742/742/742 752/752/752
f 751/751/751 743/743/743 742/742/742
f 748/748/748 743/743/743 751/751/751
f 742/742/742 737/737/737 736/736/736
f 746/746/746 737/737/737 742/742/742
f 744/744/744 738/738/738 746/746/746
f 738/738/738 737/737/737 746/746/746
f 740/740/740 739/739/739 744/744/744
f 739/739/739 738/738/738 744/744/744
f 743/743/743 746/746/746 742/742/742
f 722/722/722 747/747/747 743/743/743
f 747/747/747 746/746/746 743/743/743
f 745/745/745 744/744/744 747/747/747
f 744/744/744 746/746/746 747/747/747
f 721/721/721 747/747/747 722/722/722
f 720/720/720 747/747/747 721/721/721
f 720/720/720 745/745/745 747/747/747
f 741/741/741 745/745/745 720/720/720
f 740/740/740 745/745/745 741/741/741
f 740/740/740 744/744/744 745/745/745
f 727/727/727 749/749/749 728/728/728
f 725/725/725 727/727/727 726/726/726
f 724/724/724 749/749/749 727/727/727
f 725/725/725 724/724/724 727/727/727
f 749/749/749 748/748/748 750/750/750
f 749/749/749 723/723/723 748/748/748
f 724/724/724 723/723/723 749/749/749
f 723/723/723 722/722/722 748/748/748
f 722/722/722 743/743/743 748/748/748
f 755/755/755 756/756/756 754/754/754
f 755/755/755 757/757/757 756/756/756
f 759/759/759 760/760/760 758/758/758
f 759/759/759 761/761/761 760/760/760
