g GeoSphere002
v 0.0193426087 0.00260046357 0.0902057588
v 0.0363392197 0.0158579033 0.0826411024
v 0.0302079357 0.00260046357 0.0871191472
v 0.0118079511 0.027925862 0.0871191472
v 0.00845038239 0.0175923258 0.0902057588
v 0.0263111964 0.0296602901 0.0826411024
v 0.0644123331 0.00260046357 0.065979667
v 0.0769033507 0.0175923258 0.0478994921
v 0.0720322058 0.00260046357 0.057641793
v 0.0621497259 0.0296602901 0.0604916736
v 0.0576650612 0.0158579033 0.0694610104
v 0.0726410598 0.027925862 0.0495222174
v 0.0329012387 0.0499423631 0.0694610178
v 0.049006395 0.0604561791 0.0495222174
v 0.0474139303 0.0499423631 0.0604916736
v 0.0247323588 0.067703113 0.057641793
v 0.0223776903 0.0604561791 0.065979667
v 0.0404957384 0.067703113 0.0478994921
v -0.0544217154 0.0167238843 0.0715592578
v -0.0661627278 -0.00819355622 0.0625899211
v -0.0661627278 0.00819353946 0.0625899211
v -0.0431442633 -0.0085303504 0.0801744685
v -0.0431442633 0.00853033643 0.0801744685
v -0.0544217154 -0.0167238992 0.0715592653
v 0.00273772678 -0.0597430877 0.0694610178
v -0.00411174586 -0.0777153149 0.0495222174
v -0.00900328252 -0.0682734326 0.0604916736
v 0.0197859947 -0.0693102777 0.057641793
v 0.0174313243 -0.0620633513 0.065979667
v 0.00703315623 -0.0785757601 0.0478994921
v 0.00845038518 -0.0175923258 0.0902057588
v 0.026311202 -0.0296602827 0.0826411024
v 0.0118079558 -0.0279258601 0.0871191472
v 0.0302079357 -0.00260046357 0.0871191472
v 0.0193426087 -0.00260046357 0.0902057588
v 0.0363392197 -0.0158579033 0.0826411024
v 0.0883642733 -0.00926548149 0.0249776542
v 0.0912325904 -0.00853034575 0.00232592551
v 0.0895346254 -0.0156519599 0.0157350544
v 0.0895346403 0.0156519581 0.0157350544
v 0.0883642733 0.0092654787 0.0249776542
v 0.0912325904 0.00853034202 0.00232592551
v 0.0361180566 0.0811762214 0.0249776542
v 0.0363052599 0.0841313228 0.00232592551
v 0.0425536223 0.0803157762 0.0157350544
v 0.0127818249 0.0899892151 0.0157350563
v 0.0184940659 0.0869026035 0.0249776542
v 0.0200795829 0.0894033685 0.00232592551
v 0.0596558228 0.0678903013 -0.0184693448
v 0.0527205504 0.0620356128 -0.043475315
v 0.0624628514 0.0620356128 -0.0277119409
v 0.0379988439 0.0763842687 -0.0335125998
v 0.0469681807 0.0763842687 -0.01899991
v 0.0431983769 0.0678903013 -0.045098044
v -0.0660420954 0.0594351441 0.0249776542
v -0.0687947124 0.0605263636 0.00232592551
v -0.0632350594 0.0652898401 0.0157350544
v -0.081635043 0.03996443 0.0157350544
v -0.0769343153 0.0444432795 0.0249776542
v -0.0788227394 0.046723973 0.00232592551
v -0.0461328588 0.0777153149 -0.018469343
v -0.0427078344 0.0693102777 -0.043475315
v -0.0396972932 0.0785757601 -0.0277119409
v -0.060903471 0.059743084 -0.0335125998
v -0.0581317954 0.0682734326 -0.01899991
v -0.0512184799 0.0620633513 -0.045098044
v -0.0828956142 0.0341889597 -0.01899991
v -0.0748531446 0.0295330323 -0.045098044
v -0.0756392628 0.0394610018 -0.0335125998
v -0.0869971365 0.0134731112 -0.0277119409
v -0.088167496 0.0198595896 -0.0184693448
v -0.0791154429 0.0191994924 -0.043475315
v -0.0769343078 -0.0444432944 0.0249776542
v -0.0788227245 -0.0467239954 0.00232592551
v -0.0816350207 -0.0399644524 0.0157350563
v -0.063235037 -0.0652898625 0.0157350525
v -0.066042088 -0.0594351552 0.0249776542
v -0.0687946901 -0.0605263785 0.00232592551
v -0.0813007653 -0.0383966193 -0.0166739859
v -0.0644123256 -0.0569261014 -0.0311866775
v -0.0740444288 -0.043668665 -0.0311866775
v -0.0686104894 -0.0603925586 -0.00273428974
v -0.0786385238 -0.046590168 -0.00273428974
v -0.0616406538 -0.06545645 -0.0166739859
v -0.0581317768 -0.0682734475 -0.0189999137
v -0.0512184687 -0.0620633699 -0.0450980477
v -0.0609034523 -0.0597431064 -0.0335126035
v -0.0396972671 -0.078575775 -0.0277119465
v -0.0461328328 -0.0777153298 -0.0184693448
v -0.0427078046 -0.0693103001 -0.0434753224
v 0.0184940808 -0.0869026035 0.0249776505
v 0.0200796053 -0.0894033685 0.00232592551
v 0.0127818445 -0.0899892151 0.0157350563
v 0.0425536223 -0.0803157762 0.0157350563
v 0.0361180641 -0.0811762214 0.0249776542
v 0.0363052636 -0.0841313303 0.00232592551
v 0.0113940416 -0.0891868323 -0.0166739859
v 0.034235429 -0.0788509026 -0.0311866626
v 0.018650379 -0.083914794 -0.0311866626
v 0.0362349078 -0.083914794 -0.00273428834
v 0.0200092494 -0.0891868323 -0.00273428834
v 0.0432047583 -0.0788509026 -0.0166739859
v 0.066042088 0.0594351478 -0.0249776542
v 0.0687947124 0.0605263636 -0.00232592551
v 0.0632350594 0.0652898401 -0.0157350563
v 0.0816350356 0.0399644375 -0.0157350563
v 0.0769343153 0.0444432832 -0.0249776542
v 0.0788227394 0.0467239805 -0.00232592551
v 0.0616406724 0.0654564351 0.0166739877
v 0.0740444362 0.0436686501 0.0311866738
v 0.064412348 0.0569260903 0.0311866719
v 0.0786385462 0.0465901531 0.00273428974
v 0.0686105192 0.0603925325 0.00273428974
v 0.0813007802 0.0383966081 0.0166739859
v 0.0828956068 0.0341889672 0.01899991
v 0.0748531446 0.0295330379 0.045098044
v 0.0756392628 0.0394610129 0.0335125998
v 0.086997129 0.0134731177 0.0277119409
v 0.088167496 0.0198595971 0.018469343
v 0.0791154429 0.0191995017 0.043475315
v -0.0883426666 -0.0167238992 0.0166739877
v -0.0855709985 0.00819353852 0.0311866738
v -0.085570991 -0.00819355901 0.0311866719
v -0.091004923 0.00853033364 0.00273428974
v -0.0910049155 -0.00853035226 0.00273428974
v -0.0883426741 0.0167238824 0.0166739859
v -0.0871597305 0.0210653469 0.01899991
v -0.0779165551 0.0201048311 0.045098044
v -0.0843880549 0.012535003 0.0335125998
v -0.078301467 0.0402356423 0.0277119409
v -0.0830021873 0.0357567929 0.018469343
v -0.0752909184 0.0309701599 0.043475315
v -0.0184940416 -0.0869026184 -0.0249776542
v -0.0200795624 -0.0894033834 -0.00232592551
v -0.0127818016 -0.0899892226 -0.0157350563
v -0.0425535999 -0.0803157985 -0.0157350544
v -0.0361180343 -0.0811762363 -0.0249776542
v -0.0363052376 -0.0841313452 -0.00232592551
v 0.0581317954 -0.0682734326 0.0189999081
v 0.0512184948 -0.062063355 0.0450980477
v 0.060903471 -0.059743084 0.0335125998
v 0.0396972932 -0.0785757601 0.0277119409
v 0.0461328551 -0.0777153149 0.0184693448
v 0.0427078381 -0.0693102777 0.043475315
v -0.0174313206 0.062063355 -0.0659796596
v -0.00703315157 0.0785757601 -0.0478994884
v -0.0197859928 0.0693102777 -0.057641793
v 0.00900329091 0.0682734326 -0.0604916662
v -0.00273772376 0.0597430877 -0.0694610104
v 0.00411175471 0.0777153149 -0.0495222174
v 0.0373309664 0.0467239805 -0.0694610104
v 0.0423534326 0.0652898401 -0.0495222174
v 0.0328462981 0.0605263636 -0.0604916736
v 0.0567467585 0.0444432832 -0.057641793
v 0.0505821593 0.0399644375 -0.0659796596
v 0.0518756136 0.0594351478 -0.0478994921
v -0.00845037773 -0.0175923295 -0.0902057588
v -0.0263111852 -0.0296602957 -0.0826411024
v -0.0118079437 -0.0279258694 -0.0871191472
v -0.0302079357 -0.002600468 -0.0871191472
v -0.0193426087 -0.0026004666 -0.0902057588
v -0.0363392122 -0.0158579033 -0.0826411024
v -0.0223776698 -0.0604561865 -0.0659796596
v -0.0404957123 -0.0677031204 -0.0478994958
v -0.0247323364 -0.067703113 -0.057641793
v -0.0474139154 -0.0499423742 -0.0604916811
v -0.0329012237 -0.0499423742 -0.0694610178
v -0.0490063764 -0.060456194 -0.0495222211
v 0.0559730493 -0.0210653599 -0.0694610178
v 0.0751822591 -0.0201048441 -0.0495222174
v 0.0677140579 -0.0125350151 -0.0604916736
v 0.0598037876 -0.0402356535 -0.057641793
v 0.053639181 -0.035756804 -0.0659796596
v 0.0725566298 -0.0309701711 -0.0478994921
v 0.0229436941 0.0706134364 0.0547476672
v 0.0356965326 0.0798789114 0.0292419959
v 0.0387070738 0.0706134364 0.0450053662
v 0.0180725437 0.0856052935 0.0292419959
v 0.0101908557 0.0798789114 0.0450053662
v -0.0600673854 0.0436414964 0.0547476672
v -0.0649385303 0.0586333647 0.0292419959
v -0.0551962294 0.0586333647 0.0450053662
v -0.0758307576 0.0436414964 0.0292419959
v -0.0728202164 0.0343760177 0.0450053662
v -0.0600673705 -0.0436415114 0.0547476672
v -0.0758307502 -0.0436415114 0.0292419959
v -0.0728202164 -0.0343760364 0.0450053662
v -0.0649385229 -0.0586333759 0.0292419959
v -0.0551962182 -0.0586333759 0.0450053662
v 0.0229437053 -0.070613429 0.0547476672
v 0.0180725604 -0.0856052935 0.0292419884
v 0.0101908678 -0.0798789114 0.0450053662
v 0.0356965438 -0.0798789114 0.0292419959
v 0.038707085 -0.070613429 0.0450053662
v -0.0870002061 0.00926547311 -0.0292419959
v -0.0742473602 -6.61499966E-09 -0.0547476672
v -0.0791185126 0.0149918534 -0.0450053662
v -0.0791185126 -0.0149918701 -0.0450053699
v -0.0870001987 -0.00926548801 -0.0292419959
v 0.0649385229 -0.0586333685 -0.0292419884
v 0.0600673705 -0.0436415114 -0.0547476672
v 0.0551962182 -0.0586333759 -0.0450053662
v 0.0728202164 -0.0343760289 -0.0450053662
v 0.0758307502 -0.0436415114 -0.0292419959
v 0.0127528412 0.00926548056 -0.0908927619
v -0.00487114582 -0.0149918646 -0.0908927619
v 0.0127528403 -0.00926548336 -0.0908927619
v -0.0157633778 -1.57444235E-09 -0.0908927619
v -0.00487115234 0.0149918627 -0.0908927619
v -0.0494750738 0.0359457359 0.068966426
v -0.0405314863 0.0130607458 0.0810629725
v -0.0518089384 0.0212542918 0.0724477619
v -0.027778646 0.0201823637 0.0855410174
v -0.0249464344 0.0345117338 0.0810629725
v -0.0362238847 0.0427052788 0.0724477693
v -0.0494750664 -0.0359457508 0.068966426
v -0.0249464251 -0.034511745 0.0810629725
v -0.0362238772 -0.04270529 0.0724477619
v -0.027778646 -0.0201823711 0.0855410174
v -0.0405314863 -0.0130607579 0.0810629725
v -0.0518089384 -0.0212543067 0.0724477693
v -0.0180799905 0.0821593404 0.0361599736
v -0.0388645791 0.0686014891 0.0477454178
v -0.0336650461 0.0770954564 0.0361599736
v -0.0293574426 0.06383802 0.0587148741
v -0.013772388 0.0689019114 0.0587148741
v -0.00888085272 0.0783437937 0.0477454178
v -0.0336650275 -0.0770954713 0.0361599699
v -0.00888083968 -0.0783437937 0.0477454178
v -0.0180799756 -0.0821593478 0.0361599736
v -0.0137723759 -0.0689019188 0.0587148741
v -0.0293574315 -0.06383802 0.0587148741
v -0.0388645679 -0.0686014965 0.0477454178
v 0.0629190728 -0.0558411516 0.0361599736
v 0.0717650503 -0.0326557457 0.0477454215
v 0.0725511685 -0.0425837189 0.0361599736
v 0.0612737164 -0.0343901739 0.0587148741
v 0.0516416281 -0.0476476103 0.0587148741
v 0.0532340929 -0.0581614338 0.0477454215
v -0.00828730129 0.0908171833 -0.0134091303
v -0.00696985237 0.0902313367 0.0139396964
v -0.0155850556 0.0902313367 0
v 0.00828729477 0.0908171833 0.0134091303
v 0.0155850528 0.0902313367 0
v 0.00696984539 0.0902313367 -0.0139396964
v 0.0879689008 -0.0212543011 -0.0139396982
v 0.0889331847 -0.0201823693 0.0134091284
v 0.0906311497 -0.0130607551 0
v 0.0836612955 -0.034511745 0.0139396982
v 0.080999054 -0.04270529 0
v 0.0838113502 -0.035945747 -0.0134091303
v -0.0586753786 0.0689019114 -0.0139396964
v -0.060085576 0.0686014891 0.0134091284
v -0.0656452328 0.06383802 0
v -0.0473979339 0.0770954564 0.0139396964
v -0.0404280871 0.0821593404 0
v -0.0466764458 0.0783437937 -0.0134091284
v -0.0629190728 0.0558411591 -0.0361599736
v -0.0516416281 0.0476476103 -0.0587148741
v -0.0532340929 0.0581614263 -0.0477454178
v -0.0612737164 0.0343901776 -0.0587148741
v -0.0717650503 0.0326557495 -0.0477454178
v -0.0725511685 0.0425837189 -0.0361599736
v 0.083725214 -0.00819355156 -0.0361599699
v 0.069785513 -0.0081935497 -0.0587148741
v 0.0772537217 -0.0157633796 -0.0477454178
v 0.069785513 0.00819354597 -0.0587148741
v 0.0772537217 0.0157633722 -0.0477454178
v 0.0837252215 0.00819354691 -0.0361599736
v 0.027778646 0.0201823656 -0.0855410174
v 0.0362238809 0.0427052826 -0.0724477619
v 0.0249464307 0.0345117375 -0.0810629725
v 0.0494750738 0.0359457433 -0.0689664185
v 0.0518089384 0.0212542992 -0.0724477693
v 0.0405314863 0.0130607504 -0.0810629725
v -0.0251137447 0.0343901776 -0.0810629725
v -0.0188977979 0.0581614338 -0.0689664185
v -0.0294213481 0.047647614 -0.0724477619
v -0.00420420151 0.0558411628 -0.0724477619
v 0.000103401813 0.0425837226 -0.0810629725
v -0.0106104994 0.0326557532 -0.0855410174
v -0.0404675752 0.0132574365 -0.0810629725
v -0.0404675715 -0.0132574392 -0.0810629725
v -0.034336295 -3.06432058E-09 -0.0855410174
v -0.054407265 -0.0132574448 -0.0724477693
v -0.0611545518 -5.40884715E-09 -0.068966426
v -0.0544072762 0.0132574327 -0.0724477619
v 0.000103421495 -0.0425837301 -0.0810629725
v -0.0188977737 -0.0581614375 -0.0689664185
v -0.00420418102 -0.0558411628 -0.0724477619
v -0.0294213295 -0.0476476252 -0.0724477693
v -0.025113726 -0.034390185 -0.0810629725
v -0.0106104854 -0.0326557569 -0.0855410174
v 0.0249464288 -0.034511745 -0.0810629725
v 0.0405314825 -0.0130607551 -0.0810629725
v 0.027778646 -0.0201823674 -0.0855410174
v 0.0518089384 -0.0212543029 -0.0724477693
v 0.0494750664 -0.035945747 -0.0689664185
v 0.0362238847 -0.04270529 -0.0724477544
vt 0.562815309 0.934477448
vt 0.565765619 0.823791802
vt 0.462815285 0.889314353
vt 0.662815273 0.889314353
vt 0.637184739 0.934477448
vt 0.634234428 0.823791802
vt 0.5 0.75826925
vt 0.537184715 0.658227563
vt 0.5 0.713106036
vt 0.567117274 0.724737763
vt 0.53288281 0.775262177
vt 0.562815309 0.665564179
vt 0.667117238 0.775262177
vt 0.637184739 0.665564179
vt 0.632882774 0.724737763
vt 0.699999988 0.713106096
vt 0.699999988 0.75826925
vt 0.662815332 0.658227563
vt -0.0671171769 0.775262177
vt 0.0328828245 0.724737763
vt -0.03288275 0.724737763
vt 0.0342344642 0.823791802
vt -0.0342343897 0.823791802
vt 0.0671172515 0.775262177
vt 0.267117202 0.775262177
vt 0.237184748 0.665564179
vt 0.232882798 0.724737763
vt 0.300000012 0.713106096
vt 0.300000012 0.75826925
vt 0.262815297 0.658227563
vt 0.362815291 0.934477448
vt 0.365765601 0.823791802
vt 0.262815297 0.889314294
vt 0.462815285 0.889314353
vt 0.437184751 0.934477448
vt 0.434234411 0.823791802
vt 0.481407642 0.592705011
vt 0.482882768 0.5
vt 0.468592346 0.554878533
vt 0.531407595 0.554878533
vt 0.518592358 0.592705071
vt 0.517117143 0.5
vt 0.68140763 0.592705011
vt 0.682882786 0.5
vt 0.668592393 0.554878533
vt 0.731407642 0.554878533
vt 0.718592346 0.592705011
vt 0.71711719 0.5
vt 0.631407678 0.445121437
vt 0.63718468 0.341772377
vt 0.618592381 0.407294959
vt 0.683558583 0.381733954
vt 0.666441441 0.442057818
vt 0.662815273 0.334435761
vt 0.881407678 0.592705071
vt 0.882882833 0.5
vt 0.868592381 0.554878473
vt 0.93140769 0.554878533
vt 0.918592393 0.592705011
vt 0.917117238 0.5
vt 0.831407666 0.445121467
vt 0.837184727 0.341772377
vt 0.81859237 0.407294929
vt 0.883558631 0.381733924
vt 0.866441429 0.442057848
vt 0.86281532 0.334435761
vt -0.0664413422 0.442057818
vt -0.0628152415 0.334435761
vt -0.0835585669 0.381733954
vt -0.0185923204 0.407294929
vt -0.0314075947 0.445121467
vt -0.0371846855 0.341772407
vt 0.0814076662 0.592705011
vt 0.0828828067 0.5
vt 0.0685923919 0.554878533
vt 0.131407678 0.554878533
vt 0.118592396 0.592705011
vt 0.117117263 0.5
vt 0.0664414167 0.442057818
vt 0.116441444 0.381733954
vt 0.0835586414 0.381733954
vt 0.117117263 0.5
vt 0.0828828067 0.5
vt 0.133558661 0.442057848
vt 0.133558661 0.442057848
vt 0.137184769 0.334435761
vt 0.116441444 0.381733954
vt 0.18140769 0.407294959
vt 0.168592408 0.445121437
vt 0.162815332 0.341772407
vt 0.281407654 0.592705011
vt 0.282882839 0.5
vt 0.268592387 0.554878533
vt 0.331407666 0.554878533
vt 0.31859237 0.592705011
vt 0.317117244 0.5
vt 0.266441435 0.442057848
vt 0.316441447 0.381734014
vt 0.283558637 0.381734014
vt 0.317117244 0.5
vt 0.282882839 0.5
vt 0.333558619 0.442057848
vt 0.618592381 0.407294959
vt 0.617117226 0.5
vt 0.631407678 0.445121437
vt 0.56859231 0.445121437
vt 0.581407666 0.407294959
vt 0.582882762 0.5
vt 0.633558631 0.557942152
vt 0.583558619 0.618266046
vt 0.616441429 0.618265986
vt 0.582882762 0.5
vt 0.617117226 0.5
vt 0.566441357 0.557942152
vt 0.566441357 0.557942152
vt 0.562815309 0.665564179
vt 0.583558619 0.618266046
vt 0.518592358 0.592705071
vt 0.531407595 0.554878533
vt 0.537184715 0.658227563
vt 0.0335586295 0.557942152
vt -0.0164413527 0.618266046
vt 0.0164414253 0.618265986
vt -0.0171171762 0.5
vt 0.017117247 0.5
vt -0.0335585624 0.557942152
vt -0.0335585624 0.557942152
vt -0.0371846817 0.665564179
vt -0.0164413527 0.618266046
vt -0.0814076066 0.592705071
vt -0.0685923174 0.554878533
vt -0.062815249 0.658227503
vt 0.218592405 0.407294959
vt 0.21711725 0.5
vt 0.231407687 0.445121437
vt 0.168592408 0.445121437
vt 0.18140769 0.407294959
vt 0.182882816 0.5
vt 0.366441399 0.557942092
vt 0.362815261 0.66556412
vt 0.383558601 0.618265986
vt 0.31859237 0.592705011
vt 0.331407666 0.554878533
vt 0.337184727 0.658227503
vt 0.800000012 0.24173075
vt 0.762815237 0.341772377
vt 0.800000012 0.286893845
vt 0.732882798 0.275262177
vt 0.767117202 0.224737793
vt 0.737184703 0.334435761
vt 0.632882833 0.224737793
vt 0.662815273 0.334435761
vt 0.667117178 0.275262177
vt 0.600000024 0.286893874
vt 0.600000024 0.24173075
vt 0.63718468 0.341772377
vt 0.137184799 0.0655225441
vt 0.134234503 0.176208213
vt 0.237184793 0.110685676
vt 0.0371847712 0.110685669
vt 0.0628153235 0.0655225441
vt 0.0657656044 0.176208213
vt 0.200000077 0.24173075
vt 0.162815332 0.341772407
vt 0.200000063 0.286893874
vt 0.132882833 0.275262207
vt 0.167117283 0.224737793
vt 0.137184769 0.334435761
vt 0.432882786 0.224737808
vt 0.462815285 0.334435791
vt 0.46711722 0.275262237
vt 0.400000006 0.286893874
vt 0.400000006 0.24173075
vt 0.437184691 0.341772407
vt 0.699999988 0.713106096
vt 0.68140763 0.592705011
vt 0.662815332 0.658227563
vt 0.718592346 0.592705011
vt 0.737184703 0.658227503
vt 1.01490712 1.00123119
vt 0.599169493 0.429017067
vt 0.599169254 0.866149783
vt 1.01490736 0.293935925
vt 1.27184725 0.647583783
vt 0.100000031 0.713106096
vt 0.0814076662 0.592705011
vt 0.062815316 0.658227503
vt 0.118592396 0.592705011
vt 0.137184754 0.658227503
vt 0.300000012 0.713106096
vt 0.281407654 0.592705011
vt 0.262815297 0.658227563
vt 0.31859237 0.592705011
vt 0.337184727 0.658227503
vt -0.0185923204 0.407294929
vt 3.79454939E-08 0.286893874
vt -0.0371846855 0.341772407
vt 0.0371847562 0.341772407
vt 0.0185923893 0.407294929
vt 0.381407678 0.407294959
vt 0.400000006 0.286893874
vt 0.362815291 0.341772437
vt 0.437184691 0.341772407
vt 0.418592364 0.407294959
vt 0.614907086 0.353647739
vt 0.199169278 -0.218566358
vt 0.199169308 0.218566358
vt 0.614907146 -0.353647709
vt 0.871847272 2.42326422E-07
vt 0.0945854634 1.14066219
vt -0.428827822 0.823791683
vt -0.272073716 1.10400307
vt -0.294585317 0.506921291
vt 0.0720738769 0.543580532
vt 0.228827864 0.82379204
vt 0.100000039 0.75826925
vt 0.165765613 0.823791802
vt 0.132882819 0.775262237
vt 0.0628153235 0.889314353
vt 0.0342344642 0.823791802
vt 0.0671172515 0.775262177
vt 0.783558607 0.618266046
vt 0.837184787 0.665564239
vt 0.816441417 0.618265986
vt 0.832882762 0.724737823
vt 0.767117202 0.724737823
vt 0.762815297 0.665564239
vt 0.183558643 0.618266046
vt 0.237184748 0.665564179
vt 0.216441423 0.618266046
vt 0.232882798 0.724737763
vt 0.167117238 0.724737823
vt 0.162815303 0.665564179
vt 0.383558601 0.618265986
vt 0.437184721 0.66556412
vt 0.416441411 0.618265986
vt 0.432882786 0.724737763
vt 0.367117226 0.724737763
vt 0.362815261 0.66556412
vt 0.768592358 0.445121437
vt 0.766441405 0.557942152
vt 0.78288281 0.5
vt 0.731407642 0.554878533
vt 0.71711719 0.5
vt 0.733558595 0.442057818
vt 0.466441393 0.442057818
vt 0.468592346 0.554878533
vt 0.482882768 0.5
vt 0.433558583 0.557942152
vt 0.417117238 0.5
vt 0.43140763 0.445121467
vt 0.866441429 0.442057848
vt 0.868592381 0.554878473
vt 0.882882833 0.5
vt 0.833558619 0.557942152
vt 0.817117214 0.5
vt 0.831407666 0.445121467
vt 1.0720737 0.604003131
vt 0.571172178 0.323791832
vt 0.731803656 0.655424654
vt 0.727926373 0.0435804129
vt 1.0681963 -0.00784116983
vt 1.22882795 0.323791683
vt 0.483558595 0.381734014
vt 0.46711722 0.275262237
vt 0.462815285 0.334435791
vt 0.53288281 0.275262237
vt 0.537184715 0.334435791
vt 0.516441405 0.381734014
vt 0.637184799 0.110685676
vt 0.632882833 0.224737793
vt 0.665765524 0.176208213
vt 0.600000024 0.24173075
vt 0.567117214 0.224737823
vt 0.534234464 0.176208213
vt -0.0512624234 0.469474196
vt -0.5718472 0.176208362
vt -0.372073591 0.456419587
vt -0.348737687 -0.117057636
vt -0.0279264152 -0.104003206
vt 0.171847254 0.176208094
vt -0.0657655522 0.176208213
vt 0.0657656044 0.176208213
vt 0.0371847712 0.110685669
vt 0.0328828245 0.224737793
vt 3.79454939E-08 0.24173075
vt -0.0328827463 0.224737808
vt 0.265765667 0.176208213
vt 0.200000077 0.24173075
vt 0.232882857 0.224737838
vt 0.167117283 0.224737793
vt 0.134234503 0.176208213
vt 0.237184793 0.110685676
vt 0.334234446 0.176208213
vt 0.465765595 0.176208213
vt 0.437184751 0.110685676
vt 0.432882786 0.224737808
vt 0.400000006 0.24173075
vt 0.367117226 0.224737823
g GeoSphere002_0
f 3/3/3 2/2/2 1/1/1
f 2/2/2 4/4/4 1/1/1
f 1/1/1 4/4/4 5/5/5
f 6/6/6 4/4/4 2/2/2
f 9/9/9 8/8/8 7/7/7
f 8/8/8 10/10/10 7/7/7
f 7/7/7 10/10/10 11/11/11
f 12/12/12 10/10/10 8/8/8
f 15/15/15 14/14/14 13/13/13
f 14/14/14 16/16/16 13/13/13
f 13/13/13 16/16/16 17/17/17
f 18/18/18 16/16/16 14/14/14
f 21/21/21 20/20/20 19/19/19
f 20/20/20 22/22/22 19/19/19
f 19/19/19 22/22/22 23/23/23
f 24/24/24 22/22/22 20/20/20
f 27/27/27 26/26/26 25/25/25
f 26/26/26 28/28/28 25/25/25
f 25/25/25 28/28/28 29/29/29
f 30/30/30 28/28/28 26/26/26
f 33/33/33 32/32/32 31/31/31
f 32/32/32 34/34/34 31/31/31
f 31/31/31 34/34/34 35/35/35
f 36/36/36 34/34/34 32/32/32
f 39/39/39 38/38/38 37/37/37
f 38/38/38 40/40/40 37/37/37
f 37/37/37 40/40/40 41/41/41
f 42/42/42 40/40/40 38/38/38
f 45/45/45 44/44/44 43/43/43
f 44/44/44 46/46/46 43/43/43
f 43/43/43 46/46/46 47/47/47
f 48/48/48 46/46/46 44/44/44
f 51/51/51 50/50/50 49/49/49
f 50/50/50 52/52/52 49/49/49
f 49/49/49 52/52/52 53/53/53
f 54/54/54 52/52/52 50/50/50
f 57/57/57 56/56/56 55/55/55
f 56/56/56 58/58/58 55/55/55
f 55/55/55 58/58/58 59/59/59
f 60/60/60 58/58/58 56/56/56
f 63/63/63 62/62/62 61/61/61
f 62/62/62 64/64/64 61/61/61
f 61/61/61 64/64/64 65/65/65
f 66/66/66 64/64/64 62/62/62
f 69/69/69 68/68/68 67/67/67
f 68/68/68 70/70/70 67/67/67
f 67/67/67 70/70/70 71/71/71
f 72/72/72 70/70/70 68/68/68
f 75/75/75 74/74/74 73/73/73
f 74/74/74 76/76/76 73/73/73
f 73/73/73 76/76/76 77/77/77
f 78/78/78 76/76/76 74/74/74
f 81/81/81 80/80/80 79/79/79
f 80/80/80 82/82/82 79/79/79
f 79/79/79 82/82/82 83/83/83
f 84/84/84 82/82/82 80/80/80
f 87/87/87 86/86/86 85/85/85
f 86/86/86 88/88/88 85/85/85
f 85/85/85 88/88/88 89/89/89
f 90/90/90 88/88/88 86/86/86
f 93/93/93 92/92/92 91/91/91
f 92/92/92 94/94/94 91/91/91
f 91/91/91 94/94/94 95/95/95
f 96/96/96 94/94/94 92/92/92
f 99/99/99 98/98/98 97/97/97
f 98/98/98 100/100/100 97/97/97
f 97/97/97 100/100/100 101/101/101
f 102/102/102 100/100/100 98/98/98
f 105/105/105 104/104/104 103/103/103
f 104/104/104 106/106/106 103/103/103
f 103/103/103 106/106/106 107/107/107
f 108/108/108 106/106/106 104/104/104
f 111/111/111 110/110/110 109/109/109
f 110/110/110 112/112/112 109/109/109
f 109/109/109 112/112/112 113/113/113
f 114/114/114 112/112/112 110/110/110
f 117/117/117 116/116/116 115/115/115
f 116/116/116 118/118/118 115/115/115
f 115/115/115 118/118/118 119/119/119
f 120/120/120 118/118/118 116/116/116
f 123/123/123 122/122/122 121/121/121
f 122/122/122 124/124/124 121/121/121
f 121/121/121 124/124/124 125/125/125
f 126/126/126 124/124/124 122/122/122
f 129/129/129 128/128/128 127/127/127
f 128/128/128 130/130/130 127/127/127
f 127/127/127 130/130/130 131/131/131
f 132/132/132 130/130/130 128/128/128
f 135/135/135 134/134/134 133/133/133
f 134/134/134 136/136/136 133/133/133
f 133/133/133 136/136/136 137/137/137
f 138/138/138 136/136/136 134/134/134
f 141/141/141 140/140/140 139/139/139
f 140/140/140 142/142/142 139/139/139
f 139/139/139 142/142/142 143/143/143
f 144/144/144 142/142/142 140/140/140
f 147/147/147 146/146/146 145/145/145
f 146/146/146 148/148/148 145/145/145
f 145/145/145 148/148/148 149/149/149
f 150/150/150 148/148/148 146/146/146
f 153/153/153 152/152/152 151/151/151
f 152/152/152 154/154/154 151/151/151
f 151/151/151 154/154/154 155/155/155
f 156/156/156 154/154/154 152/152/152
f 159/159/159 158/158/158 157/157/157
f 158/158/158 160/160/160 157/157/157
f 157/157/157 160/160/160 161/161/161
f 162/162/162 160/160/160 158/158/158
f 165/165/165 164/164/164 163/163/163
f 164/164/164 166/166/166 163/163/163
f 163/163/163 166/166/166 167/167/167
f 168/168/168 166/166/166 164/164/164
f 171/171/171 170/170/170 169/169/169
f 170/170/170 172/172/172 169/169/169
f 169/169/169 172/172/172 173/173/173
f 174/174/174 172/172/172 170/170/170
f 177/177/177 176/176/176 175/175/175
f 176/176/176 178/178/178 175/175/175
f 178/178/178 179/179/179 175/175/175
f 182/182/182 181/181/181 180/180/180
f 181/181/181 183/183/183 180/180/180
f 183/183/183 184/184/184 180/180/180
f 187/187/187 186/186/186 185/185/185
f 186/186/186 188/188/188 185/185/185
f 188/188/188 189/189/189 185/185/185
f 192/192/192 191/191/191 190/190/190
f 191/191/191 193/193/193 190/190/190
f 193/193/193 194/194/194 190/190/190
f 197/197/197 196/196/196 195/195/195
f 196/196/196 198/198/198 195/195/195
f 198/198/198 199/199/199 195/195/195
f 202/202/202 201/201/201 200/200/200
f 201/201/201 203/203/203 200/200/200
f 203/203/203 204/204/204 200/200/200
f 207/207/207 206/206/206 205/205/205
f 206/206/206 208/208/208 205/205/205
f 208/208/208 209/209/209 205/205/205
f 212/212/212 211/211/211 210/210/210
f 211/211/211 213/213/213 210/210/210
f 213/213/213 214/214/214 210/210/210
f 214/214/214 215/215/215 210/210/210
f 218/218/218 217/217/217 216/216/216
f 217/217/217 219/219/219 216/216/216
f 219/219/219 220/220/220 216/216/216
f 220/220/220 221/221/221 216/216/216
f 224/224/224 223/223/223 222/222/222
f 223/223/223 225/225/225 222/222/222
f 225/225/225 226/226/226 222/222/222
f 226/226/226 227/227/227 222/222/222
f 230/230/230 229/229/229 228/228/228
f 229/229/229 231/231/231 228/228/228
f 231/231/231 232/232/232 228/228/228
f 232/232/232 233/233/233 228/228/228
f 236/236/236 235/235/235 234/234/234
f 235/235/235 237/237/237 234/234/234
f 237/237/237 238/238/238 234/234/234
f 238/238/238 239/239/239 234/234/234
f 242/242/242 241/241/241 240/240/240
f 241/241/241 243/243/243 240/240/240
f 243/243/243 244/244/244 240/240/240
f 244/244/244 245/245/245 240/240/240
f 248/248/248 247/247/247 246/246/246
f 247/247/247 249/249/249 246/246/246
f 249/249/249 250/250/250 246/246/246
f 250/250/250 251/251/251 246/246/246
f 254/254/254 253/253/253 252/252/252
f 253/253/253 255/255/255 252/252/252
f 255/255/255 256/256/256 252/252/252
f 256/256/256 257/257/257 252/252/252
f 260/260/260 259/259/259 258/258/258
f 259/259/259 261/261/261 258/258/258
f 261/261/261 262/262/262 258/258/258
f 262/262/262 263/263/263 258/258/258
f 266/266/266 265/265/265 264/264/264
f 265/265/265 267/267/267 264/264/264
f 267/267/267 268/268/268 264/264/264
f 268/268/268 269/269/269 264/264/264
f 272/272/272 271/271/271 270/270/270
f 271/271/271 273/273/273 270/270/270
f 273/273/273 274/274/274 270/270/270
f 274/274/274 275/275/275 270/270/270
f 278/278/278 277/277/277 276/276/276
f 277/277/277 279/279/279 276/276/276
f 279/279/279 280/280/280 276/276/276
f 280/280/280 281/281/281 276/276/276
f 284/284/284 283/283/283 282/282/282
f 283/283/283 285/285/285 282/282/282
f 285/285/285 286/286/286 282/282/282
f 286/286/286 287/287/287 282/282/282
f 290/290/290 289/289/289 288/288/288
f 289/289/289 291/291/291 288/288/288
f 291/291/291 292/292/292 288/288/288
f 292/292/292 293/293/293 288/288/288
f 296/296/296 295/295/295 294/294/294
f 295/295/295 297/297/297 294/294/294
f 297/297/297 298/298/298 294/294/294
f 298/298/298 299/299/299 294/294/294
