g HD_ZHG_bianfu
v -0.0216147602 0.0390045159 0.00358901965
v -0.0189459603 0.0602577403 -0.00205104821
v -0.00644927984 0.0390045159 0.00358901965
v -0.0189459603 0.0602577403 -0.00205104821
v -0.0216147602 0.0390045159 -0.0076910397
v -0.00644927984 0.0390045159 -0.0076910397
v -0.00644927984 0.0390045159 0.00358901965
v -0.0189459603 0.0602577403 -0.00205104821
v -0.00644927984 0.0390045159 -0.0076910397
v -0.0216147602 0.0390045159 -0.0076910397
v -0.0189459603 0.0602577403 -0.00205104821
v -0.0216147602 0.0390045159 0.00358901965
v 0.0056670378 0.0294050779 0.0152575299
v 0.0186875146 0.0352986716 0.0152575299
v 0.00830425229 0.0258376114 0.0152575299
v 0.00581409456 0.0136826131 0.0152575299
v 0.00455554947 0.0180447567 0.0152575299
v 0.00813865662 0.0188640784 0.0152575299
v -0.0060148621 0.0294050779 0.0152575299
v -0.00865203794 0.0258376114 0.0152575299
v -0.0190353002 0.0352986716 0.0152575299
v -0.00616188021 0.0136826131 0.0152575299
v -0.00848644227 0.0188640784 0.0152575299
v -0.00490333559 0.0180447567 0.0152575299
v 0.0208434667 0.0390045159 0.00358901965
v 0.00567798596 0.0390045159 0.00358901965
v 0.0181745905 0.0602577403 -0.00205104821
v 0.0181745905 0.0602577403 -0.00205104821
v 0.00567798596 0.0390045159 -0.0076910397
v 0.0208434667 0.0390045159 -0.0076910397
v 0.00567798596 0.0390045159 0.00358901965
v 0.00567798596 0.0390045159 -0.0076910397
v 0.0181745905 0.0602577403 -0.00205104821
v 0.0208434667 0.0390045159 -0.0076910397
v 0.0208434667 0.0390045159 0.00358901965
v 0.0181745905 0.0602577403 -0.00205104821
v -0.0196763985 -0.0391263366 0.0173221212
v -0.0196763985 0.00967393816 0.0173221212
v 0.0191626735 0.00967393816 0.0173221212
v 0.0191626735 -0.0391263366 0.0173221212
v -0.0196763985 0.00967393816 0.0173221212
v -0.0196763985 0.00967393816 -0.0164670181
v 0.0191626735 0.00967393816 -0.0164670181
v 0.0191626735 0.00967393816 0.0173221212
v -0.0196763985 0.00967393816 -0.0164670181
v -0.0196763985 -0.0391263366 -0.0164670181
v 0.0191626735 -0.0391263366 -0.0164670181
v 0.0191626735 0.00967393816 -0.0164670181
v -0.0196763985 -0.0391263366 -0.0164670181
v -0.0196763985 -0.0391263366 0.0173221212
v 0.0191626735 -0.0391263366 0.0173221212
v 0.0191626735 -0.0391263366 -0.0164670181
v 0.0191626735 -0.0391263366 0.0173221212
v 0.0191626735 0.00967393816 0.0173221212
v 0.0191626735 0.00967393816 -0.0164670181
v 0.0191626735 -0.0391263366 -0.0164670181
v -0.0196763985 -0.0391263366 -0.0164670181
v -0.0196763985 0.00967393816 -0.0164670181
v -0.0196763985 0.00967393816 0.0173221212
v -0.0196763985 -0.0391263366 0.0173221212
v -0.0224148557 0.0118937492 0.0149738304
v -0.0224148557 0.0409600623 0.0149738304
v 0.0217343904 0.0409600623 0.0149738304
v 0.0217343904 0.0118937492 0.0149738304
v -0.0224148557 0.0409600623 0.0149738304
v -0.0224148557 0.0409600623 -0.0173220821
v 0.0217343904 0.0409600623 -0.0173220821
v 0.0217343904 0.0409600623 0.0149738304
v -0.0224148557 0.0409600623 -0.0173220821
v -0.0224148557 0.0118937492 -0.0173220821
v 0.0217343904 0.0118937492 -0.0173220821
v 0.0217343904 0.0409600623 -0.0173220821
v -0.0224148557 0.0118937492 -0.0173220821
v -0.0224148557 0.0118937492 0.0149738304
v 0.0217343904 0.0118937492 0.0149738304
v 0.0217343904 0.0118937492 -0.0173220821
v 0.0217343904 0.0118937492 0.0149738304
v 0.0217343904 0.0409600623 0.0149738304
v 0.0217343904 0.0409600623 -0.0173220821
v 0.0217343904 0.0118937492 -0.0173220821
v -0.0224148557 0.0118937492 -0.0173220821
v -0.0224148557 0.0409600623 -0.0173220821
v -0.0224148557 0.0409600623 0.0149738304
v -0.0224148557 0.0118937492 0.0149738304
v -0.0316420346 -0.0372249596 -0.0111547848
v -0.0224148165 -0.0184031483 -0.0111547848
v -0.0224148165 -0.00290540699 -0.0111547848
v -0.0339140296 0.00204044348 -0.0111547848
v -0.0392348841 -0.0262598414 -0.0111547848
v -0.049061887 -0.0268020425 -0.0111547848
v -0.040565528 0.0132981678 -0.0111547848
v -0.0538628772 0.0277515985 -0.0111547848
v -0.0587225333 -0.0391899496 -0.0111547848
v -0.0669749454 -0.0261260029 -0.0111547848
v -0.0787092224 -0.0259592813 -0.0111547848
v -0.0906884 0.0218029581 -0.0111547848
v -0.0504716858 0.0476236902 -0.0111547848
v -0.0993930399 -0.0602574907 -0.0111547848
v -0.0906884 0.0218029581 -0.00389537797
v -0.0504716858 0.0476236902 -0.00389537797
v -0.0538628772 0.0277515985 -0.00389537797
v -0.0787092224 -0.0259592813 -0.00389537797
v -0.0993930399 -0.0602574907 -0.00389537797
v -0.0669749454 -0.0261260029 -0.00389537797
v -0.0587225333 -0.0391899496 -0.00389537797
v -0.049061887 -0.0268020425 -0.00389537797
v -0.040565528 0.0132981678 -0.00389537797
v -0.0392348841 -0.0262598414 -0.00389537797
v -0.0339140296 0.00204044348 -0.00389537797
v -0.0316420346 -0.0372249596 -0.00389537797
v -0.0224148165 -0.0184031483 -0.00389537797
v -0.0224148165 -0.00290540699 -0.00389537797
v -0.0787092224 -0.0259592813 -0.00389537797
v -0.0669749454 -0.0261260029 -0.00389537797
v -0.0669749454 -0.0261260029 -0.0111547848
v -0.0787092224 -0.0259592813 -0.0111547848
v -0.0669749454 -0.0261260029 -0.00389537797
v -0.0587225333 -0.0391899496 -0.00389537797
v -0.0587225333 -0.0391899496 -0.0111547848
v -0.0669749454 -0.0261260029 -0.0111547848
v -0.0587225333 -0.0391899496 -0.00389537797
v -0.049061887 -0.0268020425 -0.00389537797
v -0.049061887 -0.0268020425 -0.0111547848
v -0.0587225333 -0.0391899496 -0.0111547848
v -0.049061887 -0.0268020425 -0.00389537797
v -0.0392348841 -0.0262598414 -0.00389537797
v -0.0392348841 -0.0262598414 -0.0111547848
v -0.049061887 -0.0268020425 -0.0111547848
v -0.0392348841 -0.0262598414 -0.00389537797
v -0.0316420346 -0.0372249596 -0.00389537797
v -0.0316420346 -0.0372249596 -0.0111547848
v -0.0392348841 -0.0262598414 -0.0111547848
v -0.0316420346 -0.0372249596 -0.00389537797
v -0.0224148165 -0.0184031483 -0.00389537797
v -0.0224148165 -0.0184031483 -0.0111547848
v -0.0316420346 -0.0372249596 -0.0111547848
v -0.0224148165 -0.0184031483 -0.00389537797
v -0.0224148165 -0.00290540699 -0.00389537797
v -0.0224148165 -0.00290540699 -0.0111547848
v -0.0224148165 -0.0184031483 -0.0111547848
v -0.040565528 0.0132981678 -0.00389537797
v -0.0538628772 0.0277515985 -0.00389537797
v -0.0538628772 0.0277515985 -0.0111547848
v -0.040565528 0.0132981678 -0.0111547848
v -0.0339140296 0.00204044348 -0.00389537797
v -0.0339140296 0.00204044348 -0.0111547848
v -0.0224148165 -0.00290540699 -0.00389537797
v -0.0224148165 -0.00290540699 -0.0111547848
v -0.0993930399 -0.0602574907 -0.00389537797
v -0.0787092224 -0.0259592813 -0.00389537797
v -0.0787092224 -0.0259592813 -0.0111547848
v -0.0993930399 -0.0602574907 -0.0111547848
v -0.0538628772 0.0277515985 -0.00389537797
v -0.0504716858 0.0476236902 -0.00389537797
v -0.0504716858 0.0476236902 -0.0111547848
v -0.0538628772 0.0277515985 -0.0111547848
v -0.0504716858 0.0476236902 -0.00389537797
v -0.0906884 0.0218029581 -0.00389537797
v -0.0906884 0.0218029581 -0.0111547848
v -0.0504716858 0.0476236902 -0.0111547848
v -0.0906884 0.0218029581 -0.00389537797
v -0.0993930399 -0.0602574907 -0.00389537797
v -0.0993930399 -0.0602574907 -0.0111547848
v -0.0906884 0.0218029581 -0.0111547848
v 0.0224148165 -0.00290540699 -0.0111547848
v 0.0224148165 -0.0184031483 -0.0111547848
v 0.0316420346 -0.0372249596 -0.0111547848
v 0.0339140296 0.00204044348 -0.0111547848
v 0.0392348841 -0.0262598414 -0.0111547848
v 0.0490619279 -0.0268020425 -0.0111547848
v 0.0405655652 0.0132981678 -0.0111547848
v 0.0538628772 0.0277515985 -0.0111547848
v 0.0587225333 -0.0391899496 -0.0111547848
v 0.0669749826 -0.0261260029 -0.0111547848
v 0.0787092224 -0.0259592813 -0.0111547848
v 0.0504716858 0.0476236902 -0.0111547848
v 0.0906884 0.0218029581 -0.0111547848
v 0.0993930399 -0.0602574907 -0.0111547848
v 0.0906884 0.0218029581 -0.00389537797
v 0.0993930399 -0.0602574907 -0.00389537797
v 0.0787092224 -0.0259592813 -0.00389537797
v 0.0504716858 0.0476236902 -0.00389537797
v 0.0538628772 0.0277515985 -0.00389537797
v 0.0669749826 -0.0261260029 -0.00389537797
v 0.0587225333 -0.0391899496 -0.00389537797
v 0.0490619279 -0.0268020425 -0.00389537797
v 0.0405655652 0.0132981678 -0.00389537797
v 0.0392348841 -0.0262598414 -0.00389537797
v 0.0339140296 0.00204044348 -0.00389537797
v 0.0316420346 -0.0372249596 -0.00389537797
v 0.0224148165 -0.00290540699 -0.00389537797
v 0.0224148165 -0.0184031483 -0.00389537797
v 0.0787092224 -0.0259592813 -0.00389537797
v 0.0787092224 -0.0259592813 -0.0111547848
v 0.0669749826 -0.0261260029 -0.0111547848
v 0.0669749826 -0.0261260029 -0.00389537797
v 0.0669749826 -0.0261260029 -0.00389537797
v 0.0669749826 -0.0261260029 -0.0111547848
v 0.0587225333 -0.0391899496 -0.0111547848
v 0.0587225333 -0.0391899496 -0.00389537797
v 0.0587225333 -0.0391899496 -0.00389537797
v 0.0587225333 -0.0391899496 -0.0111547848
v 0.0490619279 -0.0268020425 -0.0111547848
v 0.0490619279 -0.0268020425 -0.00389537797
v 0.0490619279 -0.0268020425 -0.00389537797
v 0.0490619279 -0.0268020425 -0.0111547848
v 0.0392348841 -0.0262598414 -0.0111547848
v 0.0392348841 -0.0262598414 -0.00389537797
v 0.0392348841 -0.0262598414 -0.00389537797
v 0.0392348841 -0.0262598414 -0.0111547848
v 0.0316420346 -0.0372249596 -0.0111547848
v 0.0316420346 -0.0372249596 -0.00389537797
v 0.0316420346 -0.0372249596 -0.00389537797
v 0.0316420346 -0.0372249596 -0.0111547848
v 0.0224148165 -0.0184031483 -0.0111547848
v 0.0224148165 -0.0184031483 -0.00389537797
v 0.0224148165 -0.0184031483 -0.00389537797
v 0.0224148165 -0.0184031483 -0.0111547848
v 0.0224148165 -0.00290540699 -0.0111547848
v 0.0224148165 -0.00290540699 -0.00389537797
v 0.0405655652 0.0132981678 -0.00389537797
v 0.0538628772 0.0277515985 -0.0111547848
v 0.0538628772 0.0277515985 -0.00389537797
v 0.0405655652 0.0132981678 -0.0111547848
v 0.0339140296 0.00204044348 -0.00389537797
v 0.0339140296 0.00204044348 -0.0111547848
v 0.0224148165 -0.00290540699 -0.00389537797
v 0.0224148165 -0.00290540699 -0.0111547848
v 0.0993930399 -0.0602574907 -0.00389537797
v 0.0993930399 -0.0602574907 -0.0111547848
v 0.0787092224 -0.0259592813 -0.0111547848
v 0.0787092224 -0.0259592813 -0.00389537797
v 0.0538628772 0.0277515985 -0.00389537797
v 0.0538628772 0.0277515985 -0.0111547848
v 0.0504716858 0.0476236902 -0.0111547848
v 0.0504716858 0.0476236902 -0.00389537797
v 0.0504716858 0.0476236902 -0.00389537797
v 0.0504716858 0.0476236902 -0.0111547848
v 0.0906884 0.0218029581 -0.0111547848
v 0.0906884 0.0218029581 -0.00389537797
v 0.0906884 0.0218029581 -0.00389537797
v 0.0906884 0.0218029581 -0.0111547848
v 0.0993930399 -0.0602574907 -0.0111547848
v 0.0993930399 -0.0602574907 -0.00389537797
vt 0.149867788 0.982879996
vt 0.15035969 0.983863771
vt 0.150851592 0.982879996
vt 0.15035969 0.984847605
vt 0.149867788 0.985831439
vt 0.150851592 0.985831439
vt 0.150851592 0.982879996
vt 0.15035969 0.983863771
vt 0.151835397 0.982879996
vt 0.148883969 0.982879996
vt 0.15035969 0.983863771
vt 0.149867788 0.982879996
vt 0.0397041067 0.99435246
vt 0.0409285054 0.993377268
vt 0.0397800431 0.994937778
vt 0.0414698273 0.955671728
vt 0.0430225283 0.961918294
vt 0.0414698273 0.96313864
vt 0.0397041067 0.99435246
vt 0.0397800431 0.994937778
vt 0.0409285054 0.993377268
vt 0.0414698273 0.955671728
vt 0.0414698273 0.96313864
vt 0.0430225283 0.961918294
vt 0.149867788 0.982879996
vt 0.150851592 0.982879996
vt 0.15035969 0.983863771
vt 0.15035969 0.984847605
vt 0.150851592 0.985831439
vt 0.149867788 0.985831439
vt 0.150851592 0.982879996
vt 0.151835397 0.982879996
vt 0.15035969 0.983863771
vt 0.148883969 0.982879996
vt 0.149867788 0.982879996
vt 0.15035969 0.983863771
vt 0.149867788 0.982879996
vt 0.149867788 0.983863771
vt 0.150851592 0.983863771
vt 0.150851592 0.982879996
vt 0.149867788 0.983863771
vt 0.149867788 0.984847605
vt 0.150851592 0.984847605
vt 0.150851592 0.983863771
vt 0.149867788 0.984847605
vt 0.149867788 0.985831439
vt 0.150851592 0.985831439
vt 0.150851592 0.984847605
vt 0.149867788 0.985831439
vt 0.149867788 0.986815214
vt 0.150851592 0.986815214
vt 0.150851592 0.985831439
vt 0.150851592 0.982879996
vt 0.150851592 0.983863771
vt 0.151835397 0.983863771
vt 0.151835397 0.982879996
vt 0.148883969 0.982879996
vt 0.148883969 0.983863771
vt 0.149867788 0.983863771
vt 0.149867788 0.982879996
vt 0.149867788 0.982879996
vt 0.149867788 0.983863771
vt 0.150851592 0.983863771
vt 0.150851592 0.982879996
vt 0.149867788 0.983863771
vt 0.149867788 0.984847605
vt 0.150851592 0.984847605
vt 0.150851592 0.983863771
vt 0.149867788 0.984847605
vt 0.149867788 0.985831439
vt 0.150851592 0.985831439
vt 0.150851592 0.984847605
vt 0.149867788 0.985831439
vt 0.149867788 0.986815214
vt 0.150851592 0.986815214
vt 0.150851592 0.985831439
vt 0.150851592 0.982879996
vt 0.150851592 0.983863771
vt 0.151835397 0.983863771
vt 0.151835397 0.982879996
vt 0.148883969 0.982879996
vt 0.148883969 0.983863771
vt 0.149867788 0.983863771
vt 0.149867788 0.982879996
vt 0.150851592 0.982879996
vt 0.150851592 0.983565629
vt 0.150851592 0.983863771
vt 0.150756896 0.983863771
vt 0.150809646 0.982879996
vt 0.150736764 0.982879996
vt 0.150662199 0.983863771
vt 0.15047282 0.983863771
vt 0.150679156 0.982879996
vt 0.150619596 0.982879996
vt 0.150501966 0.982879996
vt 0.149867788 0.983863771
vt 0.150280833 0.983863771
vt 0.149867788 0.982879996
vt 0.149867788 0.983863771
vt 0.150280833 0.983863771
vt 0.15047282 0.983863771
vt 0.150501966 0.982879996
vt 0.149867788 0.982879996
vt 0.150619596 0.982879996
vt 0.150679156 0.982879996
vt 0.150736764 0.982879996
vt 0.150662199 0.983863771
vt 0.150809646 0.982879996
vt 0.150756896 0.983863771
vt 0.150851592 0.982879996
vt 0.150851592 0.983565629
vt 0.150851592 0.983863771
vt 0.150501966 0.982879996
vt 0.150619596 0.982879996
vt 0.150619596 0.982879996
vt 0.150501966 0.982879996
vt 0.150619596 0.982879996
vt 0.150679156 0.982879996
vt 0.150679156 0.982879996
vt 0.150619596 0.982879996
vt 0.150679156 0.982879996
vt 0.150736764 0.982879996
vt 0.150736764 0.982879996
vt 0.150679156 0.982879996
vt 0.150736764 0.982879996
vt 0.150809646 0.982879996
vt 0.150809646 0.982879996
vt 0.150736764 0.982879996
vt 0.150809646 0.982879996
vt 0.150851592 0.982879996
vt 0.150851592 0.982879996
vt 0.150809646 0.982879996
vt 0.150851592 0.982879996
vt 0.150851592 0.983565629
vt 0.150851592 0.983565629
vt 0.150851592 0.982879996
vt 0.150851592 0.983565629
vt 0.150851592 0.983863771
vt 0.150851592 0.983863771
vt 0.150851592 0.983565629
vt 0.150662199 0.983863771
vt 0.15047282 0.983863771
vt 0.15047282 0.983863771
vt 0.150662199 0.983863771
vt 0.150756896 0.983863771
vt 0.150756896 0.983863771
vt 0.150851592 0.983863771
vt 0.150851592 0.983863771
vt 0.149867788 0.982879996
vt 0.150501966 0.982879996
vt 0.150501966 0.982879996
vt 0.149867788 0.982879996
vt 0.15047282 0.983863771
vt 0.150280833 0.983863771
vt 0.150280833 0.983863771
vt 0.15047282 0.983863771
vt 0.150280833 0.983863771
vt 0.149867788 0.983863771
vt 0.149867788 0.983863771
vt 0.150280833 0.983863771
vt 0.149867788 0.983863771
vt 0.149867788 0.982879996
vt 0.149867788 0.982879996
vt 0.149867788 0.983863771
vt 0.150851592 0.983863771
vt 0.150851592 0.983565629
vt 0.150851592 0.982879996
vt 0.150756896 0.983863771
vt 0.150809646 0.982879996
vt 0.150736764 0.982879996
vt 0.150662199 0.983863771
vt 0.15047282 0.983863771
vt 0.150679156 0.982879996
vt 0.150619596 0.982879996
vt 0.150501966 0.982879996
vt 0.150280833 0.983863771
vt 0.149867788 0.983863771
vt 0.149867788 0.982879996
vt 0.149867788 0.983863771
vt 0.149867788 0.982879996
vt 0.150501966 0.982879996
vt 0.150280833 0.983863771
vt 0.15047282 0.983863771
vt 0.150619596 0.982879996
vt 0.150679156 0.982879996
vt 0.150736764 0.982879996
vt 0.150662199 0.983863771
vt 0.150809646 0.982879996
vt 0.150756896 0.983863771
vt 0.150851592 0.982879996
vt 0.150851592 0.983863771
vt 0.150851592 0.983565629
vt 0.150501966 0.982879996
vt 0.150501966 0.982879996
vt 0.150619596 0.982879996
vt 0.150619596 0.982879996
vt 0.150619596 0.982879996
vt 0.150619596 0.982879996
vt 0.150679156 0.982879996
vt 0.150679156 0.982879996
vt 0.150679156 0.982879996
vt 0.150679156 0.982879996
vt 0.150736764 0.982879996
vt 0.150736764 0.982879996
vt 0.150736764 0.982879996
vt 0.150736764 0.982879996
vt 0.150809646 0.982879996
vt 0.150809646 0.982879996
vt 0.150809646 0.982879996
vt 0.150809646 0.982879996
vt 0.150851592 0.982879996
vt 0.150851592 0.982879996
vt 0.150851592 0.982879996
vt 0.150851592 0.982879996
vt 0.150851592 0.983565629
vt 0.150851592 0.983565629
vt 0.150851592 0.983565629
vt 0.150851592 0.983565629
vt 0.150851592 0.983863771
vt 0.150851592 0.983863771
vt 0.150662199 0.983863771
vt 0.15047282 0.983863771
vt 0.15047282 0.983863771
vt 0.150662199 0.983863771
vt 0.150756896 0.983863771
vt 0.150756896 0.983863771
vt 0.150851592 0.983863771
vt 0.150851592 0.983863771
vt 0.149867788 0.982879996
vt 0.149867788 0.982879996
vt 0.150501966 0.982879996
vt 0.150501966 0.982879996
vt 0.15047282 0.983863771
vt 0.15047282 0.983863771
vt 0.150280833 0.983863771
vt 0.150280833 0.983863771
vt 0.150280833 0.983863771
vt 0.150280833 0.983863771
vt 0.149867788 0.983863771
vt 0.149867788 0.983863771
vt 0.149867788 0.983863771
vt 0.149867788 0.983863771
vt 0.149867788 0.982879996
vt 0.149867788 0.982879996
g HD_ZHG_bianfu_0
f 3/3/3 2/2/2 1/1/1
f 6/6/6 5/5/5 4/4/4
f 9/9/9 8/8/8 7/7/7
f 12/12/12 11/11/11 10/10/10
f 15/15/15 14/14/14 13/13/13
f 18/18/18 17/17/17 16/16/16
f 21/21/21 20/20/20 19/19/19
f 24/24/24 23/23/23 22/22/22
f 27/27/27 26/26/26 25/25/25
f 30/30/30 29/29/29 28/28/28
f 33/33/33 32/32/32 31/31/31
f 36/36/36 35/35/35 34/34/34
f 39/39/39 38/38/38 37/37/37
f 40/40/40 39/39/39 37/37/37
f 43/43/43 42/42/42 41/41/41
f 44/44/44 43/43/43 41/41/41
f 47/47/47 46/46/46 45/45/45
f 48/48/48 47/47/47 45/45/45
f 51/51/51 50/50/50 49/49/49
f 52/52/52 51/51/51 49/49/49
f 55/55/55 54/54/54 53/53/53
f 56/56/56 55/55/55 53/53/53
f 59/59/59 58/58/58 57/57/57
f 60/60/60 59/59/59 57/57/57
f 63/63/63 62/62/62 61/61/61
f 64/64/64 63/63/63 61/61/61
f 67/67/67 66/66/66 65/65/65
f 68/68/68 67/67/67 65/65/65
f 71/71/71 70/70/70 69/69/69
f 72/72/72 71/71/71 69/69/69
f 75/75/75 74/74/74 73/73/73
f 76/76/76 75/75/75 73/73/73
f 79/79/79 78/78/78 77/77/77
f 80/80/80 79/79/79 77/77/77
f 83/83/83 82/82/82 81/81/81
f 84/84/84 83/83/83 81/81/81
f 87/87/87 86/86/86 85/85/85
f 85/85/85 88/88/88 87/87/87
f 85/85/85 89/89/89 88/88/88
f 88/88/88 89/89/89 90/90/90
f 91/91/91 88/88/88 90/90/90
f 92/92/92 91/91/91 90/90/90
f 90/90/90 93/93/93 92/92/92
f 93/93/93 94/94/94 92/92/92
f 94/94/94 95/95/95 92/92/92
f 92/92/92 95/95/95 96/96/96
f 96/96/96 97/97/97 92/92/92
f 95/95/95 98/98/98 96/96/96
f 101/101/101 100/100/100 99/99/99
f 99/99/99 102/102/102 101/101/101
f 99/99/99 103/103/103 102/102/102
f 102/102/102 104/104/104 101/101/101
f 101/101/101 104/104/104 105/105/105
f 101/101/101 105/105/105 106/106/106
f 106/106/106 107/107/107 101/101/101
f 106/106/106 108/108/108 107/107/107
f 108/108/108 109/109/109 107/107/107
f 109/109/109 108/108/108 110/110/110
f 109/109/109 110/110/110 111/111/111
f 111/111/111 112/112/112 109/109/109
f 115/115/115 114/114/114 113/113/113
f 116/116/116 115/115/115 113/113/113
f 119/119/119 118/118/118 117/117/117
f 120/120/120 119/119/119 117/117/117
f 123/123/123 122/122/122 121/121/121
f 124/124/124 123/123/123 121/121/121
f 127/127/127 126/126/126 125/125/125
f 128/128/128 127/127/127 125/125/125
f 131/131/131 130/130/130 129/129/129
f 132/132/132 131/131/131 129/129/129
f 135/135/135 134/134/134 133/133/133
f 136/136/136 135/135/135 133/133/133
f 139/139/139 138/138/138 137/137/137
f 140/140/140 139/139/139 137/137/137
f 143/143/143 142/142/142 141/141/141
f 144/144/144 143/143/143 141/141/141
f 144/144/144 141/141/141 145/145/145
f 146/146/146 144/144/144 145/145/145
f 146/146/146 145/145/145 147/147/147
f 148/148/148 146/146/146 147/147/147
f 151/151/151 150/150/150 149/149/149
f 152/152/152 151/151/151 149/149/149
f 155/155/155 154/154/154 153/153/153
f 156/156/156 155/155/155 153/153/153
f 159/159/159 158/158/158 157/157/157
f 160/160/160 159/159/159 157/157/157
f 163/163/163 162/162/162 161/161/161
f 164/164/164 163/163/163 161/161/161
f 167/167/167 166/166/166 165/165/165
f 167/167/167 165/165/165 168/168/168
f 168/168/168 169/169/169 167/167/167
f 169/169/169 168/168/168 170/170/170
f 168/168/168 171/171/171 170/170/170
f 170/170/170 171/171/171 172/172/172
f 173/173/173 170/170/170 172/172/172
f 172/172/172 174/174/174 173/173/173
f 175/175/175 174/174/174 172/172/172
f 175/175/175 172/172/172 176/176/176
f 175/175/175 176/176/176 177/177/177
f 177/177/177 178/178/178 175/175/175
f 181/181/181 180/180/180 179/179/179
f 179/179/179 182/182/182 181/181/181
f 182/182/182 183/183/183 181/181/181
f 184/184/184 181/181/181 183/183/183
f 185/185/185 184/184/184 183/183/183
f 183/183/183 186/186/186 185/185/185
f 183/183/183 187/187/187 186/186/186
f 188/188/188 186/186/186 187/187/187
f 189/189/189 188/188/188 187/187/187
f 190/190/190 188/188/188 189/189/189
f 189/189/189 191/191/191 190/190/190
f 191/191/191 192/192/192 190/190/190
f 195/195/195 194/194/194 193/193/193
f 196/196/196 195/195/195 193/193/193
f 199/199/199 198/198/198 197/197/197
f 200/200/200 199/199/199 197/197/197
f 203/203/203 202/202/202 201/201/201
f 204/204/204 203/203/203 201/201/201
f 207/207/207 206/206/206 205/205/205
f 208/208/208 207/207/207 205/205/205
f 211/211/211 210/210/210 209/209/209
f 212/212/212 211/211/211 209/209/209
f 215/215/215 214/214/214 213/213/213
f 216/216/216 215/215/215 213/213/213
f 219/219/219 218/218/218 217/217/217
f 220/220/220 219/219/219 217/217/217
f 223/223/223 222/222/222 221/221/221
f 222/222/222 224/224/224 221/221/221
f 221/221/221 224/224/224 225/225/225
f 224/224/224 226/226/226 225/225/225
f 225/225/225 226/226/226 227/227/227
f 226/226/226 228/228/228 227/227/227
f 231/231/231 230/230/230 229/229/229
f 232/232/232 231/231/231 229/229/229
f 235/235/235 234/234/234 233/233/233
f 236/236/236 235/235/235 233/233/233
f 239/239/239 238/238/238 237/237/237
f 240/240/240 239/239/239 237/237/237
f 243/243/243 242/242/242 241/241/241
f 244/244/244 243/243/243 241/241/241
