g HG
v 0.0057436768 0.00892820302 -0.00790549628
v 0.00219940953 0.00892820302 -0.00676908903
v 0.00301963091 0.00892820302 -0.00929346681
v 0.00418352662 0.00892820302 -0.00575813092
v 0.00790549628 0.00892820302 -0.0057436768
v 0.00575813092 0.00892820302 -0.00418352662
v -1.14856902E-09 0.00892820302 -1.33771672E-09
v -5.33245836E-10 0.00892820302 -0.0071313451
v 0.00678230869 0.00892820302 -0.00220370688
v -0.00220370665 0.00892820302 -0.00678230915
v 0.00713133905 0.00892820302 -7.04416581E-10
v -0.00418352662 0.00892820302 -0.00575813092
v 0.00676908484 0.00892820302 0.00219940697
v -0.00575813092 0.00892820302 -0.00418352662
v -0.0057436768 0.00892820302 -0.00790549535
v -0.00790549256 0.00892820302 -0.0057436768
v -0.00676908903 0.00892820302 -0.00219941046
v -0.00929346681 0.00892820302 -0.00301962788
v -0.00713134231 0.00892820302 -7.04416581E-10
v -0.00678231055 0.00892820302 0.00220370269
v -0.00575813092 0.00892820302 0.00418352475
v -0.00418352662 0.00892820302 0.00575812487
v -0.00790549256 0.00892820302 0.0057436768
v -0.0057436768 0.00892820302 0.00790549163
v -0.00219941046 0.00892820302 0.00676908856
v -0.00301962788 0.00892820302 0.00929346681
v -7.45776163E-10 0.00892820302 0.00713134045
v 0.00220370293 0.00892820302 0.00678230263
v 0.00418352475 0.00892820302 0.00575812487
v 0.00575812487 0.00892820302 0.00418352475
v 0.0057436768 0.00892820302 0.00790549163
v 0.00790549163 0.00892820302 0.0057436768
v 0.00929345842 0.00892820302 0.00301962765
v 0.00948128104 0.0167189408 -0.00308065652
v 0.00832137652 0.0167189408 -0.00543298014
v 0.00842928793 0.0164981838 -0.00594034698
v 0.00981729757 0.0164895821 -0.00318983314
v 0.00844349619 0.0159832574 -0.00613455568
v 0.00996920373 0.0167189408 -5.81441562E-10
v 0.00992371142 0.0159585755 -0.00322440639
v 0.0103225084 0.0164895821 -1.16056727E-10
v 0.00959297549 0.0167189408 0.00259562349
v 0.0104343984 0.0159585755 7.76770731E-11
v 0.00985239074 0.0164981838 0.00304481271
v 0.00992591679 0.0159832574 0.0032251263
v -0.00308065349 0.0167189408 -0.00948127825
v -0.0054329792 0.0167189408 -0.00832137186
v -0.00594034698 0.0164981838 -0.00842928421
v -0.0031898329 0.0164895821 -0.00981729291
v -0.00613455568 0.0159832574 -0.00844348874
v 8.8180574E-11 0.0167189408 -0.00996921118
v -0.00322440639 0.0159585755 -0.00992370304
v 8.59295482E-11 0.0164895821 -0.0103225159
v 0.00259562419 0.0167189408 -0.00959297828
v 7.76770731E-11 0.0159585755 -0.0104344059
v 0.00304481434 0.0164981838 -0.00985239353
v 0.00322512793 0.0159832574 -0.00992592052
v -0.00948127825 0.0167189408 0.00308065349
v -0.00832137186 0.0167189408 0.0054329792
v -0.00842928234 0.0164981838 0.00594034698
v -0.00981729291 0.0164895821 0.00318983151
v -0.00844348874 0.0159832574 0.00613455568
v -0.00996920839 0.0167189408 9.21159329E-11
v -0.00992370304 0.0159585755 0.00322440639
v -0.0103225121 0.0164895821 8.71166056E-11
v -0.00959297828 0.0167189408 -0.00259562396
v -0.0104344022 0.0159585755 7.76770731E-11
v -0.00985239353 0.0164981838 -0.00304481294
v -0.00992592052 0.0159832574 -0.00322512654
v 0.00308065349 0.0167189408 0.00948127825
v 0.00543297874 0.0167189408 0.00832137186
v 0.00594034232 0.0164981838 0.00842928234
v 0.00318983104 0.0164895821 0.00981729291
v 0.00613455521 0.0159832574 0.00844348874
v -2.20859928E-10 0.0167189408 0.00996920653
v 0.00322440639 0.0159585755 0.00992370304
v -2.25305358E-10 0.0164895821 0.0103225112
v -0.00259562396 0.0167189408 0.00959297828
v -2.33292219E-10 0.0159585755 0.0104344012
v -0.00304481294 0.0164981838 0.00985239353
v -0.00322512654 0.0159832574 0.00992592052
v 0.00301963091 0.00892820302 -0.00929346681
v 0.00322512793 0.0159832574 -0.00992592052
v 7.76770731E-11 0.0159585755 -0.0104344059
v -4.08182099E-11 0.00892820302 -0.00977173168
v -0.00322440639 0.0159585755 -0.00992370304
v -0.00301963091 0.00892820302 -0.00929346681
v -0.00613455568 0.0159832574 -0.00844348874
v -0.0057436768 0.00892820302 -0.00790549535
v 0.00276489253 7.59887698E-05 -0.00850945897
v -1.76648626E-10 7.59887698E-05 -0.00894737802
v -0.00276489276 7.59887698E-05 -0.00850945897
v 0.00525913527 7.59887698E-05 -0.00723858038
v 0.0057436768 0.00892820302 -0.00790549628
v -0.00525913481 7.59887698E-05 -0.00723858038
v -0.00790549256 0.00892820302 -0.0057436768
v 0.00723858038 7.59887698E-05 -0.00525913481
v 0.00790549628 0.00892820302 -0.0057436768
v -0.00723857991 7.59887698E-05 -0.00525913481
v -0.00929346681 0.00892820302 -0.00301962788
v -1.82336826E-10 -0.000324459077 -0.00862740353
v -0.00266601495 -0.000324459077 -0.00820514467
v 0.00266601471 -0.000324459077 -0.00820514467
v -0.00507105747 -0.000324459077 -0.00697971648
v 0.00507105794 -0.000324459077 -0.00697971648
v -0.00697971554 -0.000324459077 -0.00507105747
v -2.24497018E-10 -0.000324459077 -0.00769520318
v 0.00237794966 -0.000324459077 -0.00731857447
v -0.00237795012 -0.000324459077 -0.007318574
v 0.00452312781 -0.000324459077 -0.00622555381
v -0.00452312687 -0.000324459077 -0.00622555381
v 0.00697971694 -0.000324459077 -0.00507105747
v 0.00622555381 -0.000324459077 -0.00452312734
v 0.00850946363 7.59887698E-05 -0.00276489276
v 0.00929346867 0.00892820302 -0.00301963091
v 0.00844349619 0.0159832574 -0.00613455568
v 0.00992371142 0.0159585755 -0.00322440639
v 0.00977172609 0.00892820302 -4.08182099E-11
v 0.0104343984 0.0159585755 7.76770731E-11
v 0.00894737057 7.59887698E-05 -1.88223492E-10
v 0.00820515025 -0.000324459077 -0.00266601518
v 0.00929345842 0.00892820302 0.00301962765
v 0.00992591679 0.0159832574 0.0032251263
v 0.00850945897 7.59887698E-05 0.00276488857
v 0.00731857773 -0.000324459077 -0.00237794966
v 0.00862739328 -0.000324459077 -5.29644995E-10
v 0.00723857526 7.59887698E-05 0.00525913481
v 0.00790549163 0.00892820302 0.0057436768
v 0.00769520085 -0.000324459077 6.66505809E-11
v 0.00820514467 -0.000324459077 0.00266601099
v 0.00525913481 7.59887698E-05 0.00723857526
v 0.0057436768 0.00892820302 0.00790549163
v 0.00731857354 -0.000324459077 0.00237794686
v 0.00697970856 -0.000324459077 0.00507105747
v 0.00622554868 -0.000324459077 0.00452312687
v 0.00703254435 0.000105342864 -0.00228501251
v 0.00739444839 0.000105342864 -1.94891728E-10
v 0.00703254109 0.000105342864 0.00228500972
v 0.00598223973 0.000105342864 -0.00434634928
v 0.00434635021 0.000105342864 -0.00598223973
v 0.00228501251 0.000105342864 -0.00703254202
v -1.82793225E-10 0.000105342864 -0.00739445072
v -0.00228501251 0.000105342864 -0.00703254156
v -0.00434634928 0.000105342864 -0.00598223973
v -0.00228501251 0.00576131791 -0.00703254156
v -0.00434634928 0.00576131791 -0.00598223973
v -0.00598223926 0.000105342864 -0.00434634928
v -0.00622555288 -0.000324459077 -0.00452312687
v -0.00703254156 0.000105342864 -0.00228501158
v -1.82793225E-10 0.00576131791 -0.00739445072
v -0.00228501251 0.00576131791 -0.00703254156
v 0.00228501251 0.00576131791 -0.00703254202
v 0.00434635021 0.00576131791 -0.00598223973
v 0.00434635021 0.000105342864 -0.00598223973
v -0.007318574 -0.000324459077 -0.00237794896
v -0.00739445072 0.000105342864 -1.94891728E-10
v -0.00820514467 -0.000324459077 -0.00266601285
v -0.00769520318 -0.000324459077 -1.98855113E-10
v -0.00703254156 0.000105342864 0.00228501158
v -0.00850945897 7.59887698E-05 -0.0027648916
v -0.00862740166 -0.000324459077 -1.94243413E-10
v -0.007318574 -0.000324459077 0.00237794919
v -0.00598223507 0.000105342864 0.00434634881
v -0.00820514467 -0.000324459077 0.00266601238
v -0.00894737802 7.59887698E-05 -1.88223478E-10
v -0.00977172796 0.00892820302 -4.08182099E-11
v -0.00622554868 -0.000324459077 0.00452312687
v -0.00434634928 0.000105342864 0.00598223507
v -0.00697970856 -0.000324459077 0.00507105747
v -0.0104344022 0.0159585755 7.76770731E-11
v -0.00992592052 0.0159832574 -0.00322512654
v -0.00992370304 0.0159585755 0.00322440639
v -0.00929346681 0.00892820302 0.00301962788
v -0.00844348874 0.0159832574 0.00613455568
v -0.00790549256 0.00892820302 0.0057436768
v -0.00850945897 7.59887698E-05 0.00276489137
v -0.00723857526 7.59887698E-05 0.00525913481
v -0.0057436768 0.00892820302 0.00790549163
v -0.00507105747 -0.000324459077 0.00697970856
v -0.00525913481 7.59887698E-05 0.00723857526
v -0.00301962788 0.00892820302 0.00929346681
v -0.00452312734 -0.000324459077 0.00622554868
v -0.00228501158 0.000105342864 0.00703254156
v -0.00266601262 -0.000324459077 0.00820514467
v -0.00237794919 -0.000324459077 0.007318574
v -4.03165112E-10 0.000105342864 0.00739445025
v -0.0027648916 7.59887698E-05 0.00850945897
v -3.54583946E-10 -0.000324459077 0.00769520272
v 0.00228500972 0.000105342864 0.00703254109
v -4.60768729E-10 -0.000324459077 0.00862740166
v 0.00237794756 -0.000324459077 0.00731857354
v 0.00434634881 0.000105342864 0.00598223507
v 0.00266601075 -0.000324459077 0.00820514467
v -4.43301146E-10 7.59887698E-05 0.00894737709
v -3.32038258E-10 0.00892820302 0.00977172609
v -2.33292219E-10 0.0159585755 0.0104344012
v -0.00322512654 0.0159832574 0.00992592052
v 0.00322440639 0.0159585755 0.00992370304
v 0.00301962765 0.00892820302 0.00929346308
v 0.00613455521 0.0159832574 0.00844348874
v 0.00276488857 7.59887698E-05 0.00850945897
v 0.00507105747 -0.000324459077 0.00697970809
v 0.00452312687 -0.000324459077 0.00622554868
v 0.00598223507 0.000105342864 0.00434634881
v 0.00434634881 0.00576131791 0.00598223507
v 0.00598223507 0.00576131791 0.00434634881
v 0.00598223507 0.00576131791 0.00434634881
v 0.00703254109 0.00576131791 0.00228500972
v 0.00739444839 0.00576131791 -1.94891686E-10
v 0.00703254435 0.00576131791 -0.00228501251
v 0.00598223973 0.00576131791 -0.00434634928
v 0.00434635021 0.000105342864 -0.00598223973
v 0.00434635021 0.00576131791 -0.00598223973
v 0.00948128104 0.0167189408 -0.00308065652
v 0.00679330993 0.0167189408 -0.00435328251
v 0.00832137652 0.0167189408 -0.00543298014
v 0.00773195969 0.0167189408 -0.00251226593
v 0.00996920373 0.0167189408 -5.81441562E-10
v 0.00739585375 0.016523743 -0.00240305858
v 0.00635380205 0.0165179633 -0.00444800826
v 0.00812985841 0.0167189408 -1.26985047E-10
v 0.00959297549 0.0167189408 0.00259562349
v 0.00783256907 0.0167189408 0.00202471856
v 0.0074249669 0.0165179633 0.00226219185
v 0.00777645316 0.016523743 -4.54139032E-10
v 0.00723236706 0.0160235018 0.00234993803
v 0.00723457849 0.0160395615 -0.00235065701
v 0.00615222845 0.0160235018 -0.00446985522
v 0.00575813092 0.00892820302 -0.00418352662
v 0.00678230869 0.00892820302 -0.00220370688
v 0.00760687888 0.0160395615 -5.92403571E-10
v 0.00713133905 0.00892820302 -7.04416581E-10
v 0.00676908484 0.00892820302 0.00219940697
v -0.00308065349 0.0167189408 -0.00948127825
v -0.00435328111 0.0167189408 -0.00679330574
v -0.0054329792 0.0167189408 -0.00832137186
v -0.00251226686 0.0167189408 -0.00773195922
v 8.8180574E-11 0.0167189408 -0.00996921118
v -0.00240305858 0.016523743 -0.00739585329
v -0.004448005 0.0165179633 -0.00635379739
v -4.16077089E-10 0.0167189408 -0.00812986027
v 0.00259562419 0.0167189408 -0.00959297828
v 0.00202471972 0.0167189408 -0.00783256907
v 0.00226219487 0.0165179633 -0.00742497109
v -4.21571805E-10 0.016523743 -0.00777646154
v 0.00234994083 0.0160235018 -0.00723237544
v -0.00235065701 0.0160395615 -0.00723457849
v -0.0044698515 0.0160235018 -0.00615222007
v -0.00418352662 0.00892820302 -0.00575813092
v -0.00220370665 0.00892820302 -0.00678230915
v -4.29691477E-10 0.0160395615 -0.00760688726
v -5.33245836E-10 0.00892820302 -0.0071313451
v 0.00219940953 0.00892820302 -0.00676908903
v -0.00948127825 0.0167189408 0.00308065349
v -0.00679330574 0.0167189408 0.00435327832
v -0.00832137186 0.0167189408 0.0054329792
v -0.00773195922 0.0167189408 0.00251226453
v -0.00996920839 0.0167189408 9.21159329E-11
v -0.00739585329 0.016523743 0.00240305695
v -0.00635379739 0.0165179633 0.00444800407
v -0.00812985934 0.0167189408 -5.80629766E-10
v -0.00959297828 0.0167189408 -0.00259562396
v -0.00783256907 0.0167189408 -0.00202471926
v -0.00742497109 0.0165179633 -0.00226219487
v -0.00777646108 0.016523743 -5.84468529E-10
v -0.00723237544 0.0160235018 -0.00234994106
v -0.00723457849 0.0160395615 0.00235065538
v -0.00615222007 0.0160235018 0.0044698515
v -0.00575813092 0.00892820302 0.00418352475
v -0.00678231055 0.00892820302 0.00220370269
v -0.00760688633 0.0160395615 -5.92403571E-10
v -0.00713134231 0.00892820302 -7.04416581E-10
v -0.00676908903 0.00892820302 -0.00219941046
v 0.00308065349 0.0167189408 0.00948127825
v 0.00435327739 0.0167189408 0.00679330528
v 0.00543297874 0.0167189408 0.00832137186
v 0.0025122643 0.0167189408 0.0077319527
v -2.20859928E-10 0.0167189408 0.00996920653
v 0.00240305695 0.016523743 0.0073958491
v 0.00444800407 0.0165179633 0.00635379739
v -3.45411366E-10 0.0167189408 0.00812985841
v -0.00259562396 0.0167189408 0.00959297828
v -0.00202471926 0.0167189408 0.00783256907
v -0.00226219487 0.0165179633 0.00742497016
v -5.63418145E-10 0.016523743 0.00777645316
v -0.00234994106 0.0160235018 0.00723237451
v 0.00235065538 0.0160395615 0.0072345743
v 0.00446985057 0.0160235018 0.00615222007
v 0.00418352475 0.00892820302 0.00575812487
v 0.00220370293 0.00892820302 0.00678230263
v -6.56394272E-10 0.0160395615 0.00760687888
v -7.45776163E-10 0.00892820302 0.00713134045
v -0.00219941046 0.00892820302 0.00676908856
v 0.00844349619 0.0159832574 -0.00613455568
v 0.00615222845 0.0160235018 -0.00446985522
v 0.00575813092 0.00892820302 -0.00418352662
v 0.00790549628 0.00892820302 -0.0057436768
v 0.00301963091 0.00892820302 -0.00929346681
v 0.00219940953 0.00892820302 -0.00676908903
v 0.00234994083 0.0160235018 -0.00723237544
v 0.00322512793 0.0159832574 -0.00992592052
v 0.00226219487 0.0165179633 -0.00742497109
v 0.00304481434 0.0164981838 -0.00985239353
v 0.00202471972 0.0167189408 -0.00783256907
v 0.00259562419 0.0167189408 -0.00959297828
v -0.00613455568 0.0159832574 -0.00844348874
v -0.0044698515 0.0160235018 -0.00615222007
v -0.00418352662 0.00892820302 -0.00575813092
v -0.0057436768 0.00892820302 -0.00790549535
v -0.00929346681 0.00892820302 -0.00301962788
v -0.00676908903 0.00892820302 -0.00219941046
v -0.00723237544 0.0160235018 -0.00234994106
v -0.00992592052 0.0159832574 -0.00322512654
v -0.00742497109 0.0165179633 -0.00226219487
v -0.00985239353 0.0164981838 -0.00304481294
v -0.00783256907 0.0167189408 -0.00202471926
v -0.00959297828 0.0167189408 -0.00259562396
v -0.00844348874 0.0159832574 0.00613455568
v -0.00615222007 0.0160235018 0.0044698515
v -0.00575813092 0.00892820302 0.00418352475
v -0.00790549256 0.00892820302 0.0057436768
v -0.00301962788 0.00892820302 0.00929346681
v -0.00219941046 0.00892820302 0.00676908856
v -0.00234994106 0.0160235018 0.00723237451
v -0.00322512654 0.0159832574 0.00992592052
v 0.00613455521 0.0159832574 0.00844348874
v 0.00418352475 0.00892820302 0.00575812487
v 0.0057436768 0.00892820302 0.00790549163
v 0.00446985057 0.0160235018 0.00615222007
v 0.00594034232 0.0164981838 0.00842928234
v 0.00444800407 0.0165179633 0.00635379739
v 0.00543297874 0.0167189408 0.00832137186
v 0.00435327739 0.0167189408 0.00679330528
v 0.00929345842 0.00892820302 0.00301962765
v 0.00676908484 0.00892820302 0.00219940697
v 0.00723236706 0.0160235018 0.00234993803
v 0.00992591679 0.0159832574 0.0032251263
v 0.00832137652 0.0167189408 -0.00543298014
v 0.00679330993 0.0167189408 -0.00435328251
v 0.00635380205 0.0165179633 -0.00444800826
v 0.00842928793 0.0164981838 -0.00594034698
v 0.00615222845 0.0160235018 -0.00446985522
v 0.00844349619 0.0159832574 -0.00613455568
v -0.0054329792 0.0167189408 -0.00832137186
v -0.00435328111 0.0167189408 -0.00679330574
v -0.004448005 0.0165179633 -0.00635379739
v -0.00594034698 0.0164981838 -0.00842928421
v -0.0044698515 0.0160235018 -0.00615222007
v -0.00613455568 0.0159832574 -0.00844348874
v -0.00832137186 0.0167189408 0.0054329792
v -0.00679330574 0.0167189408 0.00435327832
v -0.00635379739 0.0165179633 0.00444800407
v -0.00842928234 0.0164981838 0.00594034698
v -0.00615222007 0.0160235018 0.0044698515
v -0.00844348874 0.0159832574 0.00613455568
v -0.00322512654 0.0159832574 0.00992592052
v -0.00234994106 0.0160235018 0.00723237451
v -0.00226219487 0.0165179633 0.00742497016
v -0.00304481294 0.0164981838 0.00985239353
v -0.00202471926 0.0167189408 0.00783256907
v -0.00259562396 0.0167189408 0.00959297828
v 0.00992591679 0.0159832574 0.0032251263
v 0.00723236706 0.0160235018 0.00234993803
v 0.0074249669 0.0165179633 0.00226219185
v 0.00985239074 0.0164981838 0.00304481271
v 0.00783256907 0.0167189408 0.00202471856
v 0.00959297549 0.0167189408 0.00259562349
v 0.00434634881 0.000105342864 0.00598223507
v 0.00434634881 0.00576131791 0.00598223507
v 0.00228500972 0.00576131791 0.00703254109
v 0.00228500972 0.000105342864 0.00703254109
v 0.00228500972 0.00576131791 0.00703254109
v -4.03165112E-10 0.00576131791 0.00739445025
v -4.03165112E-10 0.000105342864 0.00739445025
v -0.00228501158 0.00576131791 0.00703254156
v -0.00228501158 0.000105342864 0.00703254156
v -0.00434634928 0.00576131791 0.00598223507
v -0.00434634928 0.000105342864 0.00598223507
v -0.00434634928 0.000105342864 0.00598223507
v -0.00434634928 0.00576131791 0.00598223507
v -0.00598223507 0.00576131791 0.00434634881
v -0.00598223507 0.000105342864 0.00434634881
v -0.00703254156 0.00576131791 0.00228501158
v -0.00703254156 0.000105342864 0.00228501158
v -0.00739445072 0.00576131791 -1.94891686E-10
v -0.00739445072 0.000105342864 -1.94891728E-10
v -0.00703254156 0.00576131791 -0.00228501158
v -0.00703254156 0.000105342864 -0.00228501158
v -0.00598223926 0.00576131791 -0.00434634928
v -0.00598223926 0.000105342864 -0.00434634928
v -0.00434634928 0.00576131791 -0.00598223973
v -0.00434634928 0.000105342864 -0.00598223973
v 0.00598223973 0.00576131791 -0.00434634928
v -4.31629107E-11 0.00576131791 -7.03793468E-10
v 0.00703254435 0.00576131791 -0.00228501251
v 0.00434635021 0.00576131791 -0.00598223973
v 0.00739444839 0.00576131791 -1.94891686E-10
v 0.00228501251 0.00576131791 -0.00703254202
v 0.00703254109 0.00576131791 0.00228500972
v -1.82793225E-10 0.00576131791 -0.00739445072
v 0.00598223507 0.00576131791 0.00434634881
v -0.00228501251 0.00576131791 -0.00703254156
v 0.00434634881 0.00576131791 0.00598223507
v -0.00434634928 0.00576131791 -0.00598223973
v 0.00228500972 0.00576131791 0.00703254109
v -0.00598223926 0.00576131791 -0.00434634928
v -4.03165112E-10 0.00576131791 0.00739445025
v -0.00703254156 0.00576131791 -0.00228501158
v -0.00228501158 0.00576131791 0.00703254156
v -0.00739445072 0.00576131791 -1.94891686E-10
v -0.00434634928 0.00576131791 0.00598223507
v -0.00703254156 0.00576131791 0.00228501158
v -0.00598223507 0.00576131791 0.00434634881
vt 0.500072181 0.968245745
vt 0.39465794 0.824380279
vt 0.355373025 0.945350468
vt 0.500052691 0.841056526
vt 0.644764841 0.945305824
vt 0.605442524 0.824347734
vt 0.500000119 0.50000006
vt 0.299183279 0.77649045
vt 0.700902224 0.776428401
vt 0.223571792 0.700902104
vt 0.77649039 0.70081681
vt 0.175652459 0.605442226
vt 0.824380159 0.605342269
vt 0.158943728 0.500052571
vt 0.0546944216 0.644764602
vt 0.0317546502 0.500072181
vt 0.17561996 0.39465782
vt 0.054649815 0.355372638
vt 0.223509848 0.29918322
vt 0.299097985 0.223571703
vt 0.394557893 0.175652415
vt 0.499947488 0.158943772
vt 0.355235726 0.0546942875
vt 0.499927998 0.0317544974
vt 0.605342388 0.175619841
vt 0.644627512 0.054649625
vt 0.700817049 0.223509729
vt 0.776428342 0.299098045
vt 0.824347734 0.394557923
vt 0.841056406 0.499947399
vt 0.945305943 0.355235636
vt 0.968245745 0.499927789
vt 0.94535023 0.644627094
vt 0.780849755 0.886431038
vt 0.669638097 0.944970608
vt 0.659534574 0.967680573
vt 0.790803134 0.90012604
vt 0.654616594 0.975610435
vt 0.886517584 0.780730188
vt 0.793955266 0.904462993
vt 0.900215685 0.790679157
vt 0.945022941 0.669500291
vt 0.904553771 0.793829918
vt 0.967729867 0.659389853
vt 0.975658178 0.65446943
vt 0.113569066 0.780849397
vt 0.0550294518 0.669637501
vt 0.0323193967 0.659534097
vt 0.0998740494 0.790802598
vt 0.024389727 0.654615998
vt 0.219269484 0.886517644
vt 0.0955370739 0.79395473
vt 0.20932053 0.900215626
vt 0.3304995 0.945022762
vt 0.206169754 0.904553652
vt 0.340610057 0.967729628
vt 0.34553054 0.975658
vt 0.219150513 0.113568783
vt 0.33036238 0.0550291687
vt 0.340465873 0.0323191509
vt 0.209197313 0.0998737663
vt 0.345383942 0.0243893974
vt 0.113482468 0.219269261
vt 0.20604524 0.0955367461
vt 0.099784486 0.209320307
vt 0.0549771599 0.330499172
vt 0.0954464152 0.206169531
vt 0.032270249 0.34060964
vt 0.0243420154 0.345530093
vt 0.886431098 0.219150156
vt 0.944970787 0.330362052
vt 0.967680573 0.340465426
vt 0.900126159 0.20919694
vt 0.975610435 0.345383555
vt 0.780730605 0.113482147
vt 0.904463172 0.206044883
vt 0.790679514 0.0997841358
vt 0.669500768 0.0549768284
vt 0.793830335 0.0954461023
vt 0.659390271 0.0322699659
vt 0.654469788 0.0243416503
vt 0.355373025 0.945350468
vt 0.34553054 0.975658
vt 0.206169754 0.904553652
vt 0.224830627 0.878861308
vt 0.0955370739 0.79395473
vt 0.121223859 0.775286257
vt 0.024389727 0.654615998
vt 0.0546944216 0.644764602
vt 0.367574006 0.907780468
vt 0.248044252 0.846900403
vt 0.153177887 0.752063096
vt 0.50006634 0.928744376
vt 0.500072181 0.968245745
vt 0.0922609493 0.632552385
vt 0.0317546502 0.500072181
vt 0.632552385 0.907739639
vt 0.644764841 0.945305824
vt 0.0712562278 0.50006634
vt 0.054649815 0.355372638
vt 0.257054687 0.834494591
vt 0.165580958 0.743048847
vt 0.372309923 0.893197477
vt 0.106842436 0.627812147
vt 0.500063956 0.913411736
vt 0.0865890235 0.500063896
vt 0.283305228 0.798352182
vt 0.386106819 0.850712299
vt 0.201715156 0.716787279
vt 0.500057101 0.868742406
vt 0.149323404 0.614001989
vt 0.627812147 0.893158138
vt 0.614001989 0.850677192
vt 0.752063274 0.846822798
vt 0.775286555 0.878776371
vt 0.654616594 0.975610435
vt 0.793955266 0.904462993
vt 0.878861248 0.775169492
vt 0.904553771 0.793829918
vt 0.846900165 0.751956105
vt 0.743049026 0.834419847
vt 0.94535023 0.644627094
vt 0.975658178 0.65446943
vt 0.907780409 0.63242662
vt 0.716787517 0.798285484
vt 0.834494233 0.742945611
vt 0.928744197 0.499934107
vt 0.968245745 0.499927789
vt 0.798352122 0.716695309
vt 0.893197417 0.627690852
vt 0.90773958 0.36744836
vt 0.945305943 0.355235636
vt 0.85071218 0.613893747
vt 0.913411319 0.499936432
vt 0.868742108 0.499943435
vt 0.708314776 0.78662765
vt 0.786691606 0.708226204
vt 0.837005317 0.609442472
vt 0.609546423 0.836971641
vt 0.500054777 0.854330778
vt 0.390558124 0.837005436
vt 0.291774333 0.786691666
vt 0.213373065 0.708314598
vt 0.163028911 0.609546423
vt 0.213373035 0.708314419
vt 0.163028806 0.609546304
vt 0.145669892 0.500054836
vt 0.131258294 0.500057042
vt 0.162995189 0.390558124
vt 0.291774213 0.786691427
vt 0.213373035 0.708314419
vt 0.390558094 0.837005258
vt 0.500054836 0.85433054
vt 0.500054777 0.854330778
vt 0.149288297 0.386106819
vt 0.213308901 0.291774333
vt 0.106803127 0.372309774
vt 0.201648399 0.283305198
vt 0.291685969 0.21337311
vt 0.0922201574 0.367574006
vt 0.165506035 0.257054716
vt 0.283213288 0.201715201
vt 0.390454322 0.16302906
vt 0.25695169 0.165581048
vt 0.153100193 0.248044237
vt 0.121139087 0.224830478
vt 0.385998785 0.149323538
vt 0.499945611 0.145669952
vt 0.372188747 0.106842637
vt 0.0954464152 0.206169531
vt 0.0243420154 0.345530093
vt 0.20604524 0.0955367461
vt 0.224713787 0.12122377
vt 0.345383942 0.0243893974
vt 0.355235726 0.0546942875
vt 0.2479375 0.153177932
vt 0.367448419 0.0922610834
vt 0.499927998 0.0317544974
vt 0.499936521 0.0865891725
vt 0.499934167 0.0712564439
vt 0.644627512 0.054649625
vt 0.499943376 0.131258443
vt 0.609442472 0.162995175
vt 0.627690852 0.106803119
vt 0.613893807 0.149288282
vt 0.708226264 0.213308901
vt 0.63242662 0.092220068
vt 0.716695368 0.201648399
vt 0.786627471 0.291685939
vt 0.74294585 0.16550608
vt 0.798285365 0.283213258
vt 0.836971521 0.390454292
vt 0.834419489 0.25695166
vt 0.751956284 0.153100118
vt 0.775169671 0.121138893
vt 0.793830335 0.0954461023
vt 0.654469788 0.0243416503
vt 0.904463172 0.206044883
vt 0.878776312 0.224713698
vt 0.975610435 0.345383555
vt 0.84682256 0.247937426
vt 0.893157959 0.372188717
vt 0.850677073 0.385998785
vt 0.854330599 0.49994567
vt 0.836971521 0.390454143
vt 0.85433048 0.499945432
vt 0.85433048 0.499945432
vt 0.837005258 0.609442294
vt 0.786691546 0.708226025
vt 0.708314657 0.786627412
vt 0.609546423 0.836971462
vt 0.500054777 0.854330778
vt 0.500054836 0.85433054
vt 0.780849755 0.886431038
vt 0.640797257 0.860079527
vt 0.669638097 0.944970608
vt 0.729032278 0.815133393
vt 0.886517584 0.780730188
vt 0.719076335 0.801434636
vt 0.621089518 0.851375699
vt 0.815204084 0.728934646
vt 0.945022941 0.669500291
vt 0.860693395 0.642062366
vt 0.851577461 0.621377289
vt 0.801502168 0.718982875
vt 0.846581042 0.612551749
vt 0.714299142 0.794861436
vt 0.612659037 0.846546471
vt 0.605442524 0.824347734
vt 0.700902224 0.776428401
vt 0.794927597 0.714207768
vt 0.77649039 0.70081681
vt 0.824380159 0.605342269
vt 0.113569066 0.780849397
vt 0.139920563 0.640796721
vt 0.0550294518 0.669637501
vt 0.184866518 0.72903192
vt 0.219269484 0.886517644
vt 0.198565289 0.719075978
vt 0.148624495 0.621089041
vt 0.271065146 0.815203786
vt 0.3304995 0.945022762
vt 0.357937545 0.860693038
vt 0.378622591 0.851577342
vt 0.281016767 0.801502168
vt 0.387448102 0.846581042
vt 0.205138475 0.714298785
vt 0.153453767 0.612658501
vt 0.175652459 0.605442226
vt 0.223571792 0.700902104
vt 0.285791993 0.794927537
vt 0.299183279 0.77649045
vt 0.39465794 0.824380279
vt 0.219150513 0.113568783
vt 0.35920313 0.139920294
vt 0.33036238 0.0550291687
vt 0.27096796 0.184866294
vt 0.113482468 0.219269261
vt 0.280923903 0.198565051
vt 0.37891081 0.148624092
vt 0.184796065 0.271064937
vt 0.0549771599 0.330499172
vt 0.139306799 0.357937157
vt 0.148422584 0.378622264
vt 0.198497757 0.281016588
vt 0.153418839 0.387447745
vt 0.285701066 0.205138206
vt 0.38734141 0.153453484
vt 0.394557893 0.175652415
vt 0.299097985 0.223571703
vt 0.205072343 0.285791755
vt 0.223509848 0.29918322
vt 0.17561996 0.39465782
vt 0.886431098 0.219150156
vt 0.860079527 0.359202772
vt 0.944970787 0.330362052
vt 0.815133452 0.270967841
vt 0.780730605 0.113482147
vt 0.801434696 0.280923724
vt 0.851375699 0.378910452
vt 0.728934944 0.184795842
vt 0.669500768 0.0549768284
vt 0.642062664 0.139306396
vt 0.621377528 0.148422316
vt 0.718983114 0.198497772
vt 0.612552106 0.153418526
vt 0.794861674 0.285700977
vt 0.846546412 0.387341022
vt 0.824347734 0.394557923
vt 0.776428342 0.299098045
vt 0.714208007 0.205072299
vt 0.700817049 0.223509729
vt 0.605342388 0.175619841
vt 0.654616594 0.975610435
vt 0.612659037 0.846546471
vt 0.605442524 0.824347734
vt 0.644764841 0.945305824
vt 0.355373025 0.945350468
vt 0.39465794 0.824380279
vt 0.387448102 0.846581042
vt 0.34553054 0.975658
vt 0.378622591 0.851577342
vt 0.340610057 0.967729628
vt 0.357937545 0.860693038
vt 0.3304995 0.945022762
vt 0.024389727 0.654615998
vt 0.153453767 0.612658501
vt 0.175652459 0.605442226
vt 0.0546944216 0.644764602
vt 0.054649815 0.355372638
vt 0.17561996 0.39465782
vt 0.153418839 0.387447745
vt 0.0243420154 0.345530093
vt 0.148422584 0.378622264
vt 0.032270249 0.34060964
vt 0.139306799 0.357937157
vt 0.0549771599 0.330499172
vt 0.345383942 0.0243893974
vt 0.38734141 0.153453484
vt 0.394557893 0.175652415
vt 0.355235726 0.0546942875
vt 0.644627512 0.054649625
vt 0.605342388 0.175619841
vt 0.612552106 0.153418526
vt 0.654469788 0.0243416503
vt 0.975610435 0.345383555
vt 0.824347734 0.394557923
vt 0.945305943 0.355235636
vt 0.846546412 0.387341022
vt 0.967680573 0.340465426
vt 0.851375699 0.378910452
vt 0.944970787 0.330362052
vt 0.860079527 0.359202772
vt 0.94535023 0.644627094
vt 0.824380159 0.605342269
vt 0.846581042 0.612551749
vt 0.975658178 0.65446943
vt 0.669638097 0.944970608
vt 0.640797257 0.860079527
vt 0.621089518 0.851375699
vt 0.659534574 0.967680573
vt 0.612659037 0.846546471
vt 0.654616594 0.975610435
vt 0.0550294518 0.669637501
vt 0.139920563 0.640796721
vt 0.148624495 0.621089041
vt 0.0323193967 0.659534097
vt 0.153453767 0.612658501
vt 0.024389727 0.654615998
vt 0.33036238 0.0550291687
vt 0.35920313 0.139920294
vt 0.37891081 0.148624092
vt 0.340465873 0.0323191509
vt 0.38734141 0.153453484
vt 0.345383942 0.0243893974
vt 0.654469788 0.0243416503
vt 0.612552106 0.153418526
vt 0.621377528 0.148422316
vt 0.659390271 0.0322699659
vt 0.642062664 0.139306396
vt 0.669500768 0.0549768284
vt 0.975658178 0.65446943
vt 0.846581042 0.612551749
vt 0.851577461 0.621377289
vt 0.967729867 0.659389853
vt 0.860693395 0.642062366
vt 0.945022941 0.669500291
vt 0.836971521 0.390454292
vt 0.836971521 0.390454143
vt 0.786627293 0.2916857
vt 0.786627471 0.291685939
vt 0.786627293 0.2916857
vt 0.708226144 0.213308752
vt 0.708226264 0.213308901
vt 0.609442413 0.162994981
vt 0.609442472 0.162995175
vt 0.499945551 0.145669833
vt 0.499945611 0.145669952
vt 0.499945611 0.145669952
vt 0.499945551 0.145669833
vt 0.390454233 0.163028851
vt 0.390454322 0.16302906
vt 0.291685909 0.213372901
vt 0.291685969 0.21337311
vt 0.213308886 0.291774154
vt 0.213308901 0.291774333
vt 0.16299516 0.390557945
vt 0.162995189 0.390558124
vt 0.145669818 0.500054657
vt 0.145669892 0.500054836
vt 0.163028806 0.609546304
vt 0.163028911 0.609546423
vt 0.609546423 0.836971462
vt 0.500000179 0.500000119
vt 0.708314657 0.786627412
vt 0.500054836 0.85433054
vt 0.786691546 0.708226025
vt 0.390558094 0.837005258
vt 0.837005258 0.609442294
vt 0.291774213 0.786691427
vt 0.85433048 0.499945432
vt 0.213373035 0.708314419
vt 0.836971521 0.390454143
vt 0.163028806 0.609546304
vt 0.786627293 0.2916857
vt 0.145669818 0.500054657
vt 0.708226144 0.213308752
vt 0.16299516 0.390557945
vt 0.609442413 0.162994981
vt 0.213308886 0.291774154
vt 0.499945551 0.145669833
vt 0.291685909 0.213372901
vt 0.390454233 0.163028851
vn -0 1 -3.22702533E-07
vn -0 1 0
vn -0 1 -2.15135202E-07
vn -0 1 0
vn -0 1 -4.30269893E-07
vn -0 1 0
vn -0 1 0
vn -0 1 0
vn -0 1 0
vn -0 1 0
vn -0 1 0
vn -0 1 0
vn -0 1 -2.46613496E-07
vn -0 1 0
vn -0 1 0
vn -0 1 0
vn -0 1 0
vn -0 1 0
vn -0 1 0
vn -0 1 0
vn -0 1 0
vn -0 1 0
vn -0 1 0
vn -0 1 0
vn -0 1 0
vn -0 1 0
vn -0 1 0
vn -0 1 0
vn -0 1 1.23306961E-07
vn -0 1 0
vn -0 1 0
vn -0 1 0
vn -0 1 0
vn 0.523942053 0.836311162 -0.161456838
vn 0.498556763 0.830762923 -0.247536018
vn 0.834985733 0.354397714 -0.420952767
vn 0.832097948 0.487905264 -0.26374501
vn 0.888523877 -0.075883165 -0.452511847
vn 0.548191905 0.836310863 -0.00835160445
vn 0.948471367 -0.0730442107 -0.308328629
vn 0.872873247 0.487906456 -0.00629370753
vn 0.550649226 0.830762506 0.0813576803
vn 0.997328758 -0.073044084 0.000146598599
vn 0.924198806 0.354400963 0.142325237
vn 0.984870195 -0.0758830309 0.155796096
vn -0.161457777 0.836312115 -0.523940206
vn -0.247535408 0.830763459 -0.498556286
vn -0.420954108 0.354395002 -0.83498621
vn -0.263747543 0.4879044 -0.83209765
vn -0.452511847 -0.0758828148 -0.888523936
vn -0.0083522303 0.8363114 -0.54819119
vn -0.308330208 -0.0730440319 -0.94847095
vn -0.00629496295 0.487905055 -0.872874022
vn 0.081358701 0.830761373 -0.550650895
vn 0.00014500368 -0.0730440766 -0.997328758
vn 0.142326742 0.35439837 -0.924199522
vn 0.155796036 -0.0758829117 -0.984870255
vn -0.523942351 0.836310804 0.161457568
vn -0.498556614 0.830763161 0.247535691
vn -0.834985971 0.354396254 0.420953482
vn -0.832098424 0.487903565 0.263746649
vn -0.888523877 -0.075882934 0.452512026
vn -0.548192322 0.836310565 0.00835228246
vn -0.94847095 -0.0730441809 0.30832997
vn -0.872874737 0.487903804 0.00629500626
vn -0.550649226 0.830762506 -0.0813580081
vn -0.997328758 -0.0730442181 -0.000144993013
vn -0.924200177 0.354397267 -0.142325565
vn -0.984870374 -0.0758830383 -0.155795187
vn 0.161457941 0.836312115 0.523940206
vn 0.24753657 0.83076328 0.498555988
vn 0.420953661 0.354396045 0.834985852
vn 0.26374647 0.487904072 0.832098186
vn 0.452511638 -0.0758832321 0.888524055
vn 0.00835215859 0.836311162 0.548191488
vn 0.308329791 -0.073044315 0.948471069
vn 0.00629493082 0.487904578 0.87287426
vn -0.0813579485 0.830761135 0.550651312
vn -0.000144757287 -0.0730442107 0.997328758
vn -0.142325312 0.354398161 0.92419982
vn -0.155794859 -0.0758829415 0.984870374
vn 0.261731207 -0.092956692 -0.960653841
vn 0.155796036 -0.0758829117 -0.984870255
vn 0.00014500368 -0.0730440766 -0.997328758
vn 6.64560939E-05 -0.0932452083 -0.995643139
vn -0.308330208 -0.0730440319 -0.94847095
vn -0.3077344 -0.0932450518 -0.946892202
vn -0.452511847 -0.0758828148 -0.888523936
vn -0.545779407 -0.0929564983 -0.832756758
vn 0.306818873 -0.119070627 -0.944290459
vn -0 -0.119070657 -0.992885768
vn -0.306818932 -0.119070612 -0.944290459
vn 0.583603621 -0.119070545 -0.803261459
vn 0.585253 -0.0927227363 -0.80553174
vn -0.583603859 -0.119070508 -0.80326128
vn -0.80553174 -0.0927225947 -0.585253
vn 0.80326122 -0.119070485 -0.583604038
vn 0.832756758 -0.0929566994 -0.545779526
vn -0.803261518 -0.119070426 -0.583603501
vn -0.960653961 -0.0929565504 -0.261730999
vn -0 -0.934749126 -0.355308503
vn -0.10979636 -0.934749126 -0.337918311
vn 0.109796338 -0.934749126 -0.337918282
vn -0.208845302 -0.934748948 -0.287450969
vn 0.208845198 -0.934748948 -0.28745085
vn -0.287450969 -0.934748948 -0.208845183
vn -0 -0.96018374 0.279369086
vn -0.0863296315 -0.96018374 0.265696019
vn 0.0863296539 -0.96018374 0.265695989
vn -0.164209187 -0.96018368 0.226014569
vn 0.164209098 -0.96018374 0.22601451
vn 0.287450671 -0.934749067 -0.208845317
vn -0.226014525 -0.96018368 0.164209247
vn 0.944290757 -0.119070604 -0.30681777
vn 0.946892619 -0.0932452977 -0.307733148
vn 0.888523877 -0.075883165 -0.452511847
vn 0.948471367 -0.0730442107 -0.308328629
vn 0.995643139 -0.0932452306 6.79014702E-05
vn 0.997328758 -0.073044084 0.000146598599
vn 0.992885768 -0.119070627 1.27121007E-06
vn 0.337919384 -0.934748828 -0.109796077
vn 0.960653961 -0.0929565951 0.261731178
vn 0.984870195 -0.0758830309 0.155796096
vn 0.944290578 -0.119070403 0.306818515
vn -0.265695751 -0.960183859 0.0863294154
vn 0.355308205 -0.934749246 3.46511627E-07
vn 0.803261757 -0.119070545 0.583603263
vn 0.805531979 -0.0927226171 0.585252702
vn -0.27937007 -0.960183442 -2.3887165E-07
vn 0.337919116 -0.934748828 0.109796472
vn 0.583603621 -0.119070642 0.803261459
vn 0.545779169 -0.0929566398 0.832756937
vn -0.265696377 -0.96018368 -0.0863299146
vn 0.28745085 -0.934748948 0.208845451
vn -0.226015061 -0.960183561 -0.164209545
vn -0.949723363 -0.0529380292 0.308582515
vn -0.998597801 -0.0529378876 -7.96009033E-07
vn -0.949723005 -0.0529379435 -0.308583528
vn -0.807882547 -0.0529379733 0.586961269
vn -0.586960971 -0.0529379211 0.807882726
vn -0.308582932 -0.0529379323 0.949723244
vn 1.18554468E-07 -0.0529379286 0.998597801
vn 0.308582991 -0.0529379249 0.949723125
vn 0.586960912 -0.0529379435 0.807882726
vn 0.309016317 0 0.951056659
vn 0.587785125 0 0.809017062
vn 0.807882786 -0.0529379137 0.586960852
vn 0.226014629 -0.96018368 0.164209127
vn 0.949723125 -0.0529379286 0.308583111
vn 1.10102057E-07 0 1
vn 0.309016317 0 0.951056659
vn -0.309016228 0 0.951056778
vn -0.587785184 0 0.809017062
vn -0.586960971 -0.0529379211 0.807882726
vn 0.265696079 -0.96018368 0.0863297656
vn 0.998597801 -0.0529380627 0
vn -0.337918282 -0.934749126 -0.109796308
vn 0.279369146 -0.96018374 0
vn 0.949722886 -0.0529380403 -0.308583975
vn -0.944290459 -0.119070455 -0.306818813
vn -0.355308443 -0.934749126 0
vn 0.2656959 -0.96018374 -0.0863299146
vn 0.807882369 -0.05293791 -0.586961269
vn -0.33791846 -0.934749067 0.109796748
vn -0.992885768 -0.119070433 0
vn -0.995643139 -0.0932450816 -6.64511681E-05
vn 0.226015061 -0.960183561 -0.164209634
vn 0.586961448 -0.0529379249 -0.807882309
vn -0.287450552 -0.934749067 0.208845347
vn -0.997328758 -0.0730442181 -0.000144993013
vn -0.984870374 -0.0758830383 -0.155795187
vn -0.94847095 -0.0730441809 0.30832997
vn -0.946892202 -0.0932450742 0.30773434
vn -0.888523877 -0.075882934 0.452512026
vn -0.832756758 -0.0929566696 0.545779407
vn -0.94429034 -0.119070627 0.30681923
vn -0.80326122 -0.119070791 0.583603978
vn -0.585253298 -0.0927228108 0.805531621
vn -0.208845302 -0.934749067 0.287450552
vn -0.583603859 -0.119070746 0.80326128
vn -0.261731058 -0.0929566324 0.960653961
vn 0.164209604 -0.960183561 -0.226015016
vn 0.308583796 -0.0529379547 -0.949722886
vn -0.109796718 -0.934749067 0.337918371
vn 0.0863298699 -0.96018374 -0.26569593
vn -1.10086361E-07 -0.0529379323 -0.998597801
vn -0.306819141 -0.119070597 0.94429034
vn -0 -0.96018374 -0.279369175
vn -0.308583796 -0.0529379584 -0.949722886
vn -0 -0.934749126 0.355308503
vn -0.0863298923 -0.96018374 -0.265695959
vn -0.586961269 -0.0529379882 -0.807882547
vn 0.109796822 -0.934749067 0.33791855
vn 2.10407237E-07 -0.119070388 0.992885768
vn -6.62226958E-05 -0.0932450965 0.995643139
vn -0.000144757287 -0.0730442107 0.997328758
vn -0.155794859 -0.0758829415 0.984870374
vn 0.308329791 -0.073044315 0.948471069
vn 0.307734281 -0.0932451263 0.946892202
vn 0.452511638 -0.0758832321 0.888524055
vn 0.306819081 -0.11907047 0.94429034
vn 0.208845392 -0.934748948 0.287450731
vn -0.164209545 -0.960183561 -0.226015002
vn -0.807882547 -0.0529379398 -0.58696115
vn -0.587785363 0 -0.809017003
vn -0.809017003 0 -0.587785363
vn -0.809017003 0 -0.587785363
vn -0.95105654 0 -0.309016794
vn -1 0 -7.89065155E-07
vn -0.951056898 0 0.30901581
vn -0.809016883 0 0.587785423
vn -0.586960971 -0.0529379211 0.807882726
vn -0.587785184 0 0.809017062
vn -0 1 6.31391288E-07
vn -0.0925999582 0.994596958 0.0469269492
vn -0 1 6.93004381E-07
vn -0.066273801 0.997585177 0.020774385
vn -0 1 0
vn -0.74475348 0.623413861 0.238112211
vn -0.770151198 0.503842175 0.391164929
vn -0.0698827058 0.997554839 0.000954626419
vn -0 1 -7.00546593E-07
vn -0.101274744 0.994744301 -0.0150772175
vn -0.849394679 0.51116395 -0.131302074
vn -0.778654456 0.627432883 0.00502659241
vn -0.983843386 0.0827400386 -0.158764824
vn -0.947214246 0.0863555968 0.30875206
vn -0.88661319 0.0824629441 0.455101103
vn -0.887544572 0.0667786524 0.455856651
vn -0.94844228 0.0671815276 0.309747905
vn -0.996243834 0.0865878686 -0.000880722422
vn -0.997739673 0.06718117 -0.00150560832
vn -0.984972298 0.0667779744 -0.15928036
vn -0 1 -5.74693104E-07
vn 0.0469267853 0.994596958 0.0926001668
vn -0 1 0
vn 0.0207740795 0.997585297 0.0662733614
vn -0 1 -4.97855808E-07
vn 0.238114417 0.623412609 0.744753778
vn 0.391166389 0.503843486 0.770149827
vn 0.000954677991 0.997554839 0.0698824003
vn -0 1 1.75136194E-07
vn -0.0150768962 0.994744182 0.101275653
vn -0.131303206 0.51115793 0.849398077
vn 0.00502751395 0.627429247 0.778657377
vn -0.15876548 0.0827401131 0.983843267
vn 0.308754593 0.0863553807 0.947213411
vn 0.455103129 0.0824623555 0.886612117
vn 0.455858707 0.0667780265 0.887543559
vn 0.309750527 0.0671812296 0.948441565
vn -0.000879480562 0.086587958 0.996243834
vn -0.00150435767 0.0671813935 0.997739673
vn -0.159281045 0.0667783245 0.984972179
vn -0 1 -3.14235791E-07
vn 0.0925998166 0.994596958 -0.0469263718
vn -0 1 0
vn 0.0662737265 0.997585177 -0.0207741521
vn -0 1 -3.15791624E-07
vn 0.744753599 0.623413026 -0.238114268
vn 0.77014941 0.503843963 -0.391166419
vn 0.0698827878 0.997554839 -0.000954876246
vn -0 1 0
vn 0.101275288 0.994744182 0.0150769902
vn 0.849398255 0.511157572 0.131303355
vn 0.778657794 0.62742883 -0.00502729136
vn 0.983843386 0.0827402622 0.158764392
vn 0.94721359 0.0863554925 -0.308754206
vn 0.886612236 0.0824624151 -0.45510298
vn 0.887543619 0.0667780265 -0.455858439
vn 0.948441744 0.067181319 -0.309749871
vn 0.996243834 0.0865880921 0.000879536849
vn 0.997739673 0.0671815351 0.00150443136
vn 0.984972417 0.0667784363 0.159279853
vn -0 1 0
vn -0.0469265692 0.994596958 -0.0925999135
vn -0 1 3.46501849E-07
vn -0.0207740609 0.997585177 -0.0662738085
vn -0 1 0
vn -0.238113448 0.623413324 -0.744753599
vn -0.391166031 0.503843069 -0.770150185
vn -0.00095475337 0.997554839 -0.0698824525
vn -0 1 5.25409405E-07
vn 0.0150766652 0.994744301 -0.101274922
vn 0.131300762 0.511161208 -0.849396348
vn -0.00502800336 0.627431333 -0.778655589
vn 0.158762857 0.0827398598 -0.983843744
vn -0.308753729 0.0863556489 -0.947213709
vn -0.455102116 0.082462959 -0.886612713
vn -0.455857545 0.0667786226 -0.887544096
vn -0.309749573 0.0671815053 -0.948441744
vn 0.000878609426 0.0865877941 -0.996243834
vn 0.00150344288 0.0671811923 -0.997739673
vn 0.159278408 0.0667780191 -0.984972596
vn -0.587444007 0.0165506396 -0.809095621
vn -0.587483585 0.0149612911 -0.809097648
vn -0.587784708 0 -0.80901736
vn -0.587784648 0 -0.80901736
vn 0.951056361 0 0.30901745
vn 0.951056361 0 0.30901742
vn 0.951016426 0.0151989236 0.308766603
vn 0.950997889 0.016930379 0.308733493
vn 0.856910884 0.436784089 0.273721486
vn 0.861562371 0.42655164 0.275252789
vn 0.492491305 0.856380224 0.155130103
vn 0.492491305 0.856380224 0.155130073
vn -0.809095383 0.0165505446 0.587444365
vn -0.809097409 0.0149610778 0.587484002
vn -0.809017062 -3.83647233E-07 0.587785125
vn -0.809017062 -3.83647176E-07 0.587785125
vn 0.309016645 0 -0.95105654
vn 0.309016645 0 -0.95105654
vn 0.308765858 0.0151989004 -0.951016665
vn 0.308732718 0.0169303622 -0.950998127
vn 0.273721576 0.436784089 -0.856910884
vn 0.275252908 0.426551402 -0.861562371
vn 0.155130535 0.856380224 -0.492491007
vn 0.15513055 0.856380224 -0.492491037
vn 0.587444842 0.0165506173 0.809094906
vn 0.587484598 0.0149611821 0.809097052
vn 0.587785602 -3.06917798E-07 0.809016764
vn 0.587785602 -3.06917769E-07 0.809016645
vn -0.951056659 -2.30188391E-07 -0.309016407
vn -0.951056659 -2.30188391E-07 -0.309016407
vn -0.951016784 0.0151987998 -0.30876565
vn -0.950998247 0.0169302691 -0.308732539
vn 0.809095323 0.0165510923 -0.587444305
vn 0.809017062 1.15094096E-07 -0.587785125
vn 0.809017062 1.15094082E-07 -0.587785125
vn 0.80909735 0.0149616729 -0.587484062
vn 0.738097489 0.419313431 -0.528572023
vn 0.734059811 0.430052012 -0.525558233
vn 0.429708868 0.850955844 -0.302033991
vn 0.429708868 0.850955844 -0.30203402
vn -0.30901736 -1.15094174E-07 0.95105648
vn -0.30901739 -1.15094188E-07 0.95105648
vn -0.308766603 0.0151988948 0.951016426
vn -0.308733493 0.0169304442 0.950997889
vn -0.302033335 0.850956798 -0.42970717
vn -0.302033335 0.850956798 -0.42970717
vn -0.525558889 0.430048913 -0.734061182
vn -0.528572619 0.419310063 -0.738098919
vn -0.587483585 0.0149612911 -0.809097648
vn -0.587444007 0.0165506396 -0.809095621
vn -0.429707587 0.850957215 0.302031636
vn -0.429707617 0.850957215 0.302031636
vn -0.734060943 0.430050522 0.525557816
vn -0.738098383 0.419312656 0.528571308
vn -0.809097409 0.0149610778 0.587484002
vn -0.809095383 0.0165505446 0.587444365
vn 0.30203402 0.850958526 0.429703414
vn 0.302033991 0.850958526 0.429703414
vn 0.525559306 0.430052072 0.734058976
vn 0.528572977 0.419313431 0.738096714
vn 0.587484598 0.0149611821 0.809097052
vn 0.587444842 0.0165506173 0.809094906
vn -0.950998247 0.0169302691 -0.308732539
vn -0.951016784 0.0151987998 -0.30876565
vn -0.856910765 0.436784208 -0.273721725
vn -0.861562192 0.4265517 -0.275252908
vn -0.492491394 0.856379747 -0.155131832
vn -0.492491394 0.856379747 -0.155131832
vn -0.308733493 0.0169304442 0.950997889
vn -0.308766603 0.0151988948 0.951016426
vn -0.273722351 0.436783284 0.856911004
vn -0.275253445 0.426551938 0.861561894
vn -0.155130908 0.856378376 0.492494226
vn -0.155130908 0.856378376 0.492494226
vn -0.586961269 -0.0529379882 -0.807882547
vn -0.587785363 0 -0.809017003
vn -0.309017092 0 -0.95105648
vn -0.308583796 -0.0529379584 -0.949722886
vn -0.309017092 0 -0.95105648
vn -1.19277303E-07 0 -1
vn -1.10086361E-07 -0.0529379323 -0.998597801
vn 0.309017122 0 -0.95105648
vn 0.308583796 -0.0529379547 -0.949722886
vn 0.587785542 0 -0.809016764
vn 0.586961448 -0.0529379249 -0.807882309
vn 0.586961448 -0.0529379249 -0.807882309
vn 0.587785542 0 -0.809016764
vn 0.809016824 0 -0.587785542
vn 0.807882369 -0.05293791 -0.586961269
vn 0.95105648 0 -0.309017301
vn 0.949722886 -0.0529380403 -0.308583975
vn 1 0 0
vn 0.998597801 -0.0529380627 0
vn 0.951056659 0 0.309016407
vn 0.949723125 -0.0529379286 0.308583111
vn 0.809017122 0 0.587785006
vn 0.807882786 -0.0529379137 0.586960852
vn 0.587785125 0 0.809017062
vn 0.586960912 -0.0529379435 0.807882726
vn -0 -1 0
vn -0 -1 0
vn -0 -1 0
vn -0 -1 -1.76382699E-07
vn -0 -1 0
vn -0 -1 0
vn -0 -1 0
vn -0 -1 -1.76382571E-07
vn -0 -1 0
vn -0 -1 0
vn -0 -1 -3.52765625E-07
vn -0 -1 0
vn -0 -1 0
vn -0 -1 0
vn -0 -1 1.76382727E-07
vn -0 -1 0
vn -0 -1 0
vn -0 -1 0
vn -0 -1 -1.76382585E-07
vn -0 -1 0
vn -0 -1 0
g HG_0
f 3/3/3 2/2/2 1/1/1
f 2/2/2 4/4/4 1/1/1
f 1/1/1 4/4/4 5/5/5
f 4/4/4 6/6/6 5/5/5
f 2/2/2 7/7/7 4/4/4
f 4/4/4 7/7/7 6/6/6
f 8/8/8 7/7/7 2/2/2
f 6/6/6 7/7/7 9/9/9
f 10/10/10 7/7/7 8/8/8
f 9/9/9 7/7/7 11/11/11
f 12/12/12 7/7/7 10/10/10
f 11/11/11 7/7/7 13/13/13
f 14/14/14 7/7/7 12/12/12
f 14/14/14 12/12/12 15/15/15
f 16/16/16 14/14/14 15/15/15
f 17/17/17 14/14/14 16/16/16
f 17/17/17 7/7/7 14/14/14
f 18/18/18 17/17/17 16/16/16
f 19/19/19 7/7/7 17/17/17
f 20/20/20 7/7/7 19/19/19
f 21/21/21 7/7/7 20/20/20
f 22/22/22 7/7/7 21/21/21
f 22/22/22 21/21/21 23/23/23
f 24/24/24 22/22/22 23/23/23
f 25/25/25 22/22/22 24/24/24
f 25/25/25 7/7/7 22/22/22
f 26/26/26 25/25/25 24/24/24
f 27/27/27 7/7/7 25/25/25
f 28/28/28 7/7/7 27/27/27
f 29/29/29 7/7/7 28/28/28
f 30/30/30 7/7/7 29/29/29
f 30/30/30 29/29/29 31/31/31
f 13/13/13 7/7/7 30/30/30
f 32/32/32 30/30/30 31/31/31
f 13/13/13 30/30/30 32/32/32
f 33/33/33 13/13/13 32/32/32
f 36/36/36 35/35/35 34/34/34
f 37/37/37 36/36/36 34/34/34
f 38/38/38 36/36/36 37/37/37
f 34/34/34 39/39/39 37/37/37
f 40/40/40 38/38/38 37/37/37
f 39/39/39 41/41/41 37/37/37
f 37/37/37 41/41/41 40/40/40
f 41/41/41 39/39/39 42/42/42
f 41/41/41 43/43/43 40/40/40
f 44/44/44 41/41/41 42/42/42
f 43/43/43 41/41/41 44/44/44
f 45/45/45 43/43/43 44/44/44
f 48/48/48 47/47/47 46/46/46
f 49/49/49 48/48/48 46/46/46
f 50/50/50 48/48/48 49/49/49
f 49/49/49 46/46/46 51/51/51
f 52/52/52 50/50/50 49/49/49
f 53/53/53 49/49/49 51/51/51
f 52/52/52 49/49/49 53/53/53
f 53/53/53 51/51/51 54/54/54
f 55/55/55 52/52/52 53/53/53
f 56/56/56 53/53/53 54/54/54
f 55/55/55 53/53/53 56/56/56
f 57/57/57 55/55/55 56/56/56
f 60/60/60 59/59/59 58/58/58
f 61/61/61 60/60/60 58/58/58
f 62/62/62 60/60/60 61/61/61
f 61/61/61 58/58/58 63/63/63
f 64/64/64 62/62/62 61/61/61
f 65/65/65 61/61/61 63/63/63
f 64/64/64 61/61/61 65/65/65
f 65/65/65 63/63/63 66/66/66
f 67/67/67 64/64/64 65/65/65
f 68/68/68 65/65/65 66/66/66
f 67/67/67 65/65/65 68/68/68
f 69/69/69 67/67/67 68/68/68
f 72/72/72 71/71/71 70/70/70
f 73/73/73 72/72/72 70/70/70
f 74/74/74 72/72/72 73/73/73
f 73/73/73 70/70/70 75/75/75
f 76/76/76 74/74/74 73/73/73
f 77/77/77 73/73/73 75/75/75
f 76/76/76 73/73/73 77/77/77
f 77/77/77 75/75/75 78/78/78
f 79/79/79 76/76/76 77/77/77
f 80/80/80 77/77/77 78/78/78
f 79/79/79 77/77/77 80/80/80
f 81/81/81 79/79/79 80/80/80
f 84/84/84 83/83/83 82/82/82
f 85/85/85 84/84/84 82/82/82
f 86/86/86 84/84/84 85/85/85
f 87/87/87 86/86/86 85/85/85
f 88/88/88 86/86/86 87/87/87
f 89/89/89 88/88/88 87/87/87
f 85/85/85 82/82/82 90/90/90
f 87/87/87 85/85/85 91/91/91
f 91/91/91 85/85/85 90/90/90
f 89/89/89 87/87/87 92/92/92
f 92/92/92 87/87/87 91/91/91
f 90/90/90 82/82/82 93/93/93
f 82/82/82 94/94/94 93/93/93
f 95/95/95 89/89/89 92/92/92
f 96/96/96 89/89/89 95/95/95
f 93/93/93 94/94/94 97/97/97
f 94/94/94 98/98/98 97/97/97
f 99/99/99 96/96/96 95/95/95
f 100/100/100 96/96/96 99/99/99
f 101/101/101 91/91/91 90/90/90
f 102/102/102 92/92/92 91/91/91
f 101/101/101 102/102/102 91/91/91
f 103/103/103 90/90/90 93/93/93
f 103/103/103 101/101/101 90/90/90
f 104/104/104 95/95/95 92/92/92
f 102/102/102 104/104/104 92/92/92
f 105/105/105 93/93/93 97/97/97
f 105/105/105 103/103/103 93/93/93
f 106/106/106 99/99/99 95/95/95
f 104/104/104 106/106/106 95/95/95
f 101/101/101 107/107/107 102/102/102
f 103/103/103 108/108/108 101/101/101
f 108/108/108 107/107/107 101/101/101
f 102/102/102 109/109/109 104/104/104
f 107/107/107 109/109/109 102/102/102
f 105/105/105 110/110/110 103/103/103
f 110/110/110 108/108/108 103/103/103
f 104/104/104 111/111/111 106/106/106
f 109/109/109 111/111/111 104/104/104
f 112/112/112 105/105/105 97/97/97
f 113/113/113 110/110/110 105/105/105
f 112/112/112 113/113/113 105/105/105
f 112/112/112 97/97/97 114/114/114
f 97/97/97 98/98/98 114/114/114
f 98/98/98 115/115/115 114/114/114
f 98/98/98 116/116/116 115/115/115
f 116/116/116 117/117/117 115/115/115
f 115/115/115 117/117/117 118/118/118
f 117/117/117 119/119/119 118/118/118
f 114/114/114 115/115/115 120/120/120
f 115/115/115 118/118/118 120/120/120
f 121/121/121 112/112/112 114/114/114
f 114/114/114 120/120/120 121/121/121
f 118/118/118 119/119/119 122/122/122
f 119/119/119 123/123/123 122/122/122
f 120/120/120 118/118/118 124/124/124
f 118/118/118 122/122/122 124/124/124
f 125/125/125 113/113/113 112/112/112
f 121/121/121 125/125/125 112/112/112
f 120/120/120 126/126/126 121/121/121
f 126/126/126 120/120/120 124/124/124
f 124/124/124 122/122/122 127/127/127
f 122/122/122 128/128/128 127/127/127
f 129/129/129 125/125/125 121/121/121
f 126/126/126 129/129/129 121/121/121
f 130/130/130 126/126/126 124/124/124
f 130/130/130 124/124/124 127/127/127
f 127/127/127 128/128/128 131/131/131
f 128/128/128 132/132/132 131/131/131
f 133/133/133 129/129/129 126/126/126
f 130/130/130 133/133/133 126/126/126
f 134/134/134 130/130/130 127/127/127
f 134/134/134 127/127/127 131/131/131
f 135/135/135 133/133/133 130/130/130
f 134/134/134 135/135/135 130/130/130
f 136/136/136 125/125/125 129/129/129
f 137/137/137 129/129/129 133/133/133
f 137/137/137 136/136/136 129/129/129
f 133/133/133 135/135/135 138/138/138
f 138/138/138 137/137/137 133/133/133
f 125/125/125 136/136/136 139/139/139
f 113/113/113 125/125/125 139/139/139
f 113/113/113 139/139/139 140/140/140
f 110/110/110 113/113/113 140/140/140
f 110/110/110 140/140/140 141/141/141
f 108/108/108 110/110/110 141/141/141
f 108/108/108 141/141/141 142/142/142
f 107/107/107 108/108/108 142/142/142
f 107/107/107 142/142/142 143/143/143
f 109/109/109 107/107/107 143/143/143
f 109/109/109 143/143/143 144/144/144
f 111/111/111 109/109/109 144/144/144
f 143/143/143 145/145/145 144/144/144
f 145/145/145 146/146/146 144/144/144
f 111/111/111 144/144/144 147/147/147
f 148/148/148 111/111/111 147/147/147
f 148/148/148 147/147/147 149/149/149
f 111/111/111 148/148/148 106/106/106
f 142/142/142 150/150/150 143/143/143
f 150/150/150 151/151/151 143/143/143
f 152/152/152 150/150/150 142/142/142
f 141/141/141 152/152/152 142/142/142
f 153/153/153 152/152/152 141/141/141
f 154/154/154 153/153/153 141/141/141
f 155/155/155 148/148/148 149/149/149
f 155/155/155 149/149/149 156/156/156
f 106/106/106 148/148/148 157/157/157
f 148/148/148 155/155/155 157/157/157
f 106/106/106 157/157/157 99/99/99
f 158/158/158 155/155/155 156/156/156
f 158/158/158 156/156/156 159/159/159
f 157/157/157 160/160/160 99/99/99
f 160/160/160 100/100/100 99/99/99
f 157/157/157 155/155/155 161/161/161
f 155/155/155 158/158/158 161/161/161
f 157/157/157 161/161/161 160/160/160
f 162/162/162 158/158/158 159/159/159
f 162/162/162 159/159/159 163/163/163
f 161/161/161 158/158/158 164/164/164
f 158/158/158 162/162/162 164/164/164
f 161/161/161 165/165/165 160/160/160
f 161/161/161 164/164/164 165/165/165
f 166/166/166 100/100/100 160/160/160
f 165/165/165 166/166/166 160/160/160
f 167/167/167 162/162/162 163/163/163
f 167/167/167 163/163/163 168/168/168
f 164/164/164 162/162/162 169/169/169
f 162/162/162 167/167/167 169/169/169
f 166/166/166 170/170/170 100/100/100
f 170/170/170 171/171/171 100/100/100
f 172/172/172 170/170/170 166/166/166
f 173/173/173 172/172/172 166/166/166
f 173/173/173 166/166/166 165/165/165
f 174/174/174 172/172/172 173/173/173
f 175/175/175 174/174/174 173/173/173
f 164/164/164 176/176/176 165/165/165
f 176/176/176 173/173/173 165/165/165
f 175/175/175 173/173/173 176/176/176
f 164/164/164 169/169/169 176/176/176
f 177/177/177 175/175/175 176/176/176
f 169/169/169 177/177/177 176/176/176
f 178/178/178 175/175/175 177/177/177
f 169/169/169 167/167/167 179/179/179
f 169/169/169 179/179/179 177/177/177
f 180/180/180 178/178/178 177/177/177
f 179/179/179 180/180/180 177/177/177
f 181/181/181 178/178/178 180/180/180
f 167/167/167 182/182/182 179/179/179
f 182/182/182 167/167/167 168/168/168
f 182/182/182 168/168/168 183/183/183
f 179/179/179 184/184/184 180/180/180
f 179/179/179 182/182/182 184/184/184
f 185/185/185 182/182/182 183/183/183
f 182/182/182 185/185/185 184/184/184
f 185/185/185 183/183/183 186/186/186
f 184/184/184 187/187/187 180/180/180
f 187/187/187 181/181/181 180/180/180
f 188/188/188 185/185/185 186/186/186
f 188/188/188 186/186/186 189/189/189
f 184/184/184 185/185/185 190/190/190
f 184/184/184 190/190/190 187/187/187
f 185/185/185 188/188/188 190/190/190
f 191/191/191 188/188/188 189/189/189
f 191/191/191 189/189/189 192/192/192
f 190/190/190 188/188/188 193/193/193
f 188/188/188 191/191/191 193/193/193
f 190/190/190 194/194/194 187/187/187
f 190/190/190 193/193/193 194/194/194
f 195/195/195 181/181/181 187/187/187
f 194/194/194 195/195/195 187/187/187
f 195/195/195 196/196/196 181/181/181
f 196/196/196 197/197/197 181/181/181
f 198/198/198 196/196/196 195/195/195
f 199/199/199 198/198/198 195/195/195
f 199/199/199 195/195/195 194/194/194
f 200/200/200 198/198/198 199/199/199
f 132/132/132 200/200/200 199/199/199
f 201/201/201 199/199/199 194/194/194
f 132/132/132 199/199/199 201/201/201
f 193/193/193 201/201/201 194/194/194
f 131/131/131 132/132/132 201/201/201
f 193/193/193 202/202/202 201/201/201
f 202/202/202 131/131/131 201/201/201
f 193/193/193 191/191/191 202/202/202
f 202/202/202 134/134/134 131/131/131
f 191/191/191 203/203/203 202/202/202
f 202/202/202 203/203/203 134/134/134
f 203/203/203 191/191/191 192/192/192
f 203/203/203 135/135/135 134/134/134
f 203/203/203 192/192/192 204/204/204
f 135/135/135 203/203/203 204/204/204
f 192/192/192 205/205/205 204/204/204
f 205/205/205 206/206/206 204/204/204
f 135/135/135 204/204/204 138/138/138
f 204/204/204 207/207/207 138/138/138
f 207/207/207 208/208/208 138/138/138
f 138/138/138 208/208/208 137/137/137
f 208/208/208 209/209/209 137/137/137
f 137/137/137 209/209/209 136/136/136
f 209/209/209 210/210/210 136/136/136
f 136/136/136 210/210/210 139/139/139
f 210/210/210 211/211/211 139/139/139
f 139/139/139 211/211/211 212/212/212
f 211/211/211 213/213/213 212/212/212
f 216/216/216 215/215/215 214/214/214
f 215/215/215 217/217/217 214/214/214
f 214/214/214 217/217/217 218/218/218
f 219/219/219 217/217/217 215/215/215
f 220/220/220 219/219/219 215/215/215
f 217/217/217 221/221/221 218/218/218
f 218/218/218 221/221/221 222/222/222
f 221/221/221 223/223/223 222/222/222
f 223/223/223 221/221/221 224/224/224
f 225/225/225 221/221/221 217/217/217
f 221/221/221 225/225/225 224/224/224
f 219/219/219 225/225/225 217/217/217
f 224/224/224 225/225/225 226/226/226
f 227/227/227 219/219/219 220/220/220
f 228/228/228 227/227/227 220/220/220
f 228/228/228 229/229/229 227/227/227
f 229/229/229 230/230/230 227/227/227
f 231/231/231 225/225/225 219/219/219
f 227/227/227 231/231/231 219/219/219
f 227/227/227 230/230/230 231/231/231
f 225/225/225 231/231/231 226/226/226
f 230/230/230 232/232/232 231/231/231
f 231/231/231 232/232/232 226/226/226
f 232/232/232 233/233/233 226/226/226
f 236/236/236 235/235/235 234/234/234
f 235/235/235 237/237/237 234/234/234
f 234/234/234 237/237/237 238/238/238
f 237/237/237 235/235/235 239/239/239
f 235/235/235 240/240/240 239/239/239
f 237/237/237 241/241/241 238/238/238
f 238/238/238 241/241/241 242/242/242
f 241/241/241 243/243/243 242/242/242
f 243/243/243 241/241/241 244/244/244
f 241/241/241 237/237/237 245/245/245
f 241/241/241 245/245/245 244/244/244
f 237/237/237 239/239/239 245/245/245
f 244/244/244 245/245/245 246/246/246
f 239/239/239 240/240/240 247/247/247
f 240/240/240 248/248/248 247/247/247
f 248/248/248 249/249/249 247/247/247
f 249/249/249 250/250/250 247/247/247
f 245/245/245 239/239/239 251/251/251
f 239/239/239 247/247/247 251/251/251
f 247/247/247 250/250/250 251/251/251
f 245/245/245 251/251/251 246/246/246
f 250/250/250 252/252/252 251/251/251
f 251/251/251 252/252/252 246/246/246
f 252/252/252 253/253/253 246/246/246
f 256/256/256 255/255/255 254/254/254
f 255/255/255 257/257/257 254/254/254
f 254/254/254 257/257/257 258/258/258
f 257/257/257 255/255/255 259/259/259
f 255/255/255 260/260/260 259/259/259
f 257/257/257 261/261/261 258/258/258
f 258/258/258 261/261/261 262/262/262
f 261/261/261 263/263/263 262/262/262
f 263/263/263 261/261/261 264/264/264
f 261/261/261 257/257/257 265/265/265
f 261/261/261 265/265/265 264/264/264
f 257/257/257 259/259/259 265/265/265
f 264/264/264 265/265/265 266/266/266
f 259/259/259 260/260/260 267/267/267
f 260/260/260 268/268/268 267/267/267
f 268/268/268 269/269/269 267/267/267
f 269/269/269 270/270/270 267/267/267
f 265/265/265 259/259/259 271/271/271
f 259/259/259 267/267/267 271/271/271
f 267/267/267 270/270/270 271/271/271
f 265/265/265 271/271/271 266/266/266
f 270/270/270 272/272/272 271/271/271
f 271/271/271 272/272/272 266/266/266
f 272/272/272 273/273/273 266/266/266
f 276/276/276 275/275/275 274/274/274
f 275/275/275 277/277/277 274/274/274
f 274/274/274 277/277/277 278/278/278
f 277/277/277 275/275/275 279/279/279
f 275/275/275 280/280/280 279/279/279
f 277/277/277 281/281/281 278/278/278
f 278/278/278 281/281/281 282/282/282
f 281/281/281 283/283/283 282/282/282
f 283/283/283 281/281/281 284/284/284
f 281/281/281 277/277/277 285/285/285
f 281/281/281 285/285/285 284/284/284
f 277/277/277 279/279/279 285/285/285
f 284/284/284 285/285/285 286/286/286
f 279/279/279 280/280/280 287/287/287
f 280/280/280 288/288/288 287/287/287
f 288/288/288 289/289/289 287/287/287
f 289/289/289 290/290/290 287/287/287
f 285/285/285 279/279/279 291/291/291
f 279/279/279 287/287/287 291/291/291
f 287/287/287 290/290/290 291/291/291
f 285/285/285 291/291/291 286/286/286
f 290/290/290 292/292/292 291/291/291
f 291/291/291 292/292/292 286/286/286
f 292/292/292 293/293/293 286/286/286
f 296/296/296 295/295/295 294/294/294
f 297/297/297 296/296/296 294/294/294
f 300/300/300 299/299/299 298/298/298
f 301/301/301 300/300/300 298/298/298
f 302/302/302 300/300/300 301/301/301
f 303/303/303 302/302/302 301/301/301
f 304/304/304 302/302/302 303/303/303
f 305/305/305 304/304/304 303/303/303
f 308/308/308 307/307/307 306/306/306
f 309/309/309 308/308/308 306/306/306
f 312/312/312 311/311/311 310/310/310
f 313/313/313 312/312/312 310/310/310
f 314/314/314 312/312/312 313/313/313
f 315/315/315 314/314/314 313/313/313
f 316/316/316 314/314/314 315/315/315
f 317/317/317 316/316/316 315/315/315
f 320/320/320 319/319/319 318/318/318
f 321/321/321 320/320/320 318/318/318
f 324/324/324 323/323/323 322/322/322
f 325/325/325 324/324/324 322/322/322
f 328/328/328 327/327/327 326/326/326
f 327/327/327 329/329/329 326/326/326
f 326/326/326 329/329/329 330/330/330
f 329/329/329 331/331/331 330/330/330
f 330/330/330 331/331/331 332/332/332
f 331/331/331 333/333/333 332/332/332
f 336/336/336 335/335/335 334/334/334
f 337/337/337 336/336/336 334/334/334
f 340/340/340 339/339/339 338/338/338
f 341/341/341 340/340/340 338/338/338
f 342/342/342 340/340/340 341/341/341
f 343/343/343 342/342/342 341/341/341
f 346/346/346 345/345/345 344/344/344
f 347/347/347 346/346/346 344/344/344
f 348/348/348 346/346/346 347/347/347
f 349/349/349 348/348/348 347/347/347
f 352/352/352 351/351/351 350/350/350
f 353/353/353 352/352/352 350/350/350
f 354/354/354 352/352/352 353/353/353
f 355/355/355 354/354/354 353/353/353
f 358/358/358 357/357/357 356/356/356
f 359/359/359 358/358/358 356/356/356
f 360/360/360 358/358/358 359/359/359
f 361/361/361 360/360/360 359/359/359
f 364/364/364 363/363/363 362/362/362
f 365/365/365 364/364/364 362/362/362
f 366/366/366 364/364/364 365/365/365
f 367/367/367 366/366/366 365/365/365
f 370/370/370 369/369/369 368/368/368
f 371/371/371 370/370/370 368/368/368
f 373/373/373 372/372/372 371/371/371
f 374/374/374 373/373/373 371/371/371
f 375/375/375 373/373/373 374/374/374
f 376/376/376 375/375/375 374/374/374
f 377/377/377 375/375/375 376/376/376
f 378/378/378 377/377/377 376/376/376
f 381/381/381 380/380/380 379/379/379
f 382/382/382 381/381/381 379/379/379
f 383/383/383 381/381/381 382/382/382
f 384/384/384 383/383/383 382/382/382
f 385/385/385 383/383/383 384/384/384
f 386/386/386 385/385/385 384/384/384
f 387/387/387 385/385/385 386/386/386
f 388/388/388 387/387/387 386/386/386
f 389/389/389 387/387/387 388/388/388
f 390/390/390 389/389/389 388/388/388
f 391/391/391 389/389/389 390/390/390
f 392/392/392 391/391/391 390/390/390
f 395/395/395 394/394/394 393/393/393
f 393/393/393 394/394/394 396/396/396
f 397/397/397 394/394/394 395/395/395
f 396/396/396 394/394/394 398/398/398
f 399/399/399 394/394/394 397/397/397
f 398/398/398 394/394/394 400/400/400
f 401/401/401 394/394/394 399/399/399
f 400/400/400 394/394/394 402/402/402
f 403/403/403 394/394/394 401/401/401
f 402/402/402 394/394/394 404/404/404
f 405/405/405 394/394/394 403/403/403
f 404/404/404 394/394/394 406/406/406
f 407/407/407 394/394/394 405/405/405
f 406/406/406 394/394/394 408/408/408
f 409/409/409 394/394/394 407/407/407
f 408/408/408 394/394/394 410/410/410
f 411/411/411 394/394/394 409/409/409
f 410/410/410 394/394/394 412/412/412
f 413/413/413 394/394/394 411/411/411
f 412/412/412 394/394/394 413/413/413
