g ZC_sword_01
v -0.0475212336 0.000213070365 0.938127935
v -8.78911451E-05 -0.0319197103 0.938127935
v -8.78911451E-05 -0.0132221077 0.873862267
v -8.78911451E-05 -0.0132221077 0.873862267
v -8.78911451E-05 -0.0319197103 0.938127935
v 0.0458163321 0.000213070365 0.938127935
v 0.0458163321 0.000213070365 0.938127935
v -8.78911451E-05 -0.0319197103 0.938127935
v -8.78911451E-05 0.000213070365 1.00392354
v -8.78911451E-05 0.000213070365 1.00392354
v -8.78911451E-05 -0.0319197103 0.938127935
v -0.0475212336 0.000213070365 0.938127935
v -8.78911451E-05 -0.0132221077 0.873862267
v -8.78911451E-05 0.0136481896 0.873862267
v -0.0475212336 0.000213070365 0.938127935
v 0.0458163321 0.000213070365 0.938127935
v -8.78911451E-05 0.0136481896 0.873862267
v -8.78911451E-05 -0.0132221077 0.873862267
v -8.78911451E-05 0.0136481896 0.873862267
v -8.78911451E-05 0.0369362757 0.938127935
v -0.0475212336 0.000213070365 0.938127935
v 0.0458163321 0.000213070365 0.938127935
v -8.78911451E-05 0.0369362757 0.938127935
v -8.78911451E-05 0.0136481896 0.873862267
v -8.78911451E-05 0.000213070365 1.00392354
v -8.78911451E-05 0.0369362757 0.938127935
v 0.0458163321 0.000213070365 0.938127935
v -0.0475212336 0.000213070365 0.938127935
v -8.78911451E-05 0.0369362757 0.938127935
v -8.78911451E-05 0.000213070365 1.00392354
v -0.0804591477 1.7023833E-08 0.202613771
v -0 -0.0372623466 0.204676926
v -0 -4.20427995E-08 0
v 0.0783974901 1.7023833E-08 0.202613771
v -0 -4.20427995E-08 0
v -0 -0.0372623466 0.204676926
v -0.0804591477 1.7023833E-08 0.202613771
v -0 -4.20427995E-08 0
v -0 0.0372623801 0.204676926
v 0.0783974901 1.7023833E-08 0.202613771
v -0 0.0372623801 0.204676926
v -0 -4.20427995E-08 0
v -0.141866237 7.60904584E-08 0.727824271
v -0.175499737 7.60904584E-08 0.680177689
v -0.147471905 0.0190794263 0.680177689
v 0.139809296 0.00155630475 0.727805614
v 0.145412609 0.0194361303 0.67980206
v 0.173440441 0.000292396842 0.680177808
v -0.141866237 7.60904584E-08 0.727824271
v -0.147471905 -0.0191493854 0.680177689
v -0.175499737 7.60904584E-08 0.680177689
v 0.139809296 0.00155630475 0.727805614
v 0.173440441 0.000292396842 0.680177808
v 0.145412609 -0.0187812224 0.680553615
v -0 -0.0471971966 0.618607938
v -0.0433237255 -0.0557872541 0.68871212
v -0 -0.0784709156 0.686539769
v -0.0433237255 -0.0557872541 0.68871212
v -0 -0.0437368974 0.756852448
v -0 -0.0784709156 0.686539769
v -0 -0.0471971966 0.618607938
v -0 -0.0784709156 0.686539769
v 0.0412630066 -0.0557872541 0.68871212
v 0.0412630066 -0.0557872541 0.68871212
v -0 -0.0784709156 0.686539769
v -0 -0.0437368974 0.756852448
v -0 0.0471971147 0.618607938
v -0 0.0784708336 0.686539769
v -0.0433237255 0.0557871759 0.68871212
v -0.0433237255 0.0557871759 0.68871212
v -0 0.0784708336 0.686539769
v -0 0.0437368117 0.756852448
v -0 0.0471971147 0.618607938
v 0.0412630066 0.0557871759 0.68871212
v -0 0.0784708336 0.686539769
v 0.0412630066 0.0557871759 0.68871212
v -0 0.0437368117 0.756852448
v -0 0.0784708336 0.686539769
v -0.0515769832 1.7023833E-08 0.291326225
v -0 -0.0372623466 0.204676926
v -0.0804591477 1.7023833E-08 0.202613771
v -0 -0.030946115 0.299578518
v -0.0371349603 1.7023833E-08 0.40815711
v -0.0123775313 -0.0226938557 0.40815711
v -0.0453867987 1.7023833E-08 0.523689508
v -0 -0.017433973 0.573203564
v -0.0288816933 -0.0112075815 0.573203564
v -0.0557017215 -4.20427995E-08 0.573203564
v -0.0330092721 1.7023833E-08 0.618591189
v -0 -0.0247569364 0.637158871
v -0.0350718759 -0.016504677 0.682546616
v -0 -0.0350723304 0.682546616
v -0 -0.0247569364 0.637158871
v -0.0371349603 1.7023833E-08 0.637158871
v -0.0330092721 1.7023833E-08 0.618591189
v -0.057765279 1.7023833E-08 0.651600361
v -0.057765279 -0.0103153801 0.682546616
v -0.0350718759 -0.016504677 0.682546616
v -0.0371349603 1.7023833E-08 0.637158871
v -0.057765279 1.7023833E-08 0.651600361
v -0.0956217945 1.7023833E-08 0.659157395
v -0.0956217945 -0.00980953407 0.680177569
v -0.057765279 -0.0103153801 0.682546616
v -0.0350718759 -0.016504677 0.682546616
v -0.057765279 -0.0103153801 0.682546616
v -0.057765279 1.7023833E-08 0.707303584
v -0.0285367444 -4.20427995E-08 0.723808229
v -0 -0.0350723304 0.682546616
v -0.000142232457 -0.0226938557 0.723808229
v -0.0215257723 -2.19242708E-07 0.841798782
v -0.000200826544 -0.0120030921 0.841798782
v -0.0309452452 -1.01109435E-07 0.936754167
v -0 -0.0103154983 0.936754167
v -0.057765279 -0.0103153801 0.682546616
v -0.0956217945 -0.00980953407 0.680177569
v -0.0956217945 1.7023833E-08 0.696994185
v -0.057765279 1.7023833E-08 0.707303584
v 0.04951391 1.7023833E-08 0.291326225
v 0.0783974901 1.7023833E-08 0.202613771
v -0 -0.0372623466 0.204676926
v -0 -0.030946115 0.299578518
v 0.0350728221 1.7023833E-08 0.40815711
v 0.010315869 -0.0226938557 0.40815711
v 0.0453877486 1.7023833E-08 0.523689508
v -0 -0.017433973 0.573203564
v 0.0268214494 -0.0112075815 0.573203564
v 0.0536414832 -4.20427995E-08 0.573203564
v 0.0309471358 1.7023833E-08 0.618591189
v -0 -0.0247569364 0.637158871
v 0.0330097415 -0.016504677 0.682546616
v -0 -0.0247569364 0.637158871
v -0 -0.0350723304 0.682546616
v 0.0350728221 1.7023833E-08 0.637158871
v 0.0309471358 1.7023833E-08 0.618591189
v 0.0557036139 1.7023833E-08 0.651600361
v 0.0350728221 1.7023833E-08 0.637158871
v 0.0330097415 -0.016504677 0.682546616
v 0.0557036139 -0.0103153801 0.682546616
v 0.0557036139 1.7023833E-08 0.651600361
v 0.0557036139 -0.0103153801 0.682546616
v 0.0935629681 -0.00980959274 0.680177569
v 0.0935629681 -5.88724142E-05 0.659158111
v 0.0330097415 -0.016504677 0.682546616
v 0.0557036139 1.7023833E-08 0.707303584
v 0.0557036139 -0.0103153801 0.682546616
v 0.0267595463 -4.20427995E-08 0.723808229
v -0 -0.0350723304 0.682546616
v -0.000142232457 -0.0226938557 0.723808229
v 0.0198714342 -2.19242708E-07 0.841798782
v -0.000200826544 -0.0120030921 0.841798782
v 0.0288835838 -1.01109435E-07 0.936754167
v -0 -0.0103154983 0.936754167
v 0.0557036139 -0.0103153801 0.682546616
v 0.0557036139 1.7023833E-08 0.707303584
v 0.0935629681 -1.01109435E-07 0.696993947
v 0.0935629681 -0.00980959274 0.680177569
v -0.0515769832 1.7023833E-08 0.291326225
v -0.0804591477 1.7023833E-08 0.202613771
v -0 0.0372623801 0.204676926
v -0 0.0309461802 0.299578518
v -0.0371349603 1.7023833E-08 0.40815711
v -0.0123775313 0.0226938911 0.40815711
v -0.0453867987 1.7023833E-08 0.523689508
v -0 0.017434068 0.573203564
v -0.0288816933 0.0112075564 0.573203564
v -0.0557017215 -4.20427995E-08 0.573203564
v -0.0330092721 1.7023833E-08 0.618591189
v -0 0.0247569699 0.637158871
v -0.0350718759 0.0165046547 0.682546616
v -0 0.0247569699 0.637158871
v -0 0.0350723378 0.682546616
v -0.0371349603 1.7023833E-08 0.637158871
v -0.0330092721 1.7023833E-08 0.618591189
v -0.057765279 1.7023833E-08 0.651600361
v -0.0371349603 1.7023833E-08 0.637158871
v -0.0350718759 0.0165046547 0.682546616
v -0.057765279 0.0103154136 0.682546616
v -0.057765279 1.7023833E-08 0.651600361
v -0.057765279 0.0103154136 0.682546616
v -0.0956217945 0.00980950799 0.680177569
v -0.0956217945 1.7023833E-08 0.659157395
v -0.0350718759 0.0165046547 0.682546616
v -0.057765279 1.7023833E-08 0.707303584
v -0.057765279 0.0103154136 0.682546616
v -0.0285367444 -4.20427995E-08 0.723808229
v -0 0.0350723378 0.682546616
v -0.000142232457 0.0226938333 0.723808229
v -0.0215257723 -2.19242708E-07 0.841798782
v -0.000200826544 0.0120026525 0.841798782
v -0.0309452452 -1.01109435E-07 0.936754167
v -0 0.0103152953 0.936754167
v -0.057765279 0.0103154136 0.682546616
v -0.057765279 1.7023833E-08 0.707303584
v -0.0956217945 1.7023833E-08 0.696994185
v -0.0956217945 0.00980950799 0.680177569
v 0.04951391 1.7023833E-08 0.291326225
v -0 0.0372623801 0.204676926
v 0.0783974901 1.7023833E-08 0.202613771
v -0 0.0309461802 0.299578518
v 0.0350728221 1.7023833E-08 0.40815711
v 0.010315869 0.0226938911 0.40815711
v 0.0453877486 1.7023833E-08 0.523689508
v -0 0.017434068 0.573203564
v 0.0268214494 0.0112075564 0.573203564
v 0.0536414832 -4.20427995E-08 0.573203564
v 0.0309471358 1.7023833E-08 0.618591189
v -0 0.0247569699 0.637158871
v 0.0330097415 0.0165046547 0.682546616
v -0 0.0350723378 0.682546616
v -0 0.0247569699 0.637158871
v 0.0350728221 1.7023833E-08 0.637158871
v 0.0309471358 1.7023833E-08 0.618591189
v 0.0557036139 1.7023833E-08 0.651600361
v 0.0557036139 0.0103154136 0.682546616
v 0.0330097415 0.0165046547 0.682546616
v 0.0350728221 1.7023833E-08 0.637158871
v 0.0557036139 1.7023833E-08 0.651600361
v 0.0935629681 -5.88724142E-05 0.659158111
v 0.0935629681 0.00980944932 0.680177569
v 0.0557036139 0.0103154136 0.682546616
v 0.0330097415 0.0165046547 0.682546616
v 0.0557036139 0.0103154136 0.682546616
v 0.0557036139 1.7023833E-08 0.707303584
v 0.0267595463 -4.20427995E-08 0.723808229
v -0 0.0350723378 0.682546616
v -0.000142232457 0.0226938333 0.723808229
v 0.0198714342 -2.19242708E-07 0.841798782
v -0.000200826544 0.0120026525 0.841798782
v 0.0288835838 -1.01109435E-07 0.936754167
v -0 0.0103152953 0.936754167
v 0.0557036139 0.0103154136 0.682546616
v 0.0935629681 0.00980944932 0.680177569
v 0.0935629681 -1.01109435E-07 0.696993947
v 0.0557036139 1.7023833E-08 0.707303584
v -0.147471905 0.0190794263 0.680177689
v -0.0956217945 0.00980950799 0.680177569
v -0.0956217945 1.7023833E-08 0.696994185
v -0.141866237 7.60904584E-08 0.727824271
v -0.147471905 0.0190794263 0.680177689
v -0.165690422 7.60904584E-08 0.633933008
v -0.137662575 7.60904584E-08 0.593293607
v -0.175499737 7.60904584E-08 0.680177689
v -0.147471905 0.0190794263 0.680177689
v -0.0956217945 1.7023833E-08 0.659157395
v -0.0956217945 0.00980950799 0.680177569
v -0.10963428 7.60904584E-08 0.650749564
v -0.126450792 7.60904584E-08 0.633933008
v -0.137662575 7.60904584E-08 0.593293607
v 0.145412609 0.0194361303 0.67980206
v 0.139809296 0.00155630475 0.727805614
v 0.0935629681 -1.01109435E-07 0.696993947
v 0.0935629681 0.00980944932 0.680177569
v 0.145412609 0.0194361303 0.67980206
v 0.135603756 -0.0017230158 0.593314767
v 0.163631588 -0.000732350163 0.633942127
v 0.173440441 0.000292396842 0.680177808
v 0.145412609 0.0194361303 0.67980206
v 0.0935629681 0.00980944932 0.680177569
v 0.0935629681 -5.88724142E-05 0.659158111
v 0.107577823 -0.000322486798 0.650753677
v 0.124393851 -0.000732350163 0.633942127
v 0.135603756 -0.0017230158 0.593314767
v -0.147471905 -0.0191493854 0.680177689
v -0.141866237 7.60904584E-08 0.727824271
v -0.0956217945 1.7023833E-08 0.696994185
v -0.0956217945 -0.00980953407 0.680177569
v -0.147471905 -0.0191493854 0.680177689
v -0.137662575 7.60904584E-08 0.593293607
v -0.165690422 7.60904584E-08 0.633933008
v -0.175499737 7.60904584E-08 0.680177689
v -0.147471905 -0.0191493854 0.680177689
v -0.0956217945 -0.00980953407 0.680177569
v -0.0956217945 1.7023833E-08 0.659157395
v -0.10963428 7.60904584E-08 0.650749564
v -0.126450792 7.60904584E-08 0.633933008
v -0.137662575 7.60904584E-08 0.593293607
v 0.145412609 -0.0187812224 0.680553615
v 0.0935629681 -0.00980959274 0.680177569
v 0.0935629681 -1.01109435E-07 0.696993947
v 0.139809296 0.00155630475 0.727805614
v 0.145412609 -0.0187812224 0.680553615
v 0.163631588 -0.000732350163 0.633942127
v 0.135603756 -0.0017230158 0.593314767
v 0.173440441 0.000292396842 0.680177808
v 0.145412609 -0.0187812224 0.680553615
v 0.0935629681 -5.88724142E-05 0.659158111
v 0.0935629681 -0.00980959274 0.680177569
v 0.107577823 -0.000322486798 0.650753677
v 0.124393851 -0.000732350163 0.633942127
v 0.135603756 -0.0017230158 0.593314767
v -0.0701428056 -0.0315076821 0.688781619
v -0.04744941 -0.0599134117 0.688692153
v -0 -0.0492403097 0.614471734
v -0 -0.0346796215 0.589784801
v -0 -0.0346796215 0.589784801
v -0 -0.0492403097 0.614471734
v 0.0453896374 -0.0599134117 0.688692153
v 0.0680849254 -0.0315076821 0.688781619
v 0.0680849254 -0.0315076821 0.688781619
v 0.0453896374 -0.0599134117 0.688692153
v -0 -0.0478926487 0.763021767
v -0 -0.0315076821 0.787857711
v -0 -0.0315076821 0.787857711
v -0 -0.0478926487 0.763021767
v -0.04744941 -0.0599134117 0.688692153
v -0.0701428056 -0.0315076821 0.688781619
v -0.04744941 -0.0599134117 0.688692153
v -0.0433237255 -0.0557872541 0.68871212
v -0 -0.0471971966 0.618607938
v -0 -0.0492403097 0.614471734
v -0 -0.0492403097 0.614471734
v -0 -0.0471971966 0.618607938
v 0.0412630066 -0.0557872541 0.68871212
v 0.0453896374 -0.0599134117 0.688692153
v 0.0453896374 -0.0599134117 0.688692153
v 0.0412630066 -0.0557872541 0.68871212
v -0 -0.0437368974 0.756852448
v -0 -0.0478926487 0.763021767
v -0 -0.0478926487 0.763021767
v -0 -0.0437368974 0.756852448
v -0.0433237255 -0.0557872541 0.68871212
v -0.04744941 -0.0599134117 0.688692153
v -0.0701428056 -0.0315076821 0.688781619
v -0 -0.0346796215 0.589784801
v 0.0680849254 -0.0315076821 0.688781619
v -0 -0.0315076821 0.787857711
v -0.0701428056 0.0315076001 0.688781619
v -0 0.0346795358 0.589784801
v -0 0.0492402315 0.614471734
v -0.04744941 0.0599133298 0.688692153
v -0 0.0346795358 0.589784801
v 0.0680849254 0.0315076001 0.688781619
v 0.0453896374 0.0599133298 0.688692153
v -0 0.0492402315 0.614471734
v 0.0680849254 0.0315076001 0.688781619
v -0 0.0315076001 0.787857711
v -0 0.0478925668 0.763021767
v 0.0453896374 0.0599133298 0.688692153
v -0 0.0315076001 0.787857711
v -0.0701428056 0.0315076001 0.688781619
v -0.04744941 0.0599133298 0.688692153
v -0 0.0478925668 0.763021767
v -0.04744941 0.0599133298 0.688692153
v -0 0.0492402315 0.614471734
v -0 0.0471971147 0.618607938
v -0.0433237255 0.0557871759 0.68871212
v -0 0.0492402315 0.614471734
v 0.0453896374 0.0599133298 0.688692153
v 0.0412630066 0.0557871759 0.68871212
v -0 0.0471971147 0.618607938
v 0.0453896374 0.0599133298 0.688692153
v -0 0.0478925668 0.763021767
v -0 0.0437368117 0.756852448
v 0.0412630066 0.0557871759 0.68871212
v -0 0.0478925668 0.763021767
v -0.04744941 0.0599133298 0.688692153
v -0.0433237255 0.0557871759 0.68871212
v -0 0.0437368117 0.756852448
v -0.0701428056 0.0315076001 0.688781619
v 0.0680849254 0.0315076001 0.688781619
v -0 0.0346795358 0.589784801
v -0 0.0315076001 0.787857711
vt 0.476870328 0.257176936
vt 0.4728432 0.136858419
vt 0.33027637 0.137798637
vt 0.33027637 0.137798637
vt 0.4728432 0.136858419
vt 0.474004269 0.0171379894
vt 0.474004269 0.0171379894
vt 0.4728432 0.136858419
vt 0.628677487 0.134817362
vt 0.628677487 0.134817362
vt 0.4728432 0.136858419
vt 0.476870328 0.257176936
vt 0.33027637 0.137798637
vt 0.306242973 0.177612096
vt 0.476870328 0.257176936
vt 0.474004269 0.0171379894
vt 0.305521727 0.0971005708
vt 0.33027637 0.137798637
vt 0.33027637 0.137798637
vt 0.4728432 0.136858419
vt 0.474004269 0.0171379894
vt 0.476870328 0.257176936
vt 0.4728432 0.136858419
vt 0.33027637 0.137798637
vt 0.628677487 0.134817362
vt 0.4728432 0.136858419
vt 0.476870328 0.257176936
vt 0.474004269 0.0171379894
vt 0.4728432 0.136858419
vt 0.628677487 0.134817362
vt 0.133865669 0.466235608
vt 0.148930058 0.34918049
vt 0.0106490916 0.346847266
vt 0.138209358 0.231828958
vt 0.0106490916 0.346847266
vt 0.148930058 0.34918049
vt 0.138343573 0.231691778
vt 0.0111413952 0.346847266
vt 0.148930058 0.34918049
vt 0.134762555 0.466111332
vt 0.148930058 0.34918049
vt 0.0111413952 0.346847266
vt 0.660837114 0.588977396
vt 0.558100045 0.656099558
vt 0.556750357 0.595292568
vt 0.660837114 0.588977396
vt 0.556750357 0.595292568
vt 0.558100045 0.656099558
vt 0.660837114 0.588977396
vt 0.556750357 0.595292568
vt 0.558100045 0.656099558
vt 0.660837114 0.588977396
vt 0.558100045 0.656099558
vt 0.556750357 0.595292568
vt 0.250097394 0.847100914
vt 0.46156463 0.969191551
vt 0.447163552 0.84049201
vt 0.46156463 0.969191551
vt 0.652729154 0.835621893
vt 0.447163552 0.84049201
vt 0.250097394 0.847100914
vt 0.447163552 0.84049201
vt 0.448391318 0.717647493
vt 0.448391318 0.717647493
vt 0.447163552 0.84049201
vt 0.652729154 0.835621893
vt 0.250097394 0.847100914
vt 0.447163552 0.84049201
vt 0.46156463 0.969191551
vt 0.46156463 0.969191551
vt 0.447163552 0.84049201
vt 0.652729154 0.835621893
vt 0.250097394 0.847100914
vt 0.448391318 0.717647493
vt 0.447163552 0.84049201
vt 0.448391318 0.717647493
vt 0.652729154 0.835621893
vt 0.447163552 0.84049201
vt 0.260952383 0.432600558
vt 0.148930058 0.34918049
vt 0.133865669 0.466235608
vt 0.270280093 0.351231724
vt 0.384674042 0.415761709
vt 0.385429204 0.371082246
vt 0.535664678 0.428022265
vt 0.601599216 0.356731862
vt 0.601843655 0.397134274
vt 0.601343513 0.438988864
vt 0.663729012 0.412209213
vt 0.69018358 0.357750565
vt 0.749641955 0.409861833
vt 0.749975681 0.359126061
vt 0.69018358 0.357750565
vt 0.687144279 0.416972101
vt 0.663729012 0.412209213
vt 0.706915975 0.442285717
vt 0.751392901 0.442485422
vt 0.749641955 0.409861833
vt 0.687144279 0.416972101
vt 0.706915975 0.442285717
vt 0.705729246 0.550040543
vt 0.751503587 0.55232656
vt 0.751392901 0.442485422
vt 0.749641955 0.409861833
vt 0.751392901 0.442485422
vt 0.785405993 0.442977875
vt 0.807927191 0.419016242
vt 0.749975681 0.359126061
vt 0.806283712 0.358877361
vt 0.892793357 0.409819335
vt 0.891037345 0.361290306
vt 0.989851534 0.406307906
vt 0.991231143 0.362421989
vt 0.751392901 0.442485422
vt 0.751503587 0.55232656
vt 0.789150238 0.550572872
vt 0.785405993 0.442977875
vt 0.263707727 0.269594073
vt 0.138209358 0.231828958
vt 0.148930058 0.34918049
vt 0.270280093 0.351231724
vt 0.38678959 0.29060474
vt 0.38603434 0.335284203
vt 0.538108408 0.283454239
vt 0.601599216 0.356731862
vt 0.603097022 0.317141354
vt 0.604120314 0.274713635
vt 0.664625764 0.303423494
vt 0.69018358 0.357750565
vt 0.752050698 0.309202582
vt 0.69018358 0.357750565
vt 0.749975681 0.359126061
vt 0.689127922 0.299617648
vt 0.664625764 0.303423494
vt 0.709432423 0.275546074
vt 0.689127922 0.299617648
vt 0.752050698 0.309202582
vt 0.752041698 0.277391165
vt 0.709432423 0.275546074
vt 0.752041698 0.277391165
vt 0.75804621 0.166746423
vt 0.712070942 0.167572662
vt 0.752050698 0.309202582
vt 0.788148344 0.277264506
vt 0.752041698 0.277391165
vt 0.810330391 0.30245167
vt 0.749975681 0.359126061
vt 0.806283712 0.358877361
vt 0.895319045 0.313456029
vt 0.891037345 0.361290306
vt 0.99098748 0.32201919
vt 0.991231143 0.362421989
vt 0.752041698 0.277391165
vt 0.788148344 0.277264506
vt 0.795590997 0.169540614
vt 0.75804621 0.166746423
vt 0.263707727 0.269594073
vt 0.138343573 0.231691778
vt 0.148930058 0.34918049
vt 0.270280093 0.351231724
vt 0.38678959 0.29060474
vt 0.38603434 0.335284203
vt 0.538108408 0.283454239
vt 0.602109015 0.356940925
vt 0.603718817 0.316569895
vt 0.604120314 0.274713635
vt 0.666078329 0.303595096
vt 0.690677166 0.35891673
vt 0.751862824 0.308844745
vt 0.690677166 0.35891673
vt 0.750481665 0.359562784
vt 0.689127922 0.299617648
vt 0.666078329 0.303595096
vt 0.710055411 0.274427295
vt 0.689127922 0.299617648
vt 0.751862824 0.308844745
vt 0.754715323 0.27629894
vt 0.710055411 0.274427295
vt 0.754715323 0.27629894
vt 0.758003831 0.16628474
vt 0.712328136 0.166933939
vt 0.751862824 0.308844745
vt 0.788276613 0.276630759
vt 0.754715323 0.27629894
vt 0.810424149 0.301665425
vt 0.750481665 0.359562784
vt 0.806749105 0.361714423
vt 0.894931078 0.313725293
vt 0.891535878 0.362167239
vt 0.991815031 0.320514977
vt 0.991710722 0.364422441
vt 0.754715323 0.27629894
vt 0.788276613 0.276630759
vt 0.795590997 0.169540614
vt 0.758003831 0.16628474
vt 0.260952383 0.432600558
vt 0.148930058 0.34918049
vt 0.134762555 0.466111332
vt 0.270280093 0.351231724
vt 0.384674042 0.415761709
vt 0.385429204 0.371082246
vt 0.535664678 0.428022265
vt 0.602109015 0.356940925
vt 0.602267981 0.396559447
vt 0.601343513 0.438988864
vt 0.663297892 0.412348986
vt 0.690677166 0.35891673
vt 0.750868142 0.409527898
vt 0.750481665 0.359562784
vt 0.690677166 0.35891673
vt 0.687144279 0.416972101
vt 0.663297892 0.412348986
vt 0.706915975 0.442285717
vt 0.749784112 0.441320807
vt 0.750868142 0.409527898
vt 0.687144279 0.416972101
vt 0.706915975 0.442285717
vt 0.705729246 0.550040543
vt 0.751503587 0.55232656
vt 0.749784112 0.441320807
vt 0.750868142 0.409527898
vt 0.749784112 0.441320807
vt 0.785405993 0.442977875
vt 0.808886409 0.4182446
vt 0.750481665 0.359562784
vt 0.806749105 0.361714423
vt 0.894198418 0.410118878
vt 0.891535878 0.362167239
vt 0.990101695 0.404793918
vt 0.991710722 0.364422441
vt 0.749784112 0.441320807
vt 0.751503587 0.55232656
vt 0.789150238 0.550572872
vt 0.785405993 0.442977875
vt 0.556750357 0.595292568
vt 0.558241189 0.494596392
vt 0.604168117 0.493091464
vt 0.660837114 0.588977396
vt 0.556750357 0.595292568
vt 0.474473894 0.637428164
vt 0.394264519 0.579918623
vt 0.558100045 0.656099558
vt 0.556750357 0.595292568
vt 0.52114588 0.492207378
vt 0.558241189 0.494596392
vt 0.503498852 0.519731581
vt 0.470061302 0.553517222
vt 0.394264519 0.579918623
vt 0.556750357 0.595292568
vt 0.660837114 0.588977396
vt 0.604168117 0.493091464
vt 0.558241189 0.494596392
vt 0.556750357 0.595292568
vt 0.394264519 0.579918623
vt 0.474473894 0.637428164
vt 0.558100045 0.656099558
vt 0.556750357 0.595292568
vt 0.558241189 0.494596392
vt 0.52114588 0.492207378
vt 0.503498852 0.519731581
vt 0.470061302 0.553517222
vt 0.394264519 0.579918623
vt 0.556750357 0.595292568
vt 0.660837114 0.588977396
vt 0.604168117 0.493091464
vt 0.558241189 0.494596392
vt 0.556750357 0.595292568
vt 0.394264519 0.579918623
vt 0.474473894 0.637428164
vt 0.558100045 0.656099558
vt 0.556750357 0.595292568
vt 0.558241189 0.494596392
vt 0.52114588 0.492207378
vt 0.503498852 0.519731581
vt 0.470061302 0.553517222
vt 0.394264519 0.579918623
vt 0.556750357 0.595292568
vt 0.558241189 0.494596392
vt 0.604168117 0.493091464
vt 0.660837114 0.588977396
vt 0.556750357 0.595292568
vt 0.474473894 0.637428164
vt 0.394264519 0.579918623
vt 0.558100045 0.656099558
vt 0.556750357 0.595292568
vt 0.52114588 0.492207378
vt 0.558241189 0.494596392
vt 0.503498852 0.519731581
vt 0.470061302 0.553517222
vt 0.394264519 0.579918623
vt 0.0451444723 0.651229799
vt 0.101010248 0.651229799
vt 0.21781829 0.523628891
vt 0.21781829 0.481094956
vt 0.21781829 0.481094956
vt 0.21781829 0.523628891
vt 0.329548478 0.651229799
vt 0.385414243 0.651229799
vt 0.385414243 0.651229799
vt 0.329548478 0.651229799
vt 0.21781829 0.778831124
vt 0.21781829 0.821364939
vt 0.21781829 0.821364939
vt 0.21781829 0.778831124
vt 0.101010248 0.651229799
vt 0.0451444723 0.651229799
vt 0.101010248 0.651229799
vt 0.111167297 0.651229799
vt 0.21781829 0.530717671
vt 0.21781829 0.523628891
vt 0.21781829 0.523628891
vt 0.21781829 0.530717671
vt 0.319391429 0.651229799
vt 0.329548478 0.651229799
vt 0.329548478 0.651229799
vt 0.319391429 0.651229799
vt 0.21781829 0.768197715
vt 0.21781829 0.778831124
vt 0.21781829 0.778831124
vt 0.21781829 0.768197715
vt 0.111167297 0.651229799
vt 0.101010248 0.651229799
vt 0.718767583 0.742359161
vt 0.628254473 0.975754619
vt 0.876126111 0.979699731
vt 0.969575822 0.749456286
vt 0.0451444723 0.651229799
vt 0.21781829 0.481094956
vt 0.21781829 0.523628891
vt 0.101010248 0.651229799
vt 0.21781829 0.481094956
vt 0.385414243 0.651229799
vt 0.329548478 0.651229799
vt 0.21781829 0.523628891
vt 0.385414243 0.651229799
vt 0.21781829 0.821364939
vt 0.21781829 0.778831124
vt 0.329548478 0.651229799
vt 0.21781829 0.821364939
vt 0.0451444723 0.651229799
vt 0.101010248 0.651229799
vt 0.21781829 0.778831124
vt 0.101010248 0.651229799
vt 0.21781829 0.523628891
vt 0.21781829 0.530717671
vt 0.111167297 0.651229799
vt 0.21781829 0.523628891
vt 0.329548478 0.651229799
vt 0.319391429 0.651229799
vt 0.21781829 0.530717671
vt 0.329548478 0.651229799
vt 0.21781829 0.778831124
vt 0.21781829 0.768197715
vt 0.319391429 0.651229799
vt 0.21781829 0.778831124
vt 0.101010248 0.651229799
vt 0.111167297 0.651229799
vt 0.21781829 0.768197715
vt 0.718767583 0.742359161
vt 0.876126111 0.979699731
vt 0.628254473 0.975754619
vt 0.969575822 0.749456286
vn -0.540608823 -0.79811281 -0.266003639
vn -0.540608823 -0.79811281 -0.266003639
vn -0.540608823 -0.79811281 -0.266003639
vn 0.553204834 -0.790307105 -0.263399094
vn 0.553204834 -0.790307105 -0.263399094
vn 0.553204834 -0.790307105 -0.263399094
vn 0.532408118 -0.760609269 0.371503949
vn 0.532408118 -0.760609269 0.371503949
vn 0.532408118 -0.760609269 0.371503949
vn -0.519978642 -0.767567813 0.374782354
vn -0.519978642 -0.767567813 0.374782354
vn -0.519978642 -0.767567813 0.374782354
vn -0.804560483 0 -0.593870759
vn -0.804560483 0 -0.593870759
vn -0.804560483 0 -0.593870759
vn 0.813740075 0 -0.581229031
vn 0.813740075 0 -0.581229031
vn 0.813740075 0 -0.581229031
vn -0.583013833 0.753118813 -0.304806322
vn -0.583013833 0.753118813 -0.304806322
vn -0.583013833 0.753118813 -0.304806322
vn 0.595662296 0.744551659 -0.301379085
vn 0.595662296 0.744551659 -0.301379085
vn 0.595662296 0.744551659 -0.301379085
vn 0.572711945 0.7158162 0.399509966
vn 0.572711945 0.7158162 0.399509966
vn 0.572711945 0.7158162 0.399509966
vn -0.560078323 0.723373532 0.403785676
vn -0.560078323 0.723373532 0.403785676
vn -0.560078323 0.723373532 0.403785676
vn -0.458613515 -0.794821858 -0.397406399
vn -0.458613515 -0.794821858 -0.397406399
vn -0.458613515 -0.794821858 -0.397406399
vn 0.468014657 -0.790423393 -0.39521277
vn 0.468014657 -0.790423393 -0.39521277
vn 0.468014657 -0.790423393 -0.39521277
vn -0.458613545 0.794821858 -0.397406429
vn -0.458613545 0.794821858 -0.397406429
vn -0.458613545 0.794821858 -0.397406429
vn 0.468014657 0.790423393 -0.39521277
vn 0.468014657 0.790423393 -0.39521277
vn 0.468014657 0.790423393 -0.39521277
vn -0.522973478 0.768255353 0.369164526
vn -0.522973478 0.768255353 0.369164497
vn -0.522973478 0.768255353 0.369164467
vn 0.525095344 0.775651753 0.350198895
vn 0.525095344 0.775651753 0.350198895
vn 0.525095344 0.775651753 0.350198895
vn -0.524105251 -0.767099023 0.369963408
vn -0.524105191 -0.767098904 0.369963408
vn -0.524105251 -0.767099023 0.369963437
vn 0.521923661 -0.759285152 0.38869223
vn 0.521923661 -0.759285152 0.38869223
vn 0.521923721 -0.759285212 0.38869223
vn -0.444757193 -0.81357646 -0.374545515
vn -0.444757193 -0.81357646 -0.374545515
vn -0.444757193 -0.81357646 -0.374545544
vn -0.408255577 -0.818450511 0.404309422
vn -0.408255577 -0.818450511 0.404309422
vn -0.408255607 -0.818450511 0.404309422
vn 0.462311208 -0.805461705 -0.370809704
vn 0.462311208 -0.805461705 -0.370809674
vn 0.462311149 -0.805461705 -0.370809674
vn 0.42503342 -0.811555922 0.400903493
vn 0.42503342 -0.811555922 0.400903493
vn 0.42503342 -0.811555922 0.400903493
vn -0.444757193 0.81357646 -0.374545544
vn -0.444757134 0.813576579 -0.374545574
vn -0.444757193 0.81357646 -0.374545515
vn -0.408255547 0.81845063 0.404309481
vn -0.408255517 0.818450511 0.404309452
vn -0.408255517 0.81845063 0.404309452
vn 0.462311119 0.805461705 -0.370809704
vn 0.462311149 0.805461764 -0.370809704
vn 0.462311149 0.805461764 -0.370809704
vn 0.425033301 0.811555922 0.400903523
vn 0.425033361 0.811555922 0.400903523
vn 0.425033301 0.811555922 0.400903493
vn -0.518705726 -0.845810413 0.12469589
vn -0.51261425 -0.844123721 0.157104462
vn -0.504212797 -0.847823799 0.164207786
vn -0.541793287 -0.834988892 0.096195966
vn -0.648614049 -0.760918558 -0.0173985958
vn -0.597681403 -0.801574051 -0.0159978867
vn -0.656392097 -0.751793563 -0.0628948212
vn -0.408991098 -0.906976819 0.100594752
vn -0.459305733 -0.879007459 0.12800096
vn -0.568104029 -0.820503414 0.0634968132
vn -0.543991566 -0.820788741 0.174295813
vn -0.617297411 -0.785094619 0.0506997108
vn -0.495895356 -0.837094843 -0.230997786
vn -0.458699346 -0.866500854 -0.196903825
vn -0.512381136 -0.831668615 -0.213992596
vn -0.54412663 -0.816240251 -0.194108456
vn -0.550512433 -0.825819612 -0.122302815
vn -0.233304158 -0.918622017 -0.318908721
vn -0.250511497 -0.918442249 -0.306117386
vn -0.241398528 -0.918596745 -0.312900633
vn -0.226603895 -0.918621004 -0.323706955
vn 0.0355985127 -0.938620985 -0.343108296
vn 0.0774010718 -0.921325088 -0.381010652
vn 0.0554018281 -0.910440326 -0.40991348
vn 0.0474001989 -0.947606206 -0.315904468
vn -0.370701283 -0.871405423 0.321299046
vn -0.244110554 -0.895138025 0.373012006
vn -0.278393239 -0.89717406 0.342893243
vn -0.440804482 -0.876409888 0.193899959
vn -0.466772348 -0.84154886 0.271880805
vn -0.475606292 -0.864310622 0.163602799
vn -0.404912561 -0.912729561 0.0545024872
vn -0.371413022 -0.925433517 0.075000532
vn -0.3352139 -0.941146374 0.0433027707
vn -0.31578958 -0.947370112 0.0526010953
vn 0.00909715705 -0.91186744 0.410383821
vn 0.0687011033 -0.861719728 0.502711892
vn 0.0896030143 -0.890629888 0.445813358
vn -0 -0.923086226 0.384593159
vn 0.532809615 -0.836817205 0.125899911
vn 0.513698995 -0.841500521 0.167302832
vn 0.524197519 -0.836698413 0.158596054
vn 0.55818814 -0.823882937 0.0981986746
vn 0.651997685 -0.757997692 -0.0184029341
vn 0.627495885 -0.778495848 -0.0138998022
vn 0.631569684 -0.773258209 -0.0564932823
vn 0.431186467 -0.896771133 0.0993967131
vn 0.466774702 -0.874651432 0.130790457
vn 0.567635238 -0.81994772 0.0739991739
vn 0.56498003 -0.807571113 0.169193745
vn 0.641788721 -0.76528877 0.0494003221
vn 0.517016709 -0.825626731 -0.225907594
vn 0.535498917 -0.81759882 -0.211596549
vn 0.480889887 -0.854981124 -0.194299176
vn 0.565815747 -0.801526427 -0.193411008
vn 0.572019637 -0.810331643 -0.127106905
vn 0.233304158 -0.918622017 -0.318908721
vn 0.226603866 -0.918621004 -0.323706925
vn 0.241398528 -0.918596745 -0.312900633
vn 0.250513285 -0.918441772 -0.306117296
vn -0.0355985127 -0.938620985 -0.343108296
vn -0.0474009439 -0.947606206 -0.315904468
vn -0.0554033071 -0.910440266 -0.409913391
vn -0.0774026364 -0.921324909 -0.381011009
vn 0.384090692 -0.86677295 0.318086326
vn 0.278392911 -0.897174239 0.342893273
vn 0.244110152 -0.895138144 0.373011976
vn 0.456708789 -0.868515849 0.19260636
vn 0.487577677 -0.831062019 0.267589003
vn 0.496712774 -0.852718592 0.161701456
vn 0.424307346 -0.903821707 0.0554025099
vn 0.39188838 -0.916975439 0.0746965632
vn 0.354508311 -0.934026301 0.0438034534
vn 0.335882545 -0.94045651 0.0521957912
vn -0.00909715705 -0.91186744 0.410383821
vn -0 -0.923086226 0.384593159
vn -0.0896045119 -0.890629709 0.445813447
vn -0.0687040836 -0.861719549 0.502711773
vn -0.518705726 0.845810413 0.12469589
vn -0.504212737 0.847823799 0.164207786
vn -0.512614131 0.844123721 0.157104447
vn -0.541793287 0.834988892 0.0961959586
vn -0.648614049 0.760918558 -0.0173985958
vn -0.597681403 0.801574051 -0.0159978867
vn -0.656392097 0.751793563 -0.0628948212
vn -0.408991128 0.906976759 0.100594744
vn -0.459305733 0.879007339 0.12800096
vn -0.568104148 0.820503414 0.0634968206
vn -0.543991625 0.820788682 0.174295843
vn -0.617297769 0.785094261 0.0506997108
vn -0.495895118 0.837095022 -0.230997831
vn -0.512381196 0.831668615 -0.213992596
vn -0.458699763 0.866500616 -0.196903855
vn -0.54412663 0.816240251 -0.194108456
vn -0.550512433 0.825819612 -0.122302815
vn -0.233304098 0.918622017 -0.318908632
vn -0.226603895 0.918621004 -0.323706955
vn -0.241398528 0.918596745 -0.312900633
vn -0.250511467 0.918442249 -0.306117356
vn 0.0355985165 0.938620985 -0.343108296
vn 0.0474001989 0.947606206 -0.315904468
vn 0.0554018132 0.910440326 -0.409913361
vn 0.0774010718 0.921325088 -0.381010652
vn -0.370700926 0.871405602 0.321299046
vn -0.278393239 0.89717406 0.342893243
vn -0.244110584 0.895137966 0.373012066
vn -0.440804482 0.876409888 0.193899959
vn -0.466772348 0.84154886 0.271880805
vn -0.475606292 0.864310622 0.163602799
vn -0.404912591 0.912729561 0.0545024872
vn -0.371413022 0.925433517 0.075000532
vn -0.335213512 0.941146493 0.0433027707
vn -0.315789551 0.947370112 0.0526010953
vn 0.00909715705 0.91186744 0.410383821
vn -0 0.923086226 0.384593159
vn 0.0896030143 0.890629888 0.445813358
vn 0.0687010959 0.861719787 0.502711833
vn 0.532809734 0.836817205 0.125899926
vn 0.5241974 0.836698532 0.158596084
vn 0.513698995 0.841500521 0.167302832
vn 0.558188081 0.823882937 0.0981986597
vn 0.651997685 0.757997692 -0.0184029341
vn 0.627495587 0.778495967 -0.0138998013
vn 0.631569028 0.773258746 -0.0564932935
vn 0.431186497 0.896771133 0.0993966907
vn 0.466774762 0.874651432 0.130790472
vn 0.567635238 0.819947779 0.0739991814
vn 0.56497997 0.807571113 0.16919373
vn 0.641788781 0.765288711 0.0494003184
vn 0.517016709 0.825626731 -0.225907594
vn 0.480890006 0.854981065 -0.194299161
vn 0.535498738 0.817598999 -0.211596623
vn 0.565815747 0.801526427 -0.193411008
vn 0.572019935 0.810331464 -0.12710689
vn 0.233304098 0.918622017 -0.318908632
vn 0.250505477 0.918414116 -0.306206733
vn 0.241398528 0.918596745 -0.312900633
vn 0.226603866 0.918621004 -0.323706925
vn -0.0355985165 0.938620985 -0.343108296
vn -0.0774026364 0.92132479 -0.381011009
vn -0.0554033183 0.910440266 -0.40991348
vn -0.0474009439 0.947606206 -0.315904468
vn 0.384090692 0.86677295 0.318086326
vn 0.244110152 0.895138144 0.373011976
vn 0.278392911 0.897174239 0.342893273
vn 0.456708789 0.868515849 0.19260636
vn 0.487577677 0.831062019 0.267589003
vn 0.496712923 0.852718472 0.161701456
vn 0.424307227 0.903821826 0.0554025173
vn 0.39188844 0.916975379 0.0746965557
vn 0.354508221 0.934026301 0.0438034423
vn 0.335882604 0.94045651 0.0521958023
vn -0.00909715705 0.91186744 0.410383821
vn -0.0687040687 0.861719608 0.502711713
vn -0.0896045119 0.890629709 0.445813447
vn -0 0.923086226 0.384593159
vn 0.206070855 0.899530828 0.385200202
vn 0.20607087 0.899530828 0.385200202
vn 0.20607084 0.899530709 0.385200173
vn 0.206070825 0.899530709 0.385200173
vn -0.495154709 0.854420364 -0.157440841
vn -0.399742573 0.892111063 -0.210579515
vn -0.345563442 0.907627046 -0.238325372
vn -0.558755517 0.820819676 -0.118521944
vn 0.278735429 0.914376378 -0.293636382
vn 0.176706776 0.905435205 -0.385955662
vn 0.176706776 0.905435205 -0.385955691
vn 0.214709327 0.917835176 -0.33388406
vn 0.41390878 0.892342925 -0.180009857
vn 0.487332135 0.862804294 -0.134447441
vn -0.217125714 0.904311299 0.367528856
vn -0.217125699 0.904311299 0.367528796
vn -0.217125699 0.904311299 0.367528826
vn -0.217125714 0.904311299 0.367528826
vn 0.495773047 0.850231826 -0.176960722
vn 0.344677001 0.902059853 -0.259780347
vn 0.39939782 0.887079895 -0.231453255
vn 0.559957683 0.817131877 -0.13690497
vn -0.279806018 0.908632219 -0.309993774
vn -0.180775508 0.900237739 -0.396096259
vn -0.180775508 0.900237739 -0.396096259
vn -0.216670245 0.911768675 -0.348901093
vn -0.413125157 0.888158202 -0.201252446
vn -0.486443967 0.859819531 -0.155185699
vn 0.206882492 -0.899047911 0.385891914
vn 0.206882492 -0.899047911 0.385891885
vn 0.206882507 -0.899047911 0.385891885
vn 0.206882477 -0.899047911 0.385891855
vn -0.49642247 -0.853600085 -0.157897085
vn -0.34660852 -0.907038808 -0.239046082
vn -0.400928676 -0.891435444 -0.211184993
vn -0.560136378 -0.819835424 -0.118814804
vn 0.279794097 -0.913894773 -0.294128567
vn 0.177663475 -0.905099094 -0.386304677
vn 0.177663475 -0.905099094 -0.386304647
vn 0.215614006 -0.91742295 -0.334433556
vn 0.415080875 -0.891687393 -0.180558532
vn 0.488663524 -0.861993611 -0.134814709
vn -0.195831731 -0.893801451 0.403446257
vn -0.195831731 -0.893801451 0.403446257
vn -0.195831731 -0.89380151 0.403446227
vn -0.195831746 -0.893801451 0.403446257
vn 0.495721489 -0.857408345 -0.13824296
vn 0.401171297 -0.896047056 -0.190161377
vn 0.347399145 -0.912163615 -0.217419893
vn 0.558848739 -0.823179781 -0.100314587
vn -0.278656512 -0.919383526 -0.27764079
vn -0.173467577 -0.910197437 -0.376097828
vn -0.173467577 -0.910197437 -0.376097828
vn -0.213565752 -0.923273385 -0.319305509
vn -0.415856153 -0.895389736 -0.159188107
vn -0.489545673 -0.864494085 -0.11399553
vn -0.645280361 -0.606636882 -0.464332759
vn -0.645280421 -0.606636882 -0.464332759
vn -0.645280361 -0.606636822 -0.464332759
vn -0.645280361 -0.606636822 -0.464332759
vn 0.653557181 -0.605327249 -0.454358786
vn 0.653557241 -0.605327249 -0.454358786
vn 0.653557241 -0.605327249 -0.454358786
vn 0.653557241 -0.605327189 -0.454358786
vn 0.654446125 -0.592795134 0.469355017
vn 0.654446125 -0.592795134 0.469354987
vn 0.654446125 -0.592795134 0.469355017
vn 0.654446125 -0.592795193 0.469355017
vn -0.646055758 -0.594046354 0.479292214
vn -0.646055639 -0.594046354 0.479292184
vn -0.646055639 -0.594046354 0.479292184
vn -0.646055758 -0.594046354 0.479292214
vn 0.66668576 -0.668243825 0.330121577
vn 0.66668576 -0.668243825 0.330121577
vn 0.66668576 -0.668243825 0.330121577
vn 0.66668576 -0.668243825 0.330121607
vn -0.675766647 -0.66551578 0.316903949
vn -0.675766706 -0.66551578 0.316903949
vn -0.675766647 -0.66551578 0.316903949
vn -0.675766706 -0.665515721 0.316903919
vn -0.719978452 -0.60765785 -0.335235804
vn -0.719978452 -0.60765785 -0.335235804
vn -0.719978392 -0.60765785 -0.335235804
vn -0.719978452 -0.60765779 -0.335235804
vn 0.709570885 -0.612341166 -0.348636597
vn 0.709570885 -0.612341166 -0.348636568
vn 0.709570885 -0.612341166 -0.348636568
vn 0.709570885 -0.612341166 -0.348636568
vn -0 0.999487042 -0.0320243873
vn -0 0.999487042 -0.0320243873
vn -0 0.999487042 -0.0320243873
vn -0 1 0
vn -0.64528048 0.606636822 -0.464332759
vn -0.64528048 0.606636822 -0.464332759
vn -0.64528048 0.606636822 -0.464332759
vn -0.64528048 0.606636822 -0.464332759
vn 0.653557241 0.605327189 -0.454358786
vn 0.653557241 0.605327249 -0.454358816
vn 0.653557181 0.605327189 -0.454358816
vn 0.653557181 0.605327189 -0.454358816
vn 0.654446006 0.592795193 0.469354957
vn 0.654446065 0.592795253 0.469354987
vn 0.654446006 0.592795193 0.469354957
vn 0.654446065 0.592795253 0.469354987
vn -0.646055758 0.594046354 0.479292214
vn -0.646055758 0.594046354 0.479292214
vn -0.646055639 0.594046354 0.479292184
vn -0.646055639 0.594046354 0.479292184
vn 0.66668576 0.668243825 0.330121577
vn 0.66668576 0.668243825 0.330121547
vn 0.66668576 0.668243825 0.330121577
vn 0.66668576 0.668243825 0.330121577
vn -0.675766647 0.66551578 0.316903919
vn -0.675766706 0.66551578 0.316903949
vn -0.675766647 0.66551578 0.316903949
vn -0.675766706 0.66551578 0.316903919
vn -0.719978273 0.607657909 -0.335235775
vn -0.719978273 0.607657909 -0.335235775
vn -0.719978333 0.607657969 -0.335235775
vn -0.719978333 0.607657909 -0.335235775
vn 0.709570825 0.612341285 -0.348636508
vn 0.709570885 0.612341225 -0.348636508
vn 0.709570885 0.612341285 -0.348636538
vn 0.709570885 0.612341285 -0.348636538
vn -0 -0.999487042 -0.03202435
vn -0 -0.999487042 -0.03202435
vn -0 -0.999487042 -0.03202435
vn -0 -1 0
g ZC_sword_01_0
f 3/3/3 2/2/2 1/1/1
f 6/6/6 5/5/5 4/4/4
f 9/9/9 8/8/8 7/7/7
f 12/12/12 11/11/11 10/10/10
f 15/15/15 14/14/14 13/13/13
f 18/18/18 17/17/17 16/16/16
f 21/21/21 20/20/20 19/19/19
f 24/24/24 23/23/23 22/22/22
f 27/27/27 26/26/26 25/25/25
f 30/30/30 29/29/29 28/28/28
f 33/33/33 32/32/32 31/31/31
f 36/36/36 35/35/35 34/34/34
f 39/39/39 38/38/38 37/37/37
f 42/42/42 41/41/41 40/40/40
f 45/45/45 44/44/44 43/43/43
f 48/48/48 47/47/47 46/46/46
f 51/51/51 50/50/50 49/49/49
f 54/54/54 53/53/53 52/52/52
f 57/57/57 56/56/56 55/55/55
f 60/60/60 59/59/59 58/58/58
f 63/63/63 62/62/62 61/61/61
f 66/66/66 65/65/65 64/64/64
f 69/69/69 68/68/68 67/67/67
f 72/72/72 71/71/71 70/70/70
f 75/75/75 74/74/74 73/73/73
f 78/78/78 77/77/77 76/76/76
f 81/81/81 80/80/80 79/79/79
f 80/80/80 82/82/82 79/79/79
f 83/83/83 79/79/79 82/82/82
f 84/84/84 83/83/83 82/82/82
f 84/84/84 85/85/85 83/83/83
f 84/84/84 82/82/82 86/86/86
f 84/84/84 87/87/87 85/85/85
f 87/87/87 84/84/84 86/86/86
f 87/87/87 88/88/88 85/85/85
f 87/87/87 89/89/89 88/88/88
f 89/89/89 87/87/87 86/86/86
f 90/90/90 89/89/89 86/86/86
f 93/93/93 92/92/92 91/91/91
f 94/94/94 93/93/93 91/91/91
f 95/95/95 93/93/93 94/94/94
f 98/98/98 97/97/97 96/96/96
f 99/99/99 98/98/98 96/96/96
f 102/102/102 101/101/101 100/100/100
f 103/103/103 102/102/102 100/100/100
f 106/106/106 105/105/105 104/104/104
f 107/107/107 106/106/106 104/104/104
f 107/107/107 104/104/104 108/108/108
f 109/109/109 107/107/107 108/108/108
f 110/110/110 107/107/107 109/109/109
f 111/111/111 110/110/110 109/109/109
f 112/112/112 110/110/110 111/111/111
f 113/113/113 112/112/112 111/111/111
f 116/116/116 115/115/115 114/114/114
f 117/117/117 116/116/116 114/114/114
f 120/120/120 119/119/119 118/118/118
f 121/121/121 120/120/120 118/118/118
f 118/118/118 122/122/122 121/121/121
f 122/122/122 123/123/123 121/121/121
f 124/124/124 123/123/123 122/122/122
f 121/121/121 123/123/123 125/125/125
f 126/126/126 123/123/123 124/124/124
f 123/123/123 126/126/126 125/125/125
f 127/127/127 126/126/126 124/124/124
f 128/128/128 126/126/126 127/127/127
f 126/126/126 128/128/128 125/125/125
f 128/128/128 129/129/129 125/125/125
f 132/132/132 131/131/131 130/130/130
f 131/131/131 133/133/133 130/130/130
f 131/131/131 134/134/134 133/133/133
f 137/137/137 136/136/136 135/135/135
f 138/138/138 137/137/137 135/135/135
f 141/141/141 140/140/140 139/139/139
f 142/142/142 141/141/141 139/139/139
f 145/145/145 144/144/144 143/143/143
f 144/144/144 146/146/146 143/143/143
f 143/143/143 146/146/146 147/147/147
f 146/146/146 148/148/148 147/147/147
f 146/146/146 149/149/149 148/148/148
f 149/149/149 150/150/150 148/148/148
f 149/149/149 151/151/151 150/150/150
f 151/151/151 152/152/152 150/150/150
f 155/155/155 154/154/154 153/153/153
f 156/156/156 155/155/155 153/153/153
f 159/159/159 158/158/158 157/157/157
f 160/160/160 159/159/159 157/157/157
f 157/157/157 161/161/161 160/160/160
f 161/161/161 162/162/162 160/160/160
f 163/163/163 162/162/162 161/161/161
f 160/160/160 162/162/162 164/164/164
f 165/165/165 162/162/162 163/163/163
f 162/162/162 165/165/165 164/164/164
f 166/166/166 165/165/165 163/163/163
f 167/167/167 165/165/165 166/166/166
f 165/165/165 167/167/167 164/164/164
f 167/167/167 168/168/168 164/164/164
f 171/171/171 170/170/170 169/169/169
f 170/170/170 172/172/172 169/169/169
f 170/170/170 173/173/173 172/172/172
f 176/176/176 175/175/175 174/174/174
f 177/177/177 176/176/176 174/174/174
f 180/180/180 179/179/179 178/178/178
f 181/181/181 180/180/180 178/178/178
f 184/184/184 183/183/183 182/182/182
f 183/183/183 185/185/185 182/182/182
f 182/182/182 185/185/185 186/186/186
f 185/185/185 187/187/187 186/186/186
f 185/185/185 188/188/188 187/187/187
f 188/188/188 189/189/189 187/187/187
f 188/188/188 190/190/190 189/189/189
f 190/190/190 191/191/191 189/189/189
f 194/194/194 193/193/193 192/192/192
f 195/195/195 194/194/194 192/192/192
f 198/198/198 197/197/197 196/196/196
f 197/197/197 199/199/199 196/196/196
f 200/200/200 196/196/196 199/199/199
f 201/201/201 200/200/200 199/199/199
f 201/201/201 202/202/202 200/200/200
f 201/201/201 199/199/199 203/203/203
f 201/201/201 204/204/204 202/202/202
f 204/204/204 201/201/201 203/203/203
f 204/204/204 205/205/205 202/202/202
f 204/204/204 206/206/206 205/205/205
f 206/206/206 204/204/204 203/203/203
f 207/207/207 206/206/206 203/203/203
f 210/210/210 209/209/209 208/208/208
f 211/211/211 210/210/210 208/208/208
f 212/212/212 210/210/210 211/211/211
f 215/215/215 214/214/214 213/213/213
f 216/216/216 215/215/215 213/213/213
f 219/219/219 218/218/218 217/217/217
f 220/220/220 219/219/219 217/217/217
f 223/223/223 222/222/222 221/221/221
f 224/224/224 223/223/223 221/221/221
f 224/224/224 221/221/221 225/225/225
f 226/226/226 224/224/224 225/225/225
f 227/227/227 224/224/224 226/226/226
f 228/228/228 227/227/227 226/226/226
f 229/229/229 227/227/227 228/228/228
f 230/230/230 229/229/229 228/228/228
f 233/233/233 232/232/232 231/231/231
f 234/234/234 233/233/233 231/231/231
f 237/237/237 236/236/236 235/235/235
f 238/238/238 237/237/237 235/235/235
f 241/241/241 240/240/240 239/239/239
f 240/240/240 242/242/242 239/239/239
f 245/245/245 244/244/244 243/243/243
f 244/244/244 246/246/246 243/243/243
f 243/243/243 246/246/246 247/247/247
f 247/247/247 248/248/248 243/243/243
f 251/251/251 250/250/250 249/249/249
f 252/252/252 251/251/251 249/249/249
f 255/255/255 254/254/254 253/253/253
f 256/256/256 255/255/255 253/253/253
f 259/259/259 258/258/258 257/257/257
f 260/260/260 259/259/259 257/257/257
f 260/260/260 257/257/257 261/261/261
f 262/262/262 261/261/261 257/257/257
f 265/265/265 264/264/264 263/263/263
f 266/266/266 265/265/265 263/263/263
f 269/269/269 268/268/268 267/267/267
f 270/270/270 269/269/269 267/267/267
f 273/273/273 272/272/272 271/271/271
f 274/274/274 273/273/273 271/271/271
f 274/274/274 271/271/271 275/275/275
f 276/276/276 275/275/275 271/271/271
f 279/279/279 278/278/278 277/277/277
f 280/280/280 279/279/279 277/277/277
f 283/283/283 282/282/282 281/281/281
f 282/282/282 284/284/284 281/281/281
f 287/287/287 286/286/286 285/285/285
f 286/286/286 288/288/288 285/285/285
f 285/285/285 288/288/288 289/289/289
f 289/289/289 290/290/290 285/285/285
f 293/293/293 292/292/292 291/291/291
f 294/294/294 293/293/293 291/291/291
f 297/297/297 296/296/296 295/295/295
f 298/298/298 297/297/297 295/295/295
f 301/301/301 300/300/300 299/299/299
f 302/302/302 301/301/301 299/299/299
f 305/305/305 304/304/304 303/303/303
f 306/306/306 305/305/305 303/303/303
f 309/309/309 308/308/308 307/307/307
f 310/310/310 309/309/309 307/307/307
f 313/313/313 312/312/312 311/311/311
f 314/314/314 313/313/313 311/311/311
f 317/317/317 316/316/316 315/315/315
f 318/318/318 317/317/317 315/315/315
f 321/321/321 320/320/320 319/319/319
f 322/322/322 321/321/321 319/319/319
f 325/325/325 324/324/324 323/323/323
f 326/326/326 325/325/325 323/323/323
f 329/329/329 328/328/328 327/327/327
f 330/330/330 329/329/329 327/327/327
f 333/333/333 332/332/332 331/331/331
f 334/334/334 333/333/333 331/331/331
f 337/337/337 336/336/336 335/335/335
f 338/338/338 337/337/337 335/335/335
f 341/341/341 340/340/340 339/339/339
f 342/342/342 341/341/341 339/339/339
f 345/345/345 344/344/344 343/343/343
f 346/346/346 345/345/345 343/343/343
f 349/349/349 348/348/348 347/347/347
f 350/350/350 349/349/349 347/347/347
f 353/353/353 352/352/352 351/351/351
f 354/354/354 353/353/353 351/351/351
f 357/357/357 356/356/356 355/355/355
f 358/358/358 357/357/357 355/355/355
f 361/361/361 360/360/360 359/359/359
f 360/360/360 362/362/362 359/359/359
